<?xml version="1.0" encoding="utf-8"?>
<!-- Generator: Adobe Illustrator 26.0.3, SVG Export Plug-In . SVG Version: 6.00 Build 0)  -->
<svg version="1.1" id="图层_1" xmlns="http://www.w3.org/2000/svg" xmlns:xlink="http://www.w3.org/1999/xlink" x="0px" y="0px"
	 viewBox="0 0 351 198" style="enable-background:new 0 0 351 198;" xml:space="preserve">
<style type="text/css">
	.st0{fill:#FFFFFF;}
	.st1{fill:#FF605C;}
	.st2{fill:#1E1A1A;}
</style>
<rect x="68.5" y="114.3" transform="matrix(0.5603 -0.8283 0.8283 0.5603 -70.7298 127.301)" class="st0" width="32" height="32"/>
<circle class="st1" cx="293.6" cy="89.2" r="22"/>
<path class="st2" d="M304.5,89.1c0.1,12.7-10.2,23-22.9,23.1s-23-10.2-23.1-22.9s10.2-23,22.9-23.1
	C294.2,66.2,304.5,76.4,304.5,89.1z M260.5,89.3c0,11.6,9.5,21,21.1,20.9c11.6,0,21-9.5,20.9-21.1c0-11.6-9.5-21-21.1-20.9l0,0
	C269.9,68.2,260.5,77.7,260.5,89.3L260.5,89.3z"/>
<path class="st2" d="M105.9,117.2l-19,28.2l-28.2-19l19-28.2L105.9,117.2z M86.3,142.6l16.8-24.8L78.3,101l-16.8,24.8L86.3,142.6z"
	/>
</svg>
