<?xml version="1.0" encoding="utf-8"?>
<!-- Generator: Adobe Illustrator 26.0.3, SVG Export Plug-In . SVG Version: 6.00 Build 0)  -->
<svg version="1.1" id="图层_1" xmlns="http://www.w3.org/2000/svg" xmlns:xlink="http://www.w3.org/1999/xlink" x="0px" y="0px"
	 viewBox="0 0 500 500" style="enable-background:new 0 0 500 500;" xml:space="preserve">
<style type="text/css">
	.st0{fill:#974A42;}
	.st1{fill:#DEC6C4;}
	.st2{fill:#D34844;}
	.st3{fill:#B84842;}
	.st4{fill:#F0E5DB;}
	.st5{fill:#57524E;}
	.st6{fill:#BB514C;}
	.st7{fill:#F0B4B2;}
	.st8{fill:#F2BDBB;}
	.st9{fill:#F2BBBA;}
	.st10{fill:#F2BCBA;}
	.st11{fill:#D1403C;}
	.st12{fill:#F9EDE3;}
	.st13{fill:#D9CFC5;}
	.st14{fill:#F9EEE4;}
	.st15{fill:#F4F0E6;}
	.st16{fill:#F8EDE2;}
	.st17{fill:#FCF1E7;}
	.st18{fill:#514C48;}
	.st19{fill:#E3D9CF;}
	.st20{fill:#B5413B;}
	.st21{fill:#746E67;}
	.st22{fill:#E15C4C;}
	.st23{fill:#FEFEFE;}
	.st24{fill:#FFFDFD;}
	.st25{fill:#EEE8E7;}
	.st26{fill:#EEE1DF;}
	.st27{fill:#EEE7E6;}
	.st28{fill:#FFF9FA;}
	.st29{fill:#E9DEDE;}
	.st30{fill:#FFFCFA;}
	.st31{fill:#EDE0DF;}
	.st32{fill:#EEE2E1;}
	.st33{fill:#EEE7E4;}
	.st34{fill:#E3786A;}
	.st35{fill:#E58173;}
	.st36{fill:#F9F3EA;}
	.st37{fill:#F6F1EA;}
	.st38{fill:#D64D4F;}
	.st39{fill:#F2ECE3;}
	.st40{fill:#EBE4D4;}
	.st41{fill:#E1CCB6;}
	.st42{fill:#E3C7AB;}
	.st43{fill:#EAE4D2;}
	.st44{fill:#D44445;}
	.st45{fill:#D44343;}
	.st46{fill:#CE3B3B;}
	.st47{fill:#CE3A3A;}
	.st48{fill:#CE3838;}
	.st49{fill:#EFEAE0;}
	.st50{fill:#EAE4D6;}
	.st51{fill:#E7DCCA;}
	.st52{fill:#EAE1D1;}
	.st53{fill:#D13D3D;}
	.st54{fill:#E2CEB8;}
	.st55{fill:#DFC8B1;}
	.st56{fill:#DDC2A6;}
	.st57{fill:#E9E3D0;}
	.st58{fill:#A4A49E;}
	.st59{fill:#E4D4C0;}
	.st60{fill:#E4D2BE;}
	.st61{fill:#E6D6C3;}
	.st62{fill:#E7D8C6;}
	.st63{fill:#E3D2BE;}
	.st64{fill:#E9E0CF;}
	.st65{fill:#EADFCE;}
	.st66{fill:#E7DBC9;}
	.st67{fill:#ECE7D9;}
	.st68{fill:#EAE4D4;}
	.st69{fill:#E6E5DC;}
	.st70{fill:#D8D7CF;}
	.st71{fill:#A3A39E;}
	.st72{fill:#F3ECE4;}
	.st73{fill:#B9B8B2;}
	.st74{fill:#B8B7B1;}
	.st75{fill:#B2B2AC;}
	.st76{fill:#C6C6C0;}
	.st77{fill:#B5B6AF;}
	.st78{fill:#BCBCB6;}
	.st79{fill:#B6B6AF;}
	.st80{fill:#B7B7B1;}
	.st81{fill:#B3B3AD;}
	.st82{fill:#ACADA6;}
	.st83{fill:#A2A29C;}
	.st84{fill:#C3C3BC;}
	.st85{fill:#B5B5AF;}
	.st86{fill:#B0B0A8;}
	.st87{fill:#C7C8C1;}
	.st88{fill:#C8C8C3;}
	.st89{fill:#A2A19A;}
	.st90{fill:#C9C9C3;}
	.st91{fill:#BFBFB8;}
	.st92{fill:#ABABA4;}
	.st93{fill:#B0B0A9;}
	.st94{fill:#A7A7A2;}
	.st95{fill:#CCCCC6;}
	.st96{fill:#CECEC7;}
	.st97{fill:#C4C4BD;}
	.st98{fill:#BEBEB7;}
	.st99{fill:#CBCBC5;}
	.st100{fill:#D3D3CC;}
	.st101{fill:#C7C7C0;}
	.st102{fill:#CECEC8;}
	.st103{fill:#B6B7B0;}
	.st104{fill:#B7B7B0;}
	.st105{fill:#B1B1AB;}
	.st106{fill:#ADAEA7;}
	.st107{fill:#C8C8C2;}
	.st108{fill:#CFCFC8;}
	.st109{fill:#BABAB3;}
	.st110{fill:#AFAFA8;}
	.st111{fill:#BBBAB4;}
	.st112{fill:#D1D1CA;}
	.st113{fill:#E8E6DE;}
	.st114{fill:#DBDBD4;}
	.st115{fill:#B9B9B2;}
	.st116{fill:#CDCDC6;}
	.st117{fill:#F6F1EB;}
	.st118{fill:#D0D0C9;}
	.st119{fill:#F9F4ED;}
	.st120{fill:#DDDCD5;}
	.st121{fill:#F6F2EC;}
	.st122{fill:#FCF7F0;}
	.st123{fill:#FEF9F2;}
	.st124{fill:#EBE8E1;}
	.st125{fill:#E8E7E0;}
	.st126{fill:#C4C5BE;}
	.st127{fill:#D13C3C;}
	.st128{fill:#D1403E;}
	.st129{fill:#CF3E3C;}
	.st130{fill:#EEEADF;}
	.st131{fill:#D23F40;}
	.st132{fill:#ECE5D5;}
	.st133{fill:#E3C8AD;}
	.st134{fill:#E4DFD2;}
	.st135{fill:#F0ECE3;}
	.st136{fill:#E2D6CB;}
	.st137{fill:#DCC7B7;}
	.st138{fill:#F2EEE8;}
	.st139{fill:#DCC7B6;}
	.st140{fill:#E0CEBF;}
	.st141{fill:#EBEADF;}
	.st142{fill:#DAC5B6;}
	.st143{fill:#E9E5D9;}
	.st144{fill:#D53B3E;}
	.st145{fill:#E2D8CD;}
	.st146{fill:#D54B4D;}
	.st147{fill:#E7E2D4;}
	.st148{fill:#E1D3C7;}
	.st149{fill:#DCC8B3;}
	.st150{fill:#D44245;}
	.st151{fill:#EBEFE0;}
	.st152{fill:#E8E2CC;}
	.st153{fill:#EBF1E1;}
	.st154{fill:#DCBEB7;}
	.st155{fill:#D74144;}
	.st156{fill:#D84043;}
	.st157{fill:#D73F41;}
	.st158{fill:#D73E41;}
	.st159{fill:#EAE0CD;}
	.st160{fill:#E3CEB6;}
	.st161{fill:#EEEBDF;}
	.st162{fill:#E6D4BE;}
	.st163{fill:#EBEFE9;}
	.st164{fill:#D6787A;}
	.st165{fill:#E1CAAD;}
	.st166{fill:#DBB38F;}
	.st167{fill:#E4CBB0;}
	.st168{fill:#DEC0A1;}
	.st169{fill:#DFBD9E;}
	.st170{fill:#E1C6A8;}
	.st171{fill:#E9DDCA;}
	.st172{fill:#D24041;}
	.st173{fill:#D54747;}
	.st174{fill:#D34444;}
	.st175{fill:#F7FEFD;}
	.st176{fill:#D53839;}
	.st177{fill:#D45153;}
	.st178{fill:#DEC6AE;}
	.st179{fill:#958B7A;}
	.st180{fill:#928676;}
	.st181{fill:#EBE1D0;}
	.st182{fill:#EADCC9;}
	.st183{fill:#DEBB9A;}
	.st184{fill:#E6D1BA;}
	.st185{fill:#A2A098;}
	.st186{fill:#9B988A;}
	.st187{fill:#A2A29B;}
	.st188{fill:#AFAEA7;}
	.st189{fill:#BABAB2;}
	.st190{fill:#BFBFB6;}
	.st191{fill:#9C9D96;}
	.st192{fill:#7E7F79;}
	.st193{fill:#70706B;}
	.st194{fill:#696A63;}
	.st195{fill:#A7A8A1;}
	.st196{fill:#64665F;}
	.st197{fill:#E8DBC9;}
	.st198{fill:#E9DECC;}
	.st199{fill:#EAE2D4;}
	.st200{fill:#E6D9C4;}
	.st201{fill:#E8DCC8;}
	.st202{fill:#ECE8DC;}
	.st203{fill:#EAE3D3;}
	.st204{fill:#EBE7DA;}
	.st205{fill:#A09D94;}
	.st206{fill:#A9A9A2;}
	.st207{fill:#A5A5A0;}
	.st208{fill:#F2EBE2;}
	.st209{fill:#EDE9DC;}
	.st210{fill:#D23D3D;}
	.st211{fill:#E6D2BB;}
	.st212{fill:#E2CAAE;}
	.st213{fill:#DBB28E;}
	.st214{fill:#EEF2E1;}
	.st215{fill:#DFC4A5;}
	.st216{fill:#EAE5D5;}
	.st217{fill:#E2CCB1;}
	.st218{fill:#E6D7C2;}
	.st219{fill:#DDBF9E;}
	.st220{fill:#989282;}
	.st221{fill:#E4D4C1;}
	.st222{fill:#E4D6C3;}
	.st223{fill:#E2CEB9;}
	.st224{fill:#E9DFCF;}
	.st225{fill:#B8B8B0;}
	.st226{fill:#A7A7A1;}
	.st227{fill:#ACACA4;}
	.st228{fill:#94958D;}
	.st229{fill:#9A9A92;}
	.st230{fill:#C7C7BF;}
	.st231{fill:#C2C2B9;}
	.st232{fill:#A4A59E;}
	.st233{fill:#858680;}
	.st234{fill:#A0A199;}
	.st235{fill:#CCCCC5;}
	.st236{fill:#C9C9C1;}
	.st237{fill:#ADADA6;}
	.st238{fill:#C7C6BF;}
	.st239{fill:#AFAFA7;}
	.st240{fill:#B7B7AF;}
	.st241{fill:#B2B2AB;}
	.st242{fill:#C6C5BD;}
	.st243{fill:#B1B1AA;}
	.st244{fill:#B8B8B1;}
	.st245{fill:#C1C1B8;}
	.st246{fill:#BDBDB4;}
	.st247{fill:#ADACA5;}
	.st248{fill:#B0B1A9;}
	.st249{fill:#CFD0C7;}
	.st250{fill:#B3B3AC;}
	.st251{fill:#C0C0B7;}
	.st252{fill:#C3C3BA;}
	.st253{fill:#B9B9B1;}
	.st254{fill:#CCCBC4;}
	.st255{fill:#BCBCB3;}
	.st256{fill:#CAC9C2;}
	.st257{fill:#BBBBB3;}
	.st258{fill:#B4B4AC;}
	.st259{fill:#C7C6BE;}
	.st260{fill:#9B9B94;}
	.st261{fill:#CBCBC3;}
	.st262{fill:#DCDBD2;}
	.st263{fill:#B1B1A9;}
	.st264{fill:#E7E6DC;}
	.st265{fill:#BEBEB6;}
	.st266{fill:#BEBEB5;}
	.st267{fill:#C3C3BB;}
	.st268{fill:#CDCDC5;}
	.st269{fill:#C4C4BB;}
	.st270{fill:#B2B2AA;}
	.st271{fill:#D3D3CB;}
	.st272{fill:#B6B6AE;}
	.st273{fill:#CECEC6;}
	.st274{fill:#BAB9B1;}
	.st275{fill:#E0E0D7;}
	.st276{fill:#9A9B93;}
	.st277{fill:#DDDDD4;}
	.st278{fill:#B5B5AD;}
	.st279{fill:#D8D8CF;}
	.st280{fill:#CAC9C1;}
	.st281{fill:#E2E2D8;}
	.st282{fill:#A5A59E;}
	.st283{fill:#F8F3EA;}
	.st284{fill:#C5C5BC;}
	.st285{fill:#CBCBC2;}
	.st286{fill:#ACACA5;}
	.st287{fill:#D9D8D0;}
	.st288{fill:#C9C8C0;}
	.st289{fill:#ECEAE0;}
	.st290{fill:#A4A49D;}
	.st291{fill:#CDCEC6;}
	.st292{fill:#ECE9E0;}
	.st293{fill:#CCCCC4;}
	.st294{fill:#E9E7DE;}
	.st295{fill:#E7E5DC;}
	.st296{fill:#E2E0D7;}
	.st297{fill:#8B8B84;}
	.st298{fill:#8A8A82;}
	.st299{fill:#ABABA3;}
	.st300{fill:#A6A6A0;}
	.st301{fill:#9A9A93;}
	.st302{fill:#D3D3CA;}
	.st303{fill:#B0AFA8;}
	.st304{fill:#C4C3BB;}
	.st305{fill:#BCBCB4;}
	.st306{fill:#AAAAA3;}
	.st307{fill:#C5C4BC;}
	.st308{fill:#9E9E97;}
	.st309{fill:#D1D1C9;}
	.st310{fill:#D5D5CC;}
	.st311{fill:#AAAAA2;}
	.st312{fill:#D0D0C8;}
	.st313{fill:#DAD9D0;}
	.st314{fill:#92938B;}
	.st315{fill:#DAD9D1;}
	.st316{fill:#B9BAB1;}
	.st317{fill:#D4D4CC;}
	.st318{fill:#C8C8BF;}
	.st319{fill:#999992;}
	.st320{fill:#B5B5AE;}
	.st321{fill:#8C8C85;}
	.st322{fill:#A2A39B;}
	.st323{fill:#AEAEA7;}
	.st324{fill:#C1C1B9;}
	.st325{fill:#C7C7BE;}
	.st326{fill:#C6C6BE;}
	.st327{fill:#DEDDD4;}
	.st328{fill:#E2E1D8;}
	.st329{fill:#C5C5BD;}
	.st330{fill:#BBBBB2;}
	.st331{fill:#92928A;}
	.st332{fill:#D2D2CA;}
	.st333{fill:#C8C8C0;}
	.st334{fill:#ADADA5;}
	.st335{fill:#A5A69F;}
	.st336{fill:#FEFBF2;}
	.st337{fill:#E4E4DA;}
	.st338{fill:#9C9C95;}
	.st339{fill:#7C7C77;}
	.st340{fill:#AEADA6;}
	.st341{fill:#D1D2C9;}
	.st342{fill:#C3C2BA;}
	.st343{fill:#A6A69F;}
	.st344{fill:#DFDED5;}
	.st345{fill:#BFBFB7;}
	.st346{fill:#BDBDB5;}
	.st347{fill:#BBBAB2;}
	.st348{fill:#A3A49D;}
	.st349{fill:#999485;}
	.st350{fill:#9A9789;}
	.st351{fill:#E0C8AD;}
	.st352{fill:#DEC2A4;}
	.st353{fill:#EFEADF;}
	.st354{fill:#F2EBE1;}
	.st355{fill:#EFEADD;}
	.st356{fill:#A4A39A;}
	.st357{fill:#B2B1A8;}
	.st358{fill:#A1A096;}
	.st359{fill:#B2AFA5;}
	.st360{fill:#A7A69D;}
	.st361{fill:#B7B6AD;}
	.st362{fill:#ABA79C;}
	.st363{fill:#B9B8AF;}
	.st364{fill:#BBBAB1;}
	.st365{fill:#94938A;}
	.st366{fill:#9E9F99;}
	.st367{fill:#999993;}
	.st368{fill:#EEEADE;}
	.st369{fill:#ACACA2;}
	.st370{fill:#A7A79E;}
	.st371{fill:#9C9B90;}
	.st372{fill:#D1CEC4;}
	.st373{fill:#BBB9AE;}
	.st374{fill:#C0BAAE;}
	.st375{fill:#B6B2A6;}
	.st376{fill:#EAE3D4;}
	.st377{fill:#C0B9AC;}
	.st378{fill:#C6C4B9;}
	.st379{fill:#EAE5D7;}
	.st380{fill:#E8DCCB;}
	.st381{fill:#E9DFCE;}
	.st382{fill:#EADFCF;}
	.st383{fill:#B7B3A6;}
	.st384{fill:#BCB6A9;}
	.st385{fill:#C8C1B2;}
	.st386{fill:#BFB8AA;}
	.st387{fill:#B7B2A5;}
	.st388{fill:#C2BBAE;}
	.st389{fill:#E8DECE;}
	.st390{fill:#5D5D58;}
	.st391{fill:#70706A;}
	.st392{fill:#EEECE3;}
	.st393{fill:#6E6F69;}
	.st394{fill:#FCF9F0;}
	.st395{fill:#EAE4D5;}
	.st396{fill:#828076;}
	.st397{fill:#ECE8DB;}
	.st398{fill:#C8C6BC;}
	.st399{fill:#858379;}
	.st400{fill:#CECCC3;}
	.st401{fill:#B5B4AA;}
	.st402{fill:#B4B1A7;}
	.st403{fill:#D0CDC2;}
	.st404{fill:#B2AEA1;}
	.st405{fill:#EBE5D6;}
	.st406{fill:#ECE7DA;}
	.st407{fill:#AEACA1;}
	.st408{fill:#AEADA3;}
	.st409{fill:#EBE6D9;}
	.st410{fill:#B8B6AC;}
	.st411{fill:#A3A197;}
	.st412{fill:#C1BDB0;}
	.st413{fill:#C7C0B2;}
	.st414{fill:#B9B4A7;}
	.st415{fill:#F5EFE5;}
	.st416{fill:#99978D;}
	.st417{fill:#E9E2D2;}
	.st418{fill:#BCB6A8;}
	.st419{fill:#BAB4A7;}
	.st420{fill:#E8E0D1;}
	.st421{fill:#A09D92;}
	.st422{fill:#C0B9AB;}
	.st423{fill:#9B988B;}
	.st424{fill:#A7A398;}
	.st425{fill:#B5AFA2;}
	.st426{fill:#E7705A;}
	.st427{fill:#F18578;}
	.st428{fill:#F08476;}
	.st429{fill:#F5978E;}
	.st430{fill:#EF8171;}
	.st431{fill:#EC7C6D;}
	.st432{fill:#F79990;}
	.st433{fill:#F1867C;}
	.st434{fill:#ED786A;}
	.st435{fill:#E56E57;}
	.st436{fill:#EE7D6F;}
	.st437{fill:#EF8172;}
	.st438{fill:#F3FEFB;}
	.st439{fill:#EC7A69;}
	.st440{fill:#F18B80;}
	.st441{fill:#F69C92;}
	.st442{fill:#F18A7E;}
	.st443{fill:#F59386;}
	.st444{fill:#E76F5A;}
	.st445{fill:#F1887E;}
	.st446{fill:#F0897E;}
	.st447{fill:#EA7161;}
	.st448{fill:#F38D84;}
	.st449{fill:#E46A54;}
	.st450{fill:#EA7464;}
	.st451{fill:#F49088;}
	.st452{fill:#EB7765;}
	.st453{fill:#EB7B6D;}
	.st454{fill:#F4948A;}
	.st455{fill:#BBFAE7;}
	.st456{fill:#EA7A69;}
	.st457{fill:#E7705B;}
	.st458{fill:#883524;}
	.st459{fill:#E76D57;}
	.st460{fill:#A24532;}
	.st461{fill:#E7715C;}
	.st462{fill:#C25B48;}
	.st463{fill:#9C4331;}
	.st464{fill:#9C4230;}
	.st465{fill:#E8745F;}
	.st466{fill:#A54634;}
	.st467{fill:#E3644F;}
	.st468{fill:#F18573;}
	.st469{fill:#ED8F80;}
	.st470{fill:#B85544;}
	.st471{fill:#CB614F;}
	.st472{fill:#C66D5D;}
	.st473{fill:#DF604A;}
	.st474{fill:#F5FEFC;}
	.st475{fill:#BAFAE7;}
	.st476{fill:#F4FEFC;}
	.st477{fill:#F2FEFB;}
	.st478{fill:#F5FDFC;}
	.st479{fill:#BDFAE8;}
	.st480{fill:#E1AC98;}
	.st481{fill:#E6AF9C;}
	.st482{fill:#CCFCEE;}
	.st483{fill:#C1FDF5;}
	.st484{fill:#CEF3E7;}
	.st485{fill:#EE7B6A;}
	.st486{fill:#EF7869;}
	.st487{fill:#EA7261;}
	.st488{fill:#EC7565;}
	.st489{fill:#ED7C6B;}
	.st490{fill:#F7FEFC;}
	.st491{fill:#EC7566;}
	.st492{fill:#D5FCF7;}
	.st493{fill:#E8AF9E;}
	.st494{fill:#F49087;}
	.st495{fill:#CEFCEF;}
	.st496{fill:#DEFDF5;}
	.st497{fill:#E66C55;}
	.st498{fill:#8D3928;}
	.st499{fill:#A94835;}
	.st500{fill:#D6604C;}
	.st501{fill:#D46A57;}
	.st502{fill:#BD5440;}
	.st503{fill:#F69084;}
	.st504{fill:#E66852;}
	.st505{fill:#AC4B39;}
	.st506{fill:#8C3928;}
	.st507{fill:#EA7765;}
	.st508{fill:#EB7262;}
	.st509{fill:#D06350;}
	.st510{fill:#E1634E;}
	.st511{fill:#E8AB99;}
	.st512{fill:#EB7F6D;}
	.st513{fill:#E7A695;}
	.st514{fill:#EA7868;}
	.st515{fill:#E76F59;}
	.st516{fill:#BE5945;}
	.st517{fill:#8C3827;}
	.st518{fill:#C05946;}
	.st519{fill:#BC503B;}
	.st520{fill:#CBFCEE;}
	.st521{fill:#D0FCF0;}
	.st522{fill:#E0FDF5;}
	.st523{fill:#DFFDF5;}
	.st524{fill:#EAFEF8;}
	.st525{fill:#D7FDF3;}
	.st526{fill:#D2FCF0;}
	.st527{fill:#E1644D;}
	.st528{fill:#EA7F6E;}
	.st529{fill:#EB8372;}
	.st530{fill:#DE4F38;}
	.st531{fill:#E97360;}
	.st532{fill:#E86D5D;}
	.st533{fill:#E86F5D;}
	.st534{fill:#EB7362;}
	.st535{fill:#E97664;}
	.st536{fill:#832715;}
	.st537{fill:#D1FCF1;}
	.st538{fill:#E1FDF5;}
	.st539{fill:#DFFEF6;}
	.st540{fill:#E4FEF8;}
	.st541{fill:#F4FEFB;}
	.st542{fill:#BB5643;}
	.st543{fill:#EE7869;}
	.st544{fill:#EE7B69;}
	.st545{fill:#B95441;}
	.st546{fill:#EB7360;}
	.st547{fill:#B5503E;}
	.st548{fill:#A94735;}
	.st549{fill:#E36953;}
	.st550{fill:#B44D3A;}
	.st551{fill:#F39387;}
	.st552{fill:#8A3625;}
	.st553{fill:#C1533E;}
	.st554{fill:#8D3828;}
	.st555{fill:#8A3525;}
	.st556{fill:#893323;}
	.st557{fill:#EB705C;}
	.st558{fill:#E8705A;}
	.st559{fill:#A74531;}
	.st560{fill:#AC4734;}
	.st561{fill:#BC503C;}
	.st562{fill:#D26452;}
	.st563{fill:#E97461;}
	.st564{fill:#EA7B6B;}
	.st565{fill:#D66754;}
	.st566{fill:#E97765;}
	.st567{fill:#C35540;}
	.st568{fill:#EA7262;}
	.st569{fill:#E97060;}
	.st570{fill:#BF513D;}
	.st571{fill:#AD4834;}
	.st572{fill:#C65944;}
	.st573{fill:#983E2C;}
</style>
<g>
	<path class="st426" d="M367.2,385.4c-9.3,0.3-18.2,3.2-27.2,5.2c-31.1,6.9-62.1,14-93.2,21c-30.5,6.9-61,13.8-91.6,20.7
		c-21.4,4.8-42.8,9.7-64.2,14.5c-1,0.2-2,0.2-2.8,0.9c-0.3,0-0.6,0-0.9,0c-2.9-11.6-5.8-23.2-8.7-34.9
		c-5.1-20.8-10.2-41.6-15.3-62.3c-11.6-46.9-23.2-93.8-34.7-140.7c-1.7-6.9-3.3-13.9-5-20.9c1.2-0.2,1.2,0.8,1.4,1.4
		c0.5,1.8,1.3,3.6,1.2,5.6c0,0.1-0.1,0.3,0.1,0.3c0-0.3,0.2-0.4,0.4-0.5c1,0.4,1.1,1.4,1.3,2.3c3,12,6.1,24,9.3,35.9
		c0.1,1.2,0.5,2.4,0.9,3.6c0.6,2.5,1.2,5,1.9,7.5c6.4,24.5,12.6,49.1,19,73.6c5.2,20.1,10.4,40.1,15.7,60.2
		c1.2,4.4,2.3,8.9,3.4,13.4c3.6,13.4,7,26.9,10.6,40.3c0.7,2.9,1.5,5.8,2.2,8.6c0.3,1.4,1.2,0.9,2.1,0.7c1.5-0.4,3-0.7,4.6-1.2
		c0.4-0.1,0.9-0.2,1.4-0.3c1-0.3,2.1-0.4,3.2-0.7c35.3-8.5,70.6-16.7,105.9-25.2c2.2-0.4,4.3-1.1,6.5-1.5c0.7-0.1,1.5-0.1,2.2-0.4
		c20.8-5.1,41.7-10,62.5-14.9c25.4-6,50.8-12.1,76.2-18.1c2-0.5,3.9-0.9,5.9-1.4c0.9-0.2,2-0.3,2.5-1.4c0.3-0.6,0.4-1.3,0.5-2
		c0.1-0.8,0.4-1.5,0.4-2.3c0-0.3,0.1-0.7,0.1-1c0-0.2,0.1-0.4,0.1-0.6c0.2-0.7,0.2-1.5,0.4-2.3c0.1-0.5,0.4-0.9,0.6-1.2
		c1.1-1.2,2.4-1.5,3.9-1.2c0.6,1.1,0.2,2.3,0.4,3.5c-0.3,1.3-0.6,2.5-0.8,3.8c-0.4,2-0.8,4-1.3,5.9c-0.4,1.8-0.1,2.9,2,2.8
		c0.4,0,0.8,0.1,1.1,0.3c0.2,0.2,0.3,0.4,0.3,0.6c-0.7,0.9-1.8,0.6-2.8,0.7C367.7,383.8,367.1,384.2,367.2,385.4z"/>
	<path class="st426" d="M324.6,72.7c10,0.3,20.1,0.3,30.1,0.9c22.8,1.4,45.7,1.5,68.5,2c3.7,0.1,7.3,0.2,11,0.4
		c3.5,0.5,7.1,0,10.7,0.3c1.5,1.8,0.5,3.7,0.2,5.6c-2.5,10.6-4.6,21.3-6.9,31.9c-1.2,5.3-2.3,10.6-3.3,16c-3.3,14.2-6,28.6-9.3,42.8
		c-0.2,0.7-0.3,1.4-0.6,2c-1,2.6-1.3,5.3-1.9,8c0,0.2-0.1,0.4-0.2,0.7c-0.5,1.4-0.7,2.8-0.8,4.2c0,0.2-0.1,0.4-0.1,0.7
		c-0.3,1.3-0.6,2.7-0.9,4c-0.3,0.8-0.2,1.7-0.5,2.5c-3.6,16.4-7.1,32.8-10.6,49.3c-2.3,10.7-4.7,21.4-7,32.2
		c-1.6,7.5-3.1,14.9-4.7,22.4c-0.2,1.1-0.2,2,0.3,2.9c0.2,1,0.1,1.9-0.5,2.7c-0.5,0.5-1.1,0.8-1.8,0.4c-0.1-4.2-1.7-8-2.9-11.9
		c-3.5-11.5-7.2-22.9-10.8-34.3c-8-25.4-16-50.7-24-76.1c-4.3-13.6-8.6-27.2-12.9-40.8c-7-22-13.8-44-20.9-66
		C324.3,74.5,323.9,73.6,324.6,72.7z"/>
	<path class="st427" d="M144.4,77.5c7.9-1.3,15.9-2.4,23.9-3.3c1.5,1.5,0.2,1.8-0.9,2c-3.3,0.7-3.4,0.8-2.8,4.1
		c2.3,12.3,4.2,24.7,6.4,37.1c1.6,8.8,3.1,17.7,4.6,26.5c1.7,10.1,3.6,20.3,5.2,30.4c1.1,7.1,2.4,14.1,3.7,21.2
		c1.6,8.9,3,17.8,4.6,26.7c1.8,10.3,3.7,20.6,5.3,30.9c1.2,7.3,2.5,14.6,3.8,21.9c1.8,10.4,3.6,20.9,5.4,31.3
		c1.4,8.1,2.8,16.3,4.2,24.4c1.9,11.1,3.8,22.1,5.7,33.2c1.4,8.3,3.1,16.5,4.2,24.9c0.3,2.2,0.9,4.4,1.2,6.7
		c0.4,2.9,0.2,3.2-2.6,3.7c-0.5,0.1-0.7,0.2-0.7,0.7c-0.8,0.8-1.8,0.9-2.8,1.1c-9.3,1.9-18.6,3.9-28,5.6c-0.5,0.1-0.9,0.1-1.4,0.1
		c-0.6-0.1-1.4-0.1-1.5-0.8c-0.1-0.8,0.7-0.8,1.2-1.1c1-0.3,2-0.2,3-0.6c0.8-0.2,1.5-0.2,2.3-0.3c2.2-0.7,4.4-0.9,6.6-1.5
		c2.7-0.7,2.9-0.8,2.5-3.4c-0.4-2.4-0.8-4.8-1.2-7.1c-1.4-8.7-3-17.3-4.5-26c-1.8-10.4-3.6-20.7-5.4-31.1c-1.5-8.5-3.1-17-4.4-25.6
		c-1.1-7.2-2.5-14.3-3.7-21.4c-1.3-7.4-2.4-14.9-3.8-22.3c-1.4-7.1-2.3-14.3-3.7-21.4c-1.4-7-2.4-14-3.6-20.9
		c-1.3-7.6-2.7-15.2-3.9-22.8c-1.2-7-2.4-14-3.6-21c-2-12-4.2-23.9-6.2-35.9c-1.7-10.1-3.5-20.3-5.2-30.4
		c-1.2-7.3-2.6-14.6-3.8-21.9c-0.5-3.3-1.2-6.6-1.8-9.9C142.4,79.5,143.1,78.4,144.4,77.5z"/>
	<path class="st428" d="M215.7,399.5c-0.3,0-0.6-0.1-1.5-0.2c1-0.4,1.5-0.8,2.1-0.8c2.5,0.3,2.4-1.1,2.1-2.8
		c-1.7-8.3-3.1-16.7-4.4-25.1c-1.3-8.2-3-16.4-4.1-24.7c-0.7-5.5-2.1-10.9-2.9-16.4c-1.1-7.1-2.7-14.1-3.6-21.3
		c-0.4-3.9-1.5-7.7-2.1-11.6c-1-5.9-1.8-11.8-3-17.6c-1.2-5.6-1.6-11.3-2.9-16.9c-1.2-5.1-1.7-10.4-2.6-15.5
		c-0.8-4.6-1.7-9.1-2.5-13.7c-0.9-5.3-1.7-10.5-2.7-15.8c-1.1-5.7-1.6-11.5-3-17.1c-0.8-3.3-1.3-6.7-1.6-10.1
		c-0.2-2.5-0.9-4.9-1.3-7.3c-1.2-7.8-2.6-15.5-3.9-23.3c-1.1-6-2.2-12-3.2-18c-1-5.8-1.9-11.6-2.9-17.4c-1.2-7.2-2.3-14.5-3.8-21.7
		c-1.1-5.5-1.5-11.2-3-16.7c-0.6-2.4-0.9-4.9-1.1-7.3c-0.2-2.9,0-3,3-2.8c1,0.1,2.5,0.8,1.7-1.4c0.5,0,0.9-0.1,1.4-0.1
		c0.7,0.1,1.3-0.1,1.9-0.3c0.4,0,0.9-0.1,1.3-0.1c0.8-0.5,1.8,0.5,2.5-0.4c0.3,0,0.6-0.1,0.9-0.1c0.9,0.3,2-0.7,2.8,0.4
		c1.5,4,1.6,8.3,2.4,12.4c2,10.8,3.8,21.7,5.6,32.5c2.8,16.4,5.6,32.7,8.5,49.1c2.3,13.4,4.5,26.7,6.9,40.1
		c2.7,15.2,5.3,30.4,7.9,45.6c2.1,11.8,4,23.7,6.1,35.5c2.1,12.1,4.2,24.1,6.2,36.2c1.7,10,3.4,20,5.1,30c1.5,8.7,2.9,17.4,4.5,26
		c0.8,3.9,1.5,7.8,1.9,11.8c0.3,2.7,0.2,2.8-2.4,3.6c-0.8,0.3-2-0.5-2.5,0.9c-1.3,1.1-2.9,1-4.4,1.4c-2.2,0.5-4.4,0.9-6.6,1.3
		C217.3,399.9,216.5,400.2,215.7,399.5z"/>
	<path class="st429" d="M46.1,90.6c5.7-0.9,11.5-1.7,17.3-2.3c1,4.4,1.6,8.9,2.4,13.3c0.7,3.6,1.3,7.2,1.8,10.8
		c0.1,1-0.9,2.2,0.5,2.9c-0.1,1.2-1.2,1-2,1.2c-3.8,0.7-7.5,1.4-11.3,2c-1.8,0.2-2.4,0.8-1.8,2.7c5.1,16.6,10.1,33.2,15.1,49.9
		c5.8,19.5,11.8,38.9,17.5,58.4c1.8,6.2,3.6,12.4,5.6,18.6c0.3,1,0.7,2.1,0.5,3.2c-0.5,1.5,0.1,3,0.4,4.4
		c1.9,10.9,3.7,21.8,5.6,32.7c1.6,9.1,3.2,18.1,4.7,27.2c1.4,8.2,2.8,16.4,4.2,24.7c1.8,10.7,3.8,21.3,5.6,32
		c1.7,9.9,3.6,19.8,5,29.7c0.6,3.8,1.4,7.5,2,11.3c0.3,1.7,0.9,3.4-0.3,5c-0.6,0.6-1.4,0.7-2.1,0.8c-4.2,0.6-8.4,1.4-12.7,1.4
		c-0.5,0-1.1,0-1.6-0.1c-1.4-0.1-2.8,0-1.8-2.2c0.3-0.7,0-1.5-0.2-2.3c-2-11-3.8-22-5.7-32.9c-2.4-13.6-4.8-27.3-7.1-41
		c-2-11.7-4-23.3-6-35c-2.1-12-4.1-23.9-6.2-35.9c-1.7-9.8-3.3-19.7-5-29.5c-1.8-10.7-3.8-21.5-5.5-32.2
		c-1.7-10.1-3.6-20.2-5.3-30.4c-1.4-8.8-2.9-17.5-4.5-26.2c-1.6-8.7-2.9-17.5-4.5-26.2c1.4-6.3-2.7-11.7-3.2-17.7
		c-0.4-4.9-1.4-9.7-2.4-14.5C44.9,92.8,45.6,91.7,46.1,90.6z"/>
	<path class="st430" d="M195.4,70.5c0.4,0,0.9-0.1,1.3-0.1c0.8-0.5,1.7,0.1,2.4-0.4c0.3,0,0.6,0,0.9-0.1c0.5-0.3,1-0.3,1.6,0
		c-0.6,2.1-0.1,4.1,0.3,6.2c1.7,8.6,3,17.4,4.5,26c2.2,12.1,4.2,24.3,6.3,36.4c2,11.9,4.1,23.8,6.1,35.7c2.8,16.4,5.6,32.9,8.5,49.3
		c2,11.4,4.1,22.9,5.9,34.3c1.6,9.8,3.4,19.7,5.1,29.5c1.8,11,3.8,22,5.7,32.9c1.3,7.6,2.7,15.2,3.9,22.8
		c1.8,11.1,3.7,22.3,5.8,33.4c0.6,3.2,0.9,6.5,1.6,9.7c0.5,2.2,1.1,4.5-1.8,5.8c-0.5,0.7-1.3,0.8-2.1,1c-3.7,0.6-7.3,1.9-11.1,2.1
		c-1.1-0.2-2.7-0.2-1-2c0.9-0.9,0.5-2,0.4-3.1c-1.7-11.1-3.9-22.1-5.7-33.2c-2-11.6-4.1-23.2-6-34.8c-1.3-7.9-2.7-15.8-4.1-23.7
		c-1.6-9.5-3.3-19-4.9-28.5c-1.6-10-3.5-20-5.1-29.9c-1.5-9-3-18-4.7-26.9c-1.3-7-2.4-14.1-3.6-21.2c-1.5-8.5-3-17-4.4-25.6
		c-2-11.6-3.9-23.2-6-34.8c-1.3-7.4-2.5-14.9-3.8-22.3c-1.4-8.1-2.9-16.3-4.2-24.4c-0.5-2.8-1.2-5.6-1.4-8.5c-0.1-2.2,0.4-3,2.5-3.4
		C190.7,72.1,193.1,71.4,195.4,70.5z"/>
	<path class="st431" d="M209.5,68.6c0.3,0,0.6,0,0.8-0.1c2.8,0.1,3.7,0.8,4.2,3.6c0.8,4.8,1.8,9.5,2.5,14.3
		c1.4,9.1,3.1,18.1,4.7,27.2c1.3,7.5,2.5,15.1,3.9,22.6c1.8,10.3,3.6,20.6,5.3,30.9c1.2,7.3,2.4,14.6,3.7,21.9
		c1.3,7.1,2.3,14.3,3.7,21.4c1.4,7.1,2.4,14.3,3.7,21.4c1.3,7.3,2.4,14.6,3.8,21.9c1.4,7,2.3,14,3.6,21c2.1,12,4.2,24.1,6.3,36.1
		c1.3,7.5,2.5,15.1,3.8,22.6c1.4,8.1,2.9,16.3,4.2,24.4c1.5,8.9,3.2,17.8,4.6,26.7c0.1,0.4,0.1,0.8,0.3,1.1c0.2,0.5,0.5,1.1,1.1,1
		c0.8-0.1,0.9-0.8,0.8-1.5c-0.3-2.1-0.7-4.1-1.2-6.2c-1.4-5.6-1.4-11.4-2.8-17c-1.9-7.7-2.7-15.6-4.2-23.4c-1.2-6.3-2.1-12.7-3.3-19
		c-1.3-7.2-2.2-14.4-3.6-21.5c-1.4-7.1-2.3-14.4-3.8-21.5c-1.1-5.3-1.7-10.7-2.7-16.1c-1-5.5-1.8-11-2.8-16.5
		c-0.8-4.4-1.8-8.8-2.3-13.3c-0.5-3.8-1.3-7.5-1.9-11.3c-0.5-2.5-1.2-5-1.3-7.6c-0.1-3.4-1.1-6.8-1.7-10.1c-0.6-3-1.3-5.9-1.5-8.9
		c-0.2-3.2-1-6.3-1.7-9.4c-1.2-6.2-1.9-12.6-3.2-18.8c-1.7-8-2.7-16.1-4.1-24.1c-1.1-6.2-1.9-12.5-3.2-18.6
		c-1.4-6.5-2-13.2-3.5-19.7c-1.3-5.4-1.8-11-2.9-16.5c-1.1-5.2-2.1-10.5-2.5-15.8c-0.1-0.8-0.2-1.6,0.4-2.2c3.1-0.4,6.2-0.9,9.3-1.3
		c-1.1,3.1,0.2,6,0.6,8.9c1.1,7.5,2.7,15,3.9,22.6c1.3,8,2.8,16,4.1,24c1.2,7.4,2.6,14.7,3.9,22.1c1.9,10.9,3.7,21.8,5.7,32.7
		c1.4,8.1,2.7,16.3,4.2,24.4c1.9,10.9,3.8,21.8,5.6,32.7c1.4,8,2.8,16,4.1,24c1.6,9.4,3.2,18.7,4.8,28.1c1.7,10.2,3.5,20.4,5.2,30.6
		c1.8,10.7,3.7,21.3,5.6,32c1.3,7.2,2.6,14.4,3.7,21.7c0.6,3.8,1.2,7.5,2,11.3c0.8,4.2,0.7,4.4-3.6,5.3c-0.1,0-0.1,0.4,0,0.6
		c-1.3,1.4-3.1,1.1-4.8,1.5c-4.2,0.9-8.4,2.1-12.7,2.5c-0.5-0.1-1.2-0.2-1.3-0.7c-0.1-0.6,0.6-0.8,1.1-1.1c0.3-0.1-0.1,0,0.2-0.1
		c1.2-0.5,2.9,0,3.4-1.5c0.4-1.3-0.2-2.6-0.4-3.9c-1.8-10.1-3.5-20.3-5.2-30.4c-2-11.6-4.1-23.2-6-34.8c-1.6-10.1-3.5-20.1-5.2-30.2
		c-1.8-10.8-3.7-21.5-5.5-32.2c-1.4-8-2.8-16-4.1-24c-1.6-9.4-3.2-18.7-4.9-28.1c-1.7-10-3.4-20-5.1-29.9c-1.6-9-3-18-4.7-26.9
		c-1.3-7-2.4-14.1-3.6-21.2c-1.5-8.5-3-17-4.4-25.6c-1.6-9.6-3.3-19.2-4.9-28.8C207.1,70,207.3,68.7,209.5,68.6z"/>
	<path class="st432" d="M46.1,90.6c0.2,0.2,0.5,0.4,0.4,0.5c-1.8,3.4,0.3,6.5,0.7,9.7c0.5,3.3,1,6.6,1.5,9.8
		c0.5,3.2,1.6,6.1,2.6,9.1c0.5,1.5,1.1,3,0.2,4.7c-0.3,0.5-0.2,1.2-0.1,1.8c1.2,6.4,2.1,12.8,3.3,19.2c1.3,7.2,2.5,14.5,3.9,21.7
		c1.4,7.2,2.2,14.5,3.5,21.7c0.6,3.3,1.3,6.5,1.8,9.8c1.2,7.1,2.5,14.2,3.7,21.2c1.4,8.5,2.7,16.9,4.3,25.4c0.8,4.5,1.5,9,2.5,13.5
		c0.7,3.2,0.9,6.6,1.6,9.8c0.9,4.1,1.5,8.2,2.1,12.3c1,7.4,2.7,14.7,3.7,22.2c0.8,5.5,2,10.9,2.9,16.4c1.1,7.2,2.7,14.3,3.6,21.5
		c0.7,5.4,2.1,10.8,2.9,16.2c1.1,7.4,2.8,14.7,3.7,22.2c0.4,3.6,1.4,7.3,2,10.9c1.3,7.7,2.6,15.4,3.9,23.1c0.2,1.2,0.5,2.4,0.8,3.6
		c0.2,1,0.3,1.8-1.4,2.7c1.7,0,2.9,0,4,0c-1.1,1.7-2.7,1-4.2,0.7c-0.9-0.6-0.7-1.7-1.2-2.5c-2.2-6.3-3.6-12.7-5.3-19.2
		c-7.1-26.8-14.1-53.5-21-80.3c-4.7-18.5-9.5-37-14.3-55.5c-0.3-1-0.4-2-0.4-3c0.3-1.4-0.1-2.7-0.4-3.9c-2-8.3-3-16.7-4.5-25
		c-2.5-13.7-4.8-27.5-7.1-41.2c-1.7-10.2-3.5-20.4-5.3-30.6c-2.4-13.7-4.6-27.3-7.1-41c-1.3-7.4-2.5-14.9-3.8-22.4
		c-0.3-1.6,0-2.8,1.8-3.2C36.4,91.6,41.2,91,46.1,90.6z"/>
	<path class="st433" d="M144.4,77.5c0,0.3,0.8,0.7,0.4,0.8c-2.1,0.3-1.5,1.7-1.3,3c1.5,8.5,3.1,17,4.6,25.6
		c1.7,9.8,3.2,19.7,4.8,29.5c0.9,5.6,2.1,11.3,3,16.9c1.1,7.2,2.7,14.3,3.6,21.5c0.8,6,2.3,12,3.3,18c1.4,8.2,2.7,16.5,4.1,24.7
		c0.8,4.5,1.7,9,2.5,13.4c0.6,3.5,1.3,7,1.6,10.5c0.2,2,0.8,3.8,1.1,5.7c1,5.5,1.6,11.2,2.9,16.7c1.2,5.3,1.7,10.8,2.6,16.2
		c0.7,4,1.5,7.9,2.1,11.9c1.1,7.1,2.7,14.1,3.5,21.3c0.5,3.8,1.4,7.6,2.1,11.4c1,6,1.9,12.1,3.1,18.1c1,4.8,1.4,9.6,2.5,14.4
		c1.6,7.3,2.4,14.8,3.9,22.1c1.5,7,2.2,14.2,3.5,21.3c0.3,1.7-0.3,2-1.6,2.3c-2.8,0.7-5.7,0.9-8.4,1.9c-1-1.6-1.1-3.6-1.4-5.4
		c-2.3-13.4-4.6-26.7-6.9-40.1c-2.1-11.9-4.2-23.8-6.2-35.7c-2.3-13.7-4.5-27.4-7-41c-2.5-13.4-4.6-26.9-7-40.3
		c-2.4-13.5-4.6-27-7-40.5c-2.4-13.6-4.8-27.2-7.1-40.7c-2-11.7-4-23.4-6-35c-1.9-10.8-3.7-21.7-5.6-32.5c-0.7-4-1.4-8-2-12
		c-0.2-1.2-0.1-2.2,1.3-2.5C137.2,78.4,140.8,77.9,144.4,77.5z"/>
	<path class="st434" d="M275.6,386.9c-0.5,0-0.9-0.1-2.1-0.2c1.3-0.3,2-0.5,2.6-0.6c3.1-0.8,3.2-0.9,2.6-4
		c-1.8-10.2-3.7-20.4-5.5-30.6c-1.4-8.1-2.8-16.1-4.2-24.2c-1.6-9.8-3.3-19.7-5.1-29.5c-1.6-9.2-3.2-18.4-4.7-27.7
		c-1.6-9.8-3.5-19.6-5.1-29.5c-1.9-11.1-3.8-22.3-5.7-33.4c-1.1-6.2-2.2-12.3-3.2-18.5c-1.5-9.3-3.2-18.6-4.8-27.9
		c-1.4-8-2.8-16-4.2-24c-1.7-9.9-3.4-19.8-5.1-29.7c-1.6-9.1-3.2-18.3-4.7-27.4c-0.6-3.7-1.3-7.3-2-10.9c-0.2-1.3,0.2-2.1,1.4-2.5
		c2.6-0.5,5.3-0.9,8-1.1c1.6,2.6,1.4,5.7,2,8.6c1.6,7.6,2.6,15.3,4.1,23c1.4,7.3,2.5,14.7,3.7,22.1c1.4,8.1,2.8,16.3,4.2,24.4
		c1.7,9.8,3.5,19.6,5.1,29.5c1.6,9.8,3.3,19.5,5,29.3c2,11,3.9,22.1,5.7,33.2c1.4,8.1,2.8,16.1,4.1,24.2c1.5,9.2,3.1,18.4,4.8,27.6
		c1.3,7.1,2.5,14.3,3.6,21.4c1.4,8.5,3,16.9,4.4,25.3c1.4,8.7,3.1,17.3,4.4,26c1,6.7,2.5,13.3,3.4,20c0.2,1.6,1.2,2.5,2.7,2.9
		c0.2,0.1,0.4,0.3,0.4,0.6c-0.8,1.2-2.2,1.2-3.3,1.6c-1.3,0.2-2.6,0.5-3.9,0.9c-1.7,0.3-3.4,0.6-5.1,0.9
		C278,386.9,276.8,387.8,275.6,386.9z"/>
	<path class="st435" d="M324.6,72.7c1.7,5.4,3.4,10.8,5,16.2c3.4,10.8,6.8,21.6,10.2,32.4c3.4,10.7,6.9,21.4,10.2,32.2
		c2.6,8.2,5.1,16.5,7.7,24.7c3.2,10.1,6.5,20.1,9.7,30.2c6.7,21.2,13.5,42.5,20.2,63.7c2.9,9.3,5.8,18.6,8.9,27.9
		c0.5,1.6-0.6,2.9-0.2,4.3c0.8,2.4-0.5,4.5-0.9,6.7c-0.7,2.5-1.1,5-1.7,7.5c-0.2,0.7-0.1,1.6-1,1.9c-1.5-0.2-1.5-1.5-1.8-2.4
		c-3.4-10.7-6.7-21.4-10.2-32.1c-3.7-11.4-7.2-22.9-10.8-34.3c-4.9-15.5-9.8-31.1-14.8-46.6c-5.9-18.6-11.7-37.3-17.7-55.9
		c-3-9.3-5.9-18.6-8.7-27.9c-0.2-0.7-0.4-1.3-0.7-2c-0.1-1.3-0.3-2.6-2.1-2.6c-0.5,0-1.1-0.2-0.8-1c0.8-0.6,1.6-0.4,2.5-0.2
		c-1-0.9-1.3-2.1-1.7-3.3c-3.8-11.9-7.7-23.8-11.3-35.8c-0.5-1.7-1.7-2.8-2.6-4.2C316.2,72.3,320.4,72.2,324.6,72.7z"/>
	<path class="st436" d="M209.5,68.6c-1.5,0.5-1.7,1.4-1.4,3c1.4,7.5,2.5,15.1,3.8,22.6c0.9,5.3,1.9,10.6,2.8,16
		c0.7,3.8,1.4,7.6,1.9,11.4c0.5,4.2,1.6,8.3,2.3,12.5c0.7,3.6,1.4,7.3,1.7,11c0.2,2,0.9,3.8,1.1,5.7c0.7,5.5,1.8,11,2.8,16.5
		c0.9,5.6,1.7,11.2,2.8,16.7c1.1,5.4,1.9,10.8,2.8,16.2c1.3,7.2,2.4,14.5,3.7,21.7c1.3,7.4,2.7,14.8,3.9,22.2
		c1.2,7.2,2.4,14.3,3.6,21.5c0.9,5,1.8,10,2.7,15.1c0.7,3.8,1.3,7.6,2,11.4c0.8,4.6,1.6,9.3,2.4,13.9c0.9,5.5,1.8,11,2.7,16.5
		c0.9,5.5,2,11,2.9,16.4c1.2,7.2,2.4,14.3,3.6,21.5c0.7,3.9,1.4,7.7,2.1,11.6c0.9,5.2,1.8,10.5,2.8,15.7c0.2,1.1-0.4,1.3-1.2,1.6
		c-1.4,0.6-3,0.1-4.2,1.1c0.2,0.4,0.7,0.2,1,0.3c-1.2,1.7-2.9,1.5-4.6,1c-0.4-0.1-0.7-0.1-1.4-0.2c3.2-1.1,3.2-1.1,2.6-4.5
		c-1.8-10.2-3.7-20.4-5.5-30.6c-1.7-9.8-3.4-19.7-5-29.5c-1.6-9.8-3.3-19.7-5-29.5c-1.3-7.4-2.4-14.8-3.9-22.2
		c-1.7-8.7-2.9-17.5-4.4-26.3c-1.2-7.2-2.6-14.3-3.9-21.5c-1.3-7.3-2.4-14.6-3.6-22c-0.9-5.4-1.9-10.8-2.9-16.2
		c-1.2-7.2-2.4-14.5-3.7-21.7c-0.9-5.4-1.9-10.8-2.9-16.2c-1.2-7.2-2.4-14.5-3.7-21.7c-0.9-5.5-1.9-11-2.8-16.5
		c-1.2-7.3-2.5-14.6-3.7-21.9c-0.9-5.4-1.8-10.8-2.9-16.2c-0.3-1.2-0.1-2.5-0.5-3.7c-0.4-1.1,0.9-0.8,1.2-1.4
		c0.2-0.4,0.7-0.2,0.9-0.4C204.8,69.2,207.1,68.9,209.5,68.6z"/>
	<path class="st437" d="M195.4,70.5c-2,1.7-4.4,2.4-7,2.7c-1.7,0.2-2.4,0.7-2.1,2.7c1.3,7.2,2.3,14.5,3.5,21.7
		c1.2,7.2,2.7,14.4,4,21.6c0.9,5.3,1.5,10.7,2.6,16c1.2,5.5,1.8,11.1,2.9,16.7c1.1,5.1,1.7,10.4,2.6,15.5c0.8,4.6,1.7,9.1,2.5,13.7
		c0.9,5.1,1.5,10.2,2.6,15.3c0.9,4.2,1.3,8.5,2.2,12.8c1.1,4.9,1.7,9.9,2.5,14.8c0.7,4.1,1.4,8.2,2.1,12.3c1.5,8.9,3,17.8,4.5,26.8
		c1,5.6,2.1,11.2,3,16.9c1.1,7.2,2.7,14.3,3.6,21.5c0.7,5.4,2,10.8,2.9,16.2c1.1,7.4,2.7,14.7,3.8,22.2c0.6,4.2,1.7,8.5,2.3,12.8
		c0.9,5.4,1.9,10.8,2.7,16.2c0.5,3.7,1.6,7.4,2.1,11.2c0.5,3.8,1.1,7.5,2,11.2c0.3,1.3-0.2,2.4-1.8,2.7c0.5,0.5,1.1,0.2,1.6,0.3
		c0,0.1,0,0.2-0.1,0.2c-3.5,1.8-7.3,2.4-11.2,2.1c-0.5,0-0.9-0.1-2.1-0.2c1.4-0.4,2.2-0.6,3-0.8c3.8-0.9,3.8-0.9,3.1-4.7
		c-1.8-10.2-3.8-20.4-5.4-30.6c-1.8-11-3.7-22-5.6-32.9c-1.3-7.1-2-14.4-3.5-21.5c-1.9-8.9-3-18-4.9-26.9c-2-9.8-3-19.7-4.9-29.5
		c-1.4-7.4-2.5-14.9-3.9-22.4c-1.9-9.8-3.2-19.7-4.9-29.5c-0.7-4.2-1.6-8.4-2.4-12.5c-1.3-7.3-2.5-14.6-3.7-21.9
		c-1-5.6-2-11.1-2.9-16.7c-0.6-3.7-1.4-7.4-1.8-11.2c-0.6-4.4-1.7-8.8-2.4-13.2c-1.2-8.3-3.1-16.6-4.2-24.9c-0.6-4.4-1.6-8.7-2.4-13
		c-0.6-3.7-1.2-7.3-1.7-11c-0.2-0.1-0.2-0.2-0.2-0.3c0.1-0.1,0.1-0.1,0.2-0.1C184.2,72,189.8,71.3,195.4,70.5z"/>
	<path class="st438" d="M229.2,396.7c3.8-0.6,7.5-1.3,11.2-2.4c4.4-0.7,8.8-1.6,13.2-2.8c1.6-0.1,3.1-0.4,4.6-1
		c5.8-1.1,11.6-2.2,17.4-3.7c1.2-0.2,2.4-0.3,3.6-0.5c0.1,0.3,0.1,0.5-0.1,0.7c-0.6,0.6-1.3,0.7-2.1,0.9
		c-25.3,6.7-50.6,13.8-76.3,18.9c-19.1,3.8-38.4,6.8-57.6,9.9c-15.4,2.5-30.7,5.4-46,8.6c-2.6,0.5-2.9,0.4-3.6-2.2
		c-1.4-5.6-2.7-11.2-4-16.8c-3-13.2-7.1-26.2-11-39.2c-4.9-16.4-9.3-32.9-13.6-49.4c-3.5-13.4-6.9-26.8-10.5-40.2
		c1,4.1,2.4,8.1,2.9,12.3c-0.1,0.5-0.3,1-0.9,1.1c-1.1-0.7-1.2-1.9-1.5-3c-7.6-28-15.3-55.9-23.1-83.8
		c-5.3-19.1-10.1-38.4-15.1-57.7c-1.9-7.5-4.1-15-6.4-22.5c0.1-2.2,1.5-3.8,2.6-5.4c0.3-0.4,0.6-0.7,1.1-0.3
		c1.1,1.9,1.3,4.2,1.7,6.3c5.4,25.4,11.9,50.5,19.3,75.4c5.6,18.9,11,37.8,15.8,57c0.6,2.8,1.2,5.6,1.7,8.4c-0.7-3.2-1.2-6.5-2-9.7
		C45.1,231.2,38,207.3,31,183.4c-6.2-21.2-11.3-42.8-15.9-64.4c-0.2-1.1-0.3-2.1-0.4-3.2c0.6-2.4,2.5-4.4,2.4-7.1
		c1.2,0.2,1.2,1.3,1.4,2.2c2.7,10.9,5.5,21.9,8.3,32.8c2.8,10.9,5.5,21.7,8.2,32.6c1.2,4.6,2.4,9.2,3.5,13.8c0.2,1,0.4,2,0.7,2.9
		c5.1,20.6,10.4,41.1,15.6,61.7c6.9,27.4,13.9,54.9,20.8,82.3c6.7,26.4,13.4,52.7,20,79.2c0.5,2.1,1.4,3.4,3.6,3.4
		c0.2,0.1,0.5,0.2,0.7,0.4c1.5,0,2.9,0.3,4.3-0.4c5.1-0.1,10-0.9,15-1.9c3-1.6,6.4-1.2,9.5-2c0.7-0.2,1.4-0.1,2.1-0.4
		c6.1-1.2,12.2-1.9,18.2-3.3c5-0.8,10-1.9,15-2.8c4.8-0.8,9.6-1.8,14.4-2.8c1.6-0.5,3.3-0.2,4.9-0.5c8.4-1.6,16.7-3.2,25.1-4.9
		c2.4-0.5,4.8-1.1,7.2-1.6C220.3,398.8,224.8,397.9,229.2,396.7z"/>
	<path class="st439" d="M291.4,383.1c-2.5,0.5-3.4-0.9-3.7-3c-1.6-10.9-3.7-21.8-5.6-32.7c-1.7-9.8-3.4-19.7-5.1-29.5
		c-1.6-9.2-3.1-18.4-4.7-27.7c-1.7-9.8-3.5-19.6-5-29.5c-1.3-8.2-2.8-16.5-4.1-24.7c-1.1-7.2-2.5-14.5-3.8-21.7
		c-1-5.3-2.1-10.6-2.7-16c-0.4-3.9-1.4-7.7-2.1-11.6c-1-5.9-2-11.9-3-17.8c-0.9-5.3-1.9-10.6-2.8-16c-1.3-7.3-2.3-14.7-3.8-21.9
		c-1.1-5.5-1.7-11.1-2.9-16.7c-1.2-5.4-1.7-10.8-2.6-16.2c-0.6-3.8-1.6-7.6-2.1-11.4c-0.9-7.2-2.9-14.3-3.5-21.5
		c2-0.6,4-0.8,6.1-0.9c0.4,0.2,0.7,0.4,0.9,0.8c1,4.3,1.7,8.7,2.5,13.1c2,11.7,4.1,23.3,5.9,35c1.4,9.1,3.1,18.1,4.7,27.2
		c1.8,10.6,3.8,21.2,5.6,31.8c1.6,9.8,3.4,19.7,5,29.5c2,12.1,4.1,24.3,6.3,36.4c1.8,10.4,3.6,20.7,5.4,31.1
		c1.9,10.4,3.6,20.9,5.4,31.3c1.9,11.9,4.2,23.8,6.1,35.7c1.3,7.8,2.8,15.5,4.1,23.3c1.1,6.5,2.3,13,3.4,19.6
		C295.5,382.3,294.9,383,291.4,383.1z"/>
	<path class="st426" d="M453.4,76.5c10.2,0.2,20.4,0.4,30.6,0.5c0.6,0,1.3-0.2,1.3,0.8c0.5,1.3,0.1,2.6-0.2,3.9
		c-3.7,18.3-7.6,36.5-11.4,54.8c-0.4,1.8-0.5,3.5,0,5.3c-0.2,0.4-0.5,0.5-0.9,0.5c-0.4,0-0.8-0.2-1-0.5c-1.2-1.7-2.8-1.7-4.5-1.1
		c-8.1,0.5-16.1,0.8-24.2,0.6c-1.1,0-2.2-0.1-3.1-0.8c-0.8-0.8-0.4-1.8-0.2-2.6c4.1-19.2,8.2-38.5,12.2-57.7
		C452.2,78.9,452.3,77.5,453.4,76.5z"/>
	<path class="st440" d="M112.5,81.7c3.4-0.5,6.9-0.9,10.3-1.4c0.1,6,1.5,11.8,2.5,17.7c1.7,10.4,3.6,20.9,5.3,31.3
		c1.6,9.6,3.3,19.2,5,28.8c2.3,13.3,4.6,26.7,6.9,40.1c2.1,12.5,4.3,25,6.4,37.5c0.2,1.1,0.6,2.3-0.6,3.2c-1-0.4-1.1-1.3-1.3-2.1
		c-1.3-4.6-2.6-9.1-4-13.7c-0.1-0.3,0-0.6-0.5-0.6c-0.8-0.6-1-1.6-1.2-2.5c-8.8-30.3-17.6-60.6-26.4-90.9c-1.6-5.5-3.3-11-4.9-16.6
		c-0.3-1-0.6-1.9-0.5-3c0.1-0.5,0.1-1.2,0.8-1.3c0.8,0,0.8,0.8,1,1.4c2,5.8,3.5,11.8,5.3,17.7c2.1,7.2,4.3,14.5,6,21
		c-1.3-7.6-2.8-16.1-4.2-24.5c-1.3-7.3-2.5-14.6-3.8-21.8c-1.1-5.9-2.1-11.8-3-17.7C111.6,83.4,111.3,82.3,112.5,81.7z"/>
	<path class="st441" d="M31.5,92.5c-2.5,1.6-1,3.9-0.7,5.7c1.9,10.7,3.7,21.5,5.5,32.2c1.2,7.4,2.7,14.7,4,22.1
		c1.2,7.1,2.1,14.2,3.5,21.3c1.4,7.2,2.5,14.5,3.8,21.7c1.3,7.3,2.3,14.7,3.7,21.9c1.1,5.6,1.9,11.3,3.1,16.9c1.3,5.9,2,11.9,3,17.8
		c0.3,1.9,0.8,3.8,1.2,5.7c0.2,0.8,0.4,1.5-0.3,2.2c-1.1-0.7-1.1-1.8-1.4-2.8c-4.7-18.6-9.5-37.1-14.3-55.7
		c-8.5-33.5-17.2-66.9-25.7-100.3c-0.6-2.2-0.9-4.4-2.2-6.4c4.3-0.6,8.5-1.2,12.8-1.8C28.8,92.7,30.2,92.6,31.5,92.5z"/>
	<path class="st442" d="M142.9,222.7c0-0.3,0.1-0.6,0.2-1.6c1.8,6.2,3.5,11.7,5.2,17.7c0.7-2,0-3.7-0.3-5.1
		c-1.4-5.5-1.9-11.1-3-16.7c-1.7-8.7-2.9-17.5-4.4-26.3c-1.3-7.4-2.7-14.7-4-22.1c-0.9-5.3-1.7-10.7-2.6-16
		c-0.9-5.2-1.9-10.3-2.8-15.5c-1.1-6.4-2.2-12.8-3.3-19.2c-1.6-9.2-3.1-18.4-4.7-27.6c-0.4-2.1-0.7-4.1-1.2-6.1
		c-0.3-1.4-0.3-2.6,0.7-3.7c0.4,0,0.9-0.1,1.3-0.1c1.1-0.4,2.1,0.1,3.1,0.2c0.8,0.5,0.8,1.5,1,2.3c1.9,10.8,3.7,21.7,5.6,32.5
		c1.9,10.8,3.7,21.6,5.6,32.5c1.4,8,2.8,16,4.1,24c1.9,11.1,3.8,22.1,5.7,33.2c1.7,9.7,3.4,19.3,5,29c1.9,11.1,3.8,22.1,5.7,33.2
		c1,5.7,2,11.5,2.9,17.3c0.1,0.7,0.2,1.4,0,2.1c-1.5,1.1-1.5-0.5-1.8-1.1c-1.1-2.9-1.8-6-2.4-9c-0.2-1-0.4-0.1-0.6-0.2
		c-1.1-0.7-1.1-1.9-1.4-2.9c-4.6-15.9-9.3-31.8-13.9-47.8C142.6,224.4,142.2,223.5,142.9,222.7z"/>
	<path class="st436" d="M216.5,67.6c0.8,3.2,0.9,6.5,1.4,9.7c0.4,2.5,1.7,4.8,1.2,7.6c-0.2,1.3,0.9,2.9,1.1,4.4
		c0.7,4.3,1.6,8.6,2.2,12.9c0.5,3.6,1.5,7.1,1.6,10.8c0.1,2.2,0.6,4.9,1.4,7.3c1.1,3.2,1.4,6.6,1.9,10c0.6,4,0.8,8.1,1.8,11.9
		c0.9,3.8,1.5,7.6,2.1,11.4c1,6.5,2.6,13,3.5,19.5c0.5,3.4,1.5,6.8,1.7,10.2c0.3,3.7,1.6,7.2,1.6,11c0,1.9,0.7,4.2,1.2,6.3
		c0.9,4,2.1,8,2,12.2c-0.1,2,0.6,4,1.1,5.7c1.1,3.9,1.4,8,2.2,11.9c0.6,3.4,1.6,6.8,1.8,10.1c0.3,3.6,1.3,7,1.6,10.5
		c0.3,2.5,0.8,5.2,1.3,7.8c0.7,3.7,1.4,7.4,1.9,11.2c0.3,2.4,0.8,5.1,1.3,7.6c0.8,3.7,1.8,7.4,1.9,11.2c0,0.4-0.1,0.8,0,1.1
		c1.8,5.4,2.2,11,3.3,16.5c0.7,3.4,1.4,6.8,1.8,10.2c0.4,3.6,1.5,7.1,1.6,10.8c0.1,2.1,0.8,4.6,1.3,6.9c0.7,3.9,1.8,7.8,1.9,11.9
		c0,0.4,0,0.8,0.1,1.1c1,3.2,1.5,6.4,1.7,9.8c0.1,1.5,0.9,3.1,1.2,4.6c0.6,3.2,0.8,6.4,1.4,9.5c0.8,4.2,1.3,8.6,2.6,12.8
		c0.2,0.6,0.2,1.2,0.3,1.8c0.2,1.3-0.7,1.4-1.7,1.7c-1.2,0.4-1.4-0.5-1.5-1.2c-0.7-3.4-1.5-6.8-1.9-10.3c-0.5-4.2-1.5-8.3-2.2-12.5
		c-1.2-7.9-2.6-15.9-4-23.8c-0.8-4.9-1.8-9.9-2.6-14.8c-1-5.9-2-11.9-3-17.8c-0.6-3.7-1.4-7.5-2-11.2c-1.2-7.2-2.4-14.3-3.6-21.5
		c-0.7-3.9-1.6-7.7-2.1-11.6c-0.9-7.1-2.7-14.1-3.6-21.3c-0.5-4.1-1.4-8.1-2.1-12.1c-1-5.9-1.9-11.9-3-17.8c-0.7-3.6-1.5-7.1-2-10.7
		c-1-7.4-2.6-14.7-3.7-22.2c-0.8-5.5-2-10.9-2.9-16.4c-1.1-7.2-2.7-14.3-3.6-21.5c-0.7-5.4-2.1-10.8-2.9-16.2
		c-1.1-7.4-2.8-14.7-3.7-22.2c-0.5-3.7-1.4-7.4-2.1-11.2c-1.1-5.9-2-11.7-2.9-17.6c-0.4-2.5-1.1-4.5-3.9-5
		C212.3,67.9,214.4,67.8,216.5,67.6z"/>
	<path class="st443" d="M465.4,233.7c-2.1,10.3-4.3,20.6-6.4,30.8c-3.3,16.1-6.7,32.1-10,48.2c0,0.2-0.2,0.4-0.3,0.6
		c-2.3-1.5-2.8-4.1-4.2-6.2c-1.7-2.6-2.9-5.5-5.5-7.3c-0.3-0.4-0.5-0.9-0.5-1.4c2.4-11.8,4.9-23.6,7.4-35.5
		c2.6-12.6,5.2-25.2,7.9-37.7c0.3-1.3,0.3-2.7,1.3-3.7c1.3-0.5,1.8,0.6,2.4,1.3c2.6,3,5.1,6,7.2,9.4
		C465,232.7,465.2,233.2,465.4,233.7z"/>
	<path class="st444" d="M14.6,94.7c1.6-0.1,1.5,1.3,1.8,2.2c3.2,12.2,6.3,24.5,9.4,36.8c6.2,24.1,12.4,48.1,18.6,72.1
		c4.6,18,9.2,36.1,13.8,54.1c3.1,12.1,6.2,24.2,9.3,36.3c4.3,16.7,8.6,33.3,12.9,50c4.6,17.7,9.2,35.4,13.8,53.1
		c1.6,6.1,3.4,12.2,5.1,18.4c0.3,0.8,0.4,1.5,0,2.3c-3.4,0.2-3.4,0.2-4.2-3C82.5,366.7,69.7,316.5,57,266.2c-6.1-24-12.1-48-18.2-72
		c-0.1-0.4-0.1-0.8-0.2-1.1c0.4-1.3-0.5-2.4-0.3-3.4c0.2,0.2,0,0.5-0.3,0.8c-2.6-10.2-5.3-20.3-7.9-30.5
		c-4.3-16.8-8.5-33.5-12.7-50.3c-0.1-0.3-0.3-0.5-0.4-0.8c-1-4.1-2-8.2-2.9-12.3C14,95.8,13.2,94.9,14.6,94.7z"/>
	<path class="st445" d="M162.6,286.7c-0.8-5-1.7-10.1-2.4-15.1c-1.1-7.5-2.8-14.9-3.8-22.4c-0.5-3.7-1.4-7.4-2-11.2
		c-1.3-7.8-2.6-15.5-4-23.3c-0.9-5.4-2-10.8-2.9-16.2c-0.9-5.4-1.8-10.8-2.7-16.2c-0.7-3.9-1.5-7.7-2.1-11.6
		c-1-7.2-2.7-14.3-3.6-21.5c-0.5-4.2-1.6-8.4-2.3-12.5c-1.3-7.3-2.5-14.6-3.7-21.9c-0.9-5.3-1.8-10.5-2.7-15.8
		c-1-5.6-1.9-11.3-2.9-16.9c-0.1-0.5,0-0.9-0.5-1.2c-0.2-0.3-0.7-0.4-0.5-0.9c0.3,0,0.6,0,0.9-0.1c2.8-0.2,2.9-0.2,3.5,2.7
		c1.8,8.8,3.1,17.7,4.6,26.5c2.5,14,4.9,28.1,7.3,42.2c2.4,14.6,4.9,29.2,7.5,43.8c2.2,12.6,4.3,25.2,6.6,37.8
		c1.7,9.6,3.2,19.2,4.9,28.8c3.8,22,7.6,44.1,11.4,66.1c4.3,24.8,8.6,49.6,12.8,74.5c0.1,0.8,0.4,1.7,0,2.5
		c-0.8,0.8-1.9,0.3-2.8,0.5c-1.8-1.8-1.5-4.2-1.8-6.3c-2.4-13.6-4.6-27.2-7-40.7c-3-17-5.8-34.1-8.8-51.1c-0.2-1.4-0.7-2.5-1.6-3.5
		c1-1.2,0.9-2.5,0.5-4c-1-3.6-2.5-7-2.9-10.7C161.7,287.8,162,287.1,162.6,286.7z"/>
	<path class="st446" d="M186.1,404.6c-1.4-4.8-1.8-9.7-2.8-14.6c-1.3-6.8-2.5-13.5-3.5-20.4c-1.1-7.4-2.8-14.7-3.7-22.2
		c-0.7-5.4-2.1-10.6-2.8-16c-1-7.4-2.7-14.6-3.7-22c-0.7-5.4-2-10.6-2.8-16c-1.2-7.3-2.7-14.6-3.7-22c-0.7-5.4-2.1-10.8-2.9-16.2
		c-1.1-7.4-2.6-14.6-3.7-22c-0.8-5.4-1.9-10.8-2.8-16.2c-1.5-9-3-18-4.6-27c-0.9-5.3-2.1-10.6-2.9-16c-1.1-7.5-2.7-14.9-3.8-22.4
		c-0.8-5.4-1.9-10.8-2.9-16.2c-1.5-8.8-3-17.7-4.5-26.5c-1-5.7-2-11.4-3-17.1c-0.5-2.9-1-5.8-1.5-8.7c-0.3-1.8-0.5-3.6-2.9-3.5
		c2-0.6,4-0.8,6.1-0.9c-1.9,1.6-0.5,3.6-0.2,5.2c1,6.3,2.1,12.5,3.1,18.8c1.2,7.3,2.9,14.6,4,21.9c1.3,8.6,2.9,17.2,4.4,25.8
		c1.5,8.8,3,17.5,4.5,26.3c2.2,12.6,4.4,25.3,6.6,37.9c1.4,8.1,2.7,16.2,4.2,24.2c1.7,9.3,3.3,18.5,4.7,27.9c1,7,2.5,13.8,3.7,20.8
		c1.7,9.8,3.2,19.7,4.8,29.5c1.3,7.4,2.7,14.8,4,22.1c1.2,7.1,2.3,14.2,3.5,21.3c0.9,5.1,1.9,10.2,2.7,15.3c1,5.8,1.9,11.6,2.9,17.4
		c0.4,2.2,0.8,4.4,1.3,6.6c0.3,1.6,0.7,3.2,0.6,4.8C187.6,404.6,186.8,404.6,186.1,404.6z"/>
	<path class="st443" d="M447.8,318.1c-2.1,10.3-4.2,20.6-6.4,30.9c-2.6,12.3-5.1,24.7-7.7,37c-0.2,1.1-0.4,2.3-1.3,3.1
		c-0.8-0.1-0.5-1.4-1.5-1.3c-0.5-0.3-0.7-1.1-1.4-1.2c-1.6-0.4-3.4,0.6-4.8-0.9c0.7-1.4,2-0.9,3.1-0.8c1.5,0.1,1.5-0.7,1.3-1.7
		c0.3-1.2,0-2.3-0.4-3.4c-1.5-4.4-2.6-8.9-4.3-13.1c-0.2,0.5,0,1.4-0.9,2c-1.3-1.2-0.8-2.6-0.7-4c2.8-2.5,3.1-6.1,3.8-9.5
		c3.5-16.9,7.1-33.8,10.5-50.7c0.2-1,0.3-2,1.1-2.7c0.7-0.3,1.2,0.2,1.5,0.7c3,4.5,6,9,7.8,14.1C447.9,317,447.4,317.5,447.8,318.1z
		"/>
	<path class="st443" d="M481,158.9c-2.3,11.4-4.7,22.8-7,34.2c-2.4,11.7-4.9,23.4-7.4,35.1c-1-0.4-1.5-1.2-1.9-2.1
		c-1.2-2.2-2.8-3.9-4.6-5.6c-1.3-1.7-3.2-2.9-4.1-5c1-6.9,2.7-13.6,4.1-20.4c3.3-15.5,6.4-30.9,9.7-46.4c0.3-1.2,0.3-2.5,1.3-3.4
		c1.4-0.4,1.8,0.9,2.7,1.5c1.9,1.9,3.5,4,4.8,6.4C479.4,155.1,480.6,156.8,481,158.9z"/>
	<path class="st426" d="M240.4,64.8c-0.2-0.2-0.3-0.3-0.5-0.5c2.3-0.6,4.6-0.9,7-1c0.6-0.2,1,0.1,1.1,0.7c-0.7,0.9-1.1,1.9-0.8,3.2
		c6.7,23.6,13.3,47.3,19.9,70.9c9.2,32.8,18.4,65.6,27.5,98.4c7.8,27.9,15.5,55.7,23.3,83.6c4.6,16.6,9.3,33.2,13.9,49.8
		c0.4,1.5,1.4,2.8,1.8,4.3c-1.3,1.5-3,1.3-4.7,1.4c-0.9-0.3-1.5-0.6-0.5-1.5c0.9-0.8,0.7-1.6,0.5-2.6c-4.1-14.8-8.1-29.6-12.2-44.4
		c-2.9-10.4-5.5-20.8-8.5-31.1c-3.9-13.5-7.4-27.1-11.4-40.7c-3.5-11.9-7.3-23.8-10.5-35.8c-0.1-0.5-0.4-1-0.6-1.5
		c-1.9-5.6-3.5-11.3-5.1-16.9c-2.9-9.8-5.7-19.5-8.7-29.3c-1.1-3.6-2.1-7.3-3.1-11c-4.5-16.2-9.5-32.3-14.2-48.4
		c-3.8-12.9-7.6-25.8-11.4-38.8c-0.2-0.7-0.5-1.4-0.4-2C242.8,69.1,242,66.8,240.4,64.8z"/>
	<path class="st447" d="M268.4,60.2c1.2-0.2,2.5-0.4,3.7-0.5c0.7-0.5,1.7,0.1,2.4-0.4c0.3,0,0.6-0.1,0.8-0.1
		c1.6,0.1,1.6,1.5,1.9,2.5c2.8,10.6,6.1,21.1,9.2,31.7c2.6,8.9,5,17.9,7.8,26.7c0.8,1,1.2,2.1,1.1,3.4c-0.3,0.7-0.8,0.8-1.5,0.5
		c-0.5-1.9-1.7-2.1-3.5-1.6c-3.2,1-6.3,2.1-9.4,3.1c-0.8,0.3-1.7,0.9-2.5-0.2c-1.5-7.5-2.7-15-4.1-22.5c-1.9-11-3.6-22-5.7-32.9
		c-0.5-2.5-0.7-5.1-1-7.6C267.4,61.5,267.5,60.6,268.4,60.2z"/>
	<path class="st443" d="M473.5,142.1c-1.2-1.1-1.2-2.5-0.9-4c3.7-17.4,7.3-34.8,11-52.3c0.6-2.6,1.1-5.3,1.6-7.9
		c1.1-0.3,1.5,0.5,1.8,1.4c2.1,6.3,4.2,12.6,6.3,18.8c0.7,2-0.3,3.8-0.7,5.7c-3.2,15.8-6.5,31.5-9.9,47.3c0,0.1-0.2,0.3-0.2,0.4
		c-2.6-2.4-5-5-7.8-7.3C474,143.7,473.3,143.1,473.5,142.1z"/>
	<path class="st448" d="M112.5,81.7c-1.1,1.6-0.1,3.2,0.1,4.7c1.1,7.4,2.7,14.7,3.9,22.1c1.7,9.9,3.2,19.8,4.9,29.7
		c0.6,3.7,1.3,7.5,2.1,11.2c0.1,0.8,0.4,1.4-0.3,2.8c-4.3-14.8-8.5-29.1-12.8-44c-0.1,0.9-0.2,1.2-0.2,1.6c-1.4-0.6-2.8-0.5-4.3-0.2
		c-3.5,0.7-6.9,1.4-10.5,1.7c-0.9,0-1.7,0-2.5,0.3c-0.4,0.1-0.8,0.1-1.1,0.2c-0.8,0-1.6,0-2.2-0.8c0.6-1.1,1.8-1.2,2.8-1.2
		c2.1-0.2,2.4-1.1,2-3c-1.2-6.3-2-12.6-3.2-18.9c-0.2-1.1-0.6-2.3,0.3-3.3C98.5,83.6,105.5,82.6,112.5,81.7z"/>
	<path class="st449" d="M312,72.3c1.9,0.5,2.5,1.7,3,3.5c2.6,8.6,5.5,17.1,8.2,25.7c1.1,3.5,2.2,7.1,3.3,10.6
		c0.4,1.3,0.7,2.6,2.1,3.7c-1.3,0-2.4,0-3.5,0c-0.6,0.6-1.4,0.7-2.1,0.7c-3.4-0.1-6.8-0.3-10.1-0.8c-0.3-0.1-0.4-0.3-0.4-0.6
		c1.1-0.8,2.3-0.3,3.3-0.4c-1-0.5-2.6,0.5-3.4-1c-0.7-1.2-0.9-2.5-1.3-3.7c-3-9.4-5.9-18.9-9.1-28.2c-0.6-1.8-1.2-3.6-1.6-5.4
		c-0.4-2.1-1.5-2.6-3.4-2.6c-1.1,0-2.5,0.6-3.1-1c0.2-0.2,0.5-0.4,0.8-0.4c4.8,0,9.5-0.7,14.3-0.1C309.9,72.3,310.9,72.3,312,72.3z"
		/>
	<path class="st450" d="M268.4,60.2c-1,1.7-0.1,3.5,0.1,5.2c0.7,5.2,1.8,10.3,2.7,15.5c1,5.6,1.8,11.3,2.8,16.9
		c0.9,5.5,2,10.9,2.9,16.4c0.6,3.8,1.5,7.6,1.7,11.4c-2.4,2-5.4,2.7-8.2,4c-0.3,0.2-0.7,0-0.9-0.5c-1.3-8-2.6-16-4.1-24
		c-1.4-7.9-2.6-15.8-4-23.7c-1-5.4-1.7-10.9-2.8-16.3c-0.3-1.2-0.6-2.5,0.4-3.6C262.2,60.9,265.3,60.5,268.4,60.2z"/>
	<path class="st451" d="M91.5,84.5c0,3.4,1.1,6.6,1.5,9.8c0.7,4.7,1.5,9.5,2.4,14.2c0.2,1.2-0.2,1.7-1.2,1.6
		c-1.4-0.1-2.7,0.5-4.2,0.6c0.7,0.6,1.4,0.2,2.1,0.4c-0.2,1-1.1,1.1-1.8,1.2c-4.6,0.8-9.2,1.8-13.9,2.2c-0.9,0-1.8-0.1-2.6,0.2
		c-0.2,0.1-0.5,0.1-0.8,0.1c-0.6,0-1.5,0-1.5-0.7c-0.1-0.7,0.8-0.9,1.3-1c1.4-0.4,2.9-0.8,4.4-0.8c1.9,0,2.2-0.9,2-2.6
		c-0.5-3.5-1.2-7.1-1.8-10.6c-0.6-3.3-1.2-6.6-1.7-9.9c-0.2-1.6,0.1-2.7,1.9-3C82.1,85.8,86.8,85.1,91.5,84.5z"/>
	<path class="st452" d="M259.1,61.6c-0.2,3.1,0.7,6,1.3,8.9c0.7,3.6,1,7.3,1.9,11c1,4.2,1.5,8.5,2.2,12.8c1.6,9.8,3.3,19.5,4.9,29.3
		c0.3,1.9,1.5,3.8,0.5,5.9c-0.3,0.8-0.8,1.4-1.7,0.9c-1.5-2.1-1.7-4.6-2.4-7c-5.2-18.5-10.5-37-15.6-55.5c-0.2-0.8-0.5-1.6-0.5-2.5
		c0-0.8,0.3-1.6,0.5-2.4C253.1,62.2,256.1,61.8,259.1,61.6z"/>
	<path class="st453" d="M293.7,120.5c-1.6-5.6-3.2-11.1-4.8-16.7c-2.5-8.5-5-16.9-7.5-25.4c-1.7-5.7-3.2-11.4-4.8-17.2
		c-0.2-0.8-0.4-1.7-1.2-2.2c0.7-0.5,1.6-0.4,2.4-0.4c1.5,0.3,3.1,0.6,4.6,1.1c2.4,6.1,3.9,12.5,5.8,18.8
		c3.8,12.5,7.2,25.2,10.9,37.7c1.1,3.7-0.3,5.2-4.1,4.5C294.5,120.8,294.1,120.8,293.7,120.5z"/>
	<path class="st454" d="M77.4,86.4c-2.8,2-0.9,4.5-0.6,6.6c0.8,6,2.3,11.9,3,18c0.2,1.5-0.4,2-1.7,2c-2.2-0.1-4.2,0.7-6.3,1.3
		c0.5,0.1,1,0.1,1.6,0.2c-1.5,1.6-3.3,1.7-5.2,0.9c-0.6,0-1.2,0-2.4,0c1-0.6,1.5-1.1,1.4-2c-0.8-4.8-1.8-9.5-2.5-14.3
		c-0.5-3.6-1.9-7.1-1.3-10.8C68.1,87.6,72.8,87,77.4,86.4z"/>
	<path class="st455" d="M50.3,257.2c-2.1-7.9-4.2-15.7-6.4-23.6c-4.3-15.1-8.5-30.2-12.9-45.3c-3.2-11-6.1-22-8.9-33
		c-3.1-12.3-5.8-24.8-8.4-37.2c-0.2-0.3-0.2-0.6,0.1-0.8c0.3-0.5,0.6-1,0.9-1.4c1.4,2.6,1.6,5.5,2.2,8.2
		c3.5,16.1,7.2,32.1,11.7,47.9c4.5,16.3,9.3,32.5,13.9,48.8c3.2,11.3,6.1,22.6,8.3,34.1c0.1,0.3,0,0.6,0,0.9
		C50.9,256.3,51.5,257,50.3,257.2z"/>
	<path class="st456" d="M293.7,120.5c0.1,0,0.2,0,0.2,0c5.4,0,5.5-0.2,4-5.2c-3.8-13.2-7.6-26.4-11.3-39.6
		c-1.5-5.4-3.1-10.7-4.6-16.1c-0.1-0.4,0.1-0.6,0.5-0.8c0.7-0.1,1.1,0.2,1.4,0.8c1.1,3.5,2.2,7,3.2,10.6c0.3,1,0.9,1.1,1.7,1.2
		c1.7,0.1,3.4-0.2,5.1,0.4c-1.1,1.1-2.6,0.5-3.9,0.7c-0.8,0.1-1.7,0-1.2,1.2c3.5,12.1,7.1,24.1,10.3,36.3c0.6,2.3,2,3.2,3.8,4.1
		c0,0.4-0.3,0.6-0.7,0.7c-1.2,0.1-1.6,0.6-1.1,1.8c5.7,19.7,11.2,39.4,16.8,59.1c0.3,0.9,0.5,1.8,0.5,2.7c-0.2,1,0.4,2.6-0.9,2.8
		c-1.3,0.1-1.3-1.5-1.6-2.5c-1.3-4.8-2.4-9.7-4-14.4c-3.3-9.9-5.5-20.1-8.9-30c-0.7-2.1-0.9-4.4-2.1-6.4c-0.1-1.5,0.1-3-1-4.3
		c-0.8-0.7-1.6-0.5-2.5-0.2c-0.7,0.2-1.4,0.6-2.1,0C294.3,122.5,294.9,121.1,293.7,120.5z"/>
	<path class="st457" d="M430.4,385.9c0.8,0.4,0.4,1.2,0.5,1.9c-1.5,0.8-3,0.1-4.5,0.1c-9.6-0.3-19.2-0.7-28.7-1.1
		c-9-0.3-18.1-0.7-27.1-1c-0.4,0-0.7-0.2-1.1-0.3c1.4-1.7,3.1-2.6,5.4-2.2c1.7,0.3,3.5-0.2,5.3,0.3c0.6,0.3,1.3,0.4,2,0.4
		c2-0.1,4.1-0.6,6,0.8c0.7,0.5,1.5-0.1,2.2-0.3c1-0.2,2-0.1,3-0.2c8.3,0,16.5,0.8,24.7,1C422.2,385.4,426.3,386.5,430.4,385.9z"/>
	<path class="st458" d="M453.4,76.5c-2.6,12.2-5.1,24.3-7.7,36.5c-1.9,9-3.8,18.1-5.7,27.1c-1.7,0.6-1.4-0.6-1.3-1.5
		c0.3-2.1,0.9-4.2,0.9-6.4c0.8-6.3,2.4-12.5,3.7-18.7c2.5-12,5.1-23.9,7.6-35.8c0.1-0.6,0.5-0.9,1-1.2
		C452.4,76.5,452.9,76.5,453.4,76.5z"/>
	<path class="st459" d="M26.5,195.7c0,0.4-0.1,0.7-0.2,1.6c-1.3-3.1-1.2-6.1-2.8-8.5c0,0,0,0,0,0c-0.3-1.3-0.4-2.6-1-3.8l0,0
		c-0.4-1.4-0.3-2.9-1.1-4.2c-2.7-11-5.5-21.9-8.2-32.9c-1.6-6.6-3.5-13.2-4.7-19.9c-0.4-0.7-0.2-1.5-0.3-2.3
		c-0.1-0.9,0.1-1.7,1.4-1.4c0.1,0.2,0.2,0.5,0.3,0.7c0.5,5,2.1,9.7,3.2,14.5c3.4,13.7,6.9,27.3,10.3,41c1,4.2,1.9,8.5,3,12.7
		C26.6,194.1,26.7,194.9,26.5,195.7z"/>
	<path class="st460" d="M447.3,316.6c-2.2-5.3-5.2-10.2-8.5-14.9c-0.2-0.2-0.3-0.4-0.3-0.6c0-0.6,0.2-1.1,0.8-1.4
		c1.8,0.6,2.8,2.2,3.7,3.7c1.9,3.3,3.8,6.6,5.7,9.9c-0.2,1.1-0.4,2.1-0.6,3.2C447.9,316.9,447.6,316.9,447.3,316.6z"/>
	<path class="st461" d="M9.6,124.8c-0.8-0.6-0.9,0.1-0.9,0.6c-0.1,0.9-0.1,1.8-0.1,2.7c-1.1-2.6-1.4-5.5-2.2-8.2
		c-0.4-1.2,0.3-1.5,1.3-1.6c2.1-0.3,4.1-0.7,6.2-1c0,0.3-0.1,0.5-0.1,0.8c-1,1.9-2.1,3.8-3.1,5.7C10.7,124.5,10.3,124.8,9.6,124.8z"
		/>
	<path class="st462" d="M473.5,142.1c2.5,2.4,5,4.8,7.5,7.2c0.7,0.6,1.4,1.2,1.6,2.2c-0.1,1.6-0.4,3.2-0.9,4.7
		c-1.5-3-3.8-5.4-5.6-8.3c-0.5-1.4-1.6-2.5-2.4-3.7c-0.4-0.7-1.3-1.2-1-2.2C472.9,142,473.2,142.1,473.5,142.1z"/>
	<path class="st463" d="M456.2,215.9c1.7,1.2,3,2.7,4.2,4.3c1.5,1.9,3.2,3.7,4.7,5.6c0.5,0.8,1,1.6,1.5,2.4
		c-0.7,0.6-0.3,1.6-0.6,2.3c-1.4,0.1-1.7-1.2-2.3-2c-2-2.9-3.5-6-6.3-8.2c-0.6-0.4-1-1-1.5-1.6c-0.3-0.3-0.6-0.5-0.8-0.9
		c-0.1-0.7,0.4-1.1,0.6-1.6C455.9,216.1,456,216,456.2,215.9z"/>
	<path class="st464" d="M476.3,147.6c1.3,1.7,2.6,3.4,3.9,5.2c0.7,1,1.4,2,1.3,3.4c0,0.1,0,0.3-0.1,0.4c-2-0.2-2-2.4-3.4-3.2
		c-1.5-2-3.1-4.1-4.6-6.1c-0.4-0.7-0.9-1.3-1.3-1.9c-0.3-0.4-0.5-0.9-0.1-1.2c0.5-0.5,1,0,1.4,0.3
		C474.5,145.3,475.2,146.7,476.3,147.6z"/>
	<path class="st465" d="M288.1,73.7c-0.9-1.2-0.6-1.8,0.9-1.9c1.6,0,3.2,0,4.8-0.1c5,0,10-0.1,15,0.5c-4.5,0.2-8.9,0.3-13.4,0.5
		c-0.6,0-1.3-0.1-1.7,0.5C291.9,74.4,290,73.9,288.1,73.7z"/>
	<path class="st466" d="M457.6,219.7c2.9,2,4.4,5.2,6.4,8.1c0.6,0.9,1,2.1,2.1,2.7c-0.2,1.1-0.4,2.1-0.6,3.2
		c-0.3-0.3-0.6-0.6-0.8-0.9c-1.2-2.8-3-5.2-4.7-7.8c-0.5-1.1-1.2-2.1-1.9-3.1C457.7,221.3,456.9,220.7,457.6,219.7z"/>
	<path class="st467" d="M380.3,384c-2.5-0.2-5.1,0.3-7.6-0.3c-0.5-0.1-1,0.1-1.1,0.5c-0.3,1.3-1.3,1.1-2.2,1.2
		c-0.7,0-1.5-0.1-2.2-0.1c-1-1.4-0.8-2.2,1-2.3c1.1-0.1,2.2,0,3.3-0.1c0.6-0.5,1.2-0.5,1.9-0.4c2.1,0.5,4.3,0.1,6.4,0.2
		c0.8,0,1.7,0,2.4,0.6C381.9,384.8,381.1,384.4,380.3,384z"/>
	<path class="st468" d="M444.9,76.6c-2.8,0-5.7,0-8.5-0.1c-0.7,0-1.6,0.2-2.2-0.4c5.3-0.1,10.6,0,15.9,0.4c0.5,1.2-0.2,2.1-0.7,3
		C447.1,80.3,445.8,79.4,444.9,76.6z"/>
	<path class="st469" d="M282.5,59.2c-0.2,0.2-0.3,0.3-0.5,0.5c-1.8,1.1-3-0.1-4.3-1c1.7-0.3,3.4-0.7,5.2-1
		C283.5,58.4,283.1,58.8,282.5,59.2z"/>
	<path class="st470" d="M478.1,153.3c1.6,0.6,2.1,2.3,3.4,3.2c0.1,0.8-0.3,1.6-0.5,2.3C479.8,157.1,478.9,155.2,478.1,153.3z"/>
	<path class="st471" d="M449.1,79.3c0.3-1,0.6-1.9,1-2.9c0.6,0,1.2,0,1.9,0c-0.1,0.3-0.3,0.6-0.4,0.9c-0.4,1-0.8,2-2.1,2
		C449.3,79.4,449.2,79.4,449.1,79.3z"/>
	<path class="st426" d="M250.1,62.9c0.9,0.7-0.1,1.3,0,2c-0.8,0-1.3-0.5-1.9-1c-0.2-0.9,0.7-0.6,1-0.9
		C249.5,62.9,249.8,62.9,250.1,62.9z"/>
	<path class="st426" d="M21.6,180.9c1,1.2,1.2,2.7,1.1,4.2C22,183.8,21.7,182.4,21.6,180.9z"/>
	<path class="st426" d="M22.6,185.1c1,1.1,1.1,2.4,1,3.8C23,187.7,22.7,186.4,22.6,185.1z"/>
	<path class="st427" d="M175.3,73.3c-0.5,1.9-1.7,0.2-2.5,0.4C173.6,73.1,174.4,73.3,175.3,73.3z"/>
	<path class="st440" d="M126.6,79.8c0.2,0.3,0.3,0.6,0.5,0.9c-1-0.2-1.9-0.3-2.9-0.5C124.9,79.7,125.8,79.8,126.6,79.8z"/>
	<path class="st427" d="M178.6,72.8c0,0.1,0,0.3,0,0.4c-0.8-0.1-1.6,1-2.4,0C176.9,72.7,177.8,72.8,178.6,72.8z"/>
	<path class="st453" d="M282.5,59.2c0.1-0.5,0.3-1,0.4-1.5c1.2,0.2,0.9,1.2,0.9,2C283.4,59.5,283,59.3,282.5,59.2z"/>
	<path class="st452" d="M249.2,63c-0.3,0.3-0.6,0.6-0.9,0.9c-0.1,0.1-0.3,0.1-0.4,0c-0.4-0.2-0.7-0.4-1.1-0.5
		C247.6,62.9,248.4,62.9,249.2,63z"/>
	<path class="st427" d="M171.5,73.8c-0.6,0.4-1.1,1.3-1.9,0.3C170.2,73.6,170.9,73.7,171.5,73.8z"/>
	<path class="st437" d="M199.1,70c-0.7,0.7-1.6,0.3-2.4,0.4C197.5,69.9,198.3,70,199.1,70z"/>
	<path class="st472" d="M447.3,316.6c0.3,0,0.5,0,0.8,0c-0.1,0.5-0.2,1-0.3,1.5C447.2,317.7,447.3,317.2,447.3,316.6z"/>
	<path class="st437" d="M202.4,69.5c-0.3,0.1-0.6,0.3-0.9,0.4c-0.5,0-1,0-1.5,0C200.8,69.4,201.6,69.5,202.4,69.5z"/>
	<path class="st450" d="M274.5,59.2c-0.7,0.7-1.6,0.3-2.4,0.4C272.9,59.1,273.7,59.2,274.5,59.2z"/>
	<path class="st455" d="M9.6,124.8c0.3-0.4,0.6-0.7,0.9-1.1c3,7.5,4.9,15.4,6.9,23.2c6.3,24.5,12.6,49,19.5,73.4
		c5.9,20.8,11.4,41.6,17.1,62.4c0.7,2.7,1.5,5.4,2.3,8.1c1.5,2,1.4,4.6,2.3,6.8c0.5,2,1,3.9,1.6,5.9c-0.8-2.2-1.1-4.5-1.9-6.7
		c-0.6-2.3-1.3-4.6-1.6-6.9c-0.8-4.9-2.7-9.6-3-14.6c1.7,3.9,2.8,8,3.8,12.1c2.6,9.9,5.4,19.8,7.8,29.7
		c5.8,23.5,12.7,46.6,19.7,69.8c3.6,12,6.2,24.2,9,36.4c0.4,1.5,0.5,2,2.5,1.6c11.8-2.4,23.5-4.8,35.4-6.8c11.7-1.9,23.4-4,35.1-5.9
		c10.9-1.7,21.9-3.6,32.7-5.8c16.1-3.2,32-7.1,47.8-11.3c10.5-2.8,21-5.5,31.5-8.3c1.6-1,3.5-0.7,5.1-1.5c1.2-0.5,2.5-0.8,3.8-0.8
		c-0.1,1.2-1.2,1.3-2,1.7c-5.3,2.5-11,4-16.6,5.7c-15.6,4.6-31.2,8.8-47,12.6c-12.3,2.9-24.7,5.2-37,7.9
		c-13.1,2.9-26.1,6.1-39.2,9.1c-1.3,0.3-2.5,0.9-3.8,1.1c-8.9,1.7-17.5,4.4-26.2,6.8c-5.8,1.7-11.6,3.6-17.5,5
		c-2.1,0.5-4.2,0.8-6.4,0.9c-2.1,0.1-3.6-0.6-4.4-2.6c-2.6-9.9-5.2-19.8-7.8-29.7c-0.9-3.5-1.8-7.1-2.7-10.6
		c-1-5.8-2.5-11.5-3.4-17.4c-0.2-1.1-1-2.7,0.4-3.1c1.4-0.4,1.6,1.4,1.9,2.5c2.3,8.3,3.6,16.8,5.4,25.1c2.2,10.5,5.3,20.8,8.7,31
		c0.4,1.2,1.1,1.5,2.2,1.5c2.6-0.1,5.1-0.7,7.6-1.4c13.2-3.9,26.4-8.1,39.8-11.1c2.1-0.5,4.3-0.8,6.4-1.3c1.6-0.1,3.1-0.6,4.7-0.9
		c1.5,0,2.9-0.8,3.8-0.7c-0.7,0-2,0.4-3.2,0.7c-0.5,0.1-1.1,0-1.6,0.3c-1.6,0.3-3.1,0.7-4.7,0.9c-15.5,3.2-31.2,5.6-46.7,8.3
		c-1.1,0.2-2.2,0.2-3,1.1c-1.2,1.3-1.9,0.4-2.6-0.5c-1.1-1.6-1.5-3.4-2-5.2c-1.2-4.4-2.1-8.8-3.1-13.2c-3-13.5-7-26.7-11-39.9
		c-4.4-14.9-8.5-29.9-12.3-44.9c-1.4-5.5-3.5-10.7-5.6-15.9c-4.3-11.1-7.2-22.6-10.4-34c-2.9-10.3-5.5-20.7-8.5-30.9
		c-2.2-6.6-4-13.3-5.8-20c-7.5-27.9-14.5-55.9-21.5-83.9c-1.2-4.7-2.8-9.4-3.6-14.2C9.6,125.1,9.6,125,9.6,124.8z"/>
	<path class="st438" d="M146.7,418.6c-9.7,2.2-19.3,4.8-28.8,7.5c-7.4,2.1-14.6,4.8-22.2,6.3c-1.6,0.3-3.2,0.4-4.8,0.5
		c-0.4,0-0.6-0.1-0.7-0.4c-2-8.4-5.4-16.3-7.2-24.8c-2.3-11-4.7-22-7.1-32.9c-0.2-0.9-0.3-2-1.1-2.7c-0.8,0.3-0.4,0.9-0.3,1.4
		c1.1,5.9,2.2,11.7,3.3,17.6c0.1,0.5,0.1,0.9-0.3,1.3c-3.2-12.4-6.5-24.8-9.7-37.3c-6.5-25.1-13-50.2-19.5-75.3
		c-3-11.6-6-23.2-8.9-34.8c-0.2-1.2,1.2-1.2,1.6-2c2.4,7,4,14.3,6.1,21.5c4.4,15.5,7.9,31.2,14.1,46.1c4.3,10.5,6.4,21.6,9.5,32.4
		c3.5,12.4,7,24.8,10.7,37.2C85.5,394,88.7,408,92,422c0.5,2.2,1.1,4.4,2.8,6.3c1.2-2.9,4-2.1,6.1-2.5c11.4-2.1,22.9-4,34.4-6
		c3.5-0.6,7-1.1,10.6-1.6C146.3,417.9,146.8,417.8,146.7,418.6z"/>
	<path class="st438" d="M208.1,415c-8.5,2.4-17.2,4.2-25.8,6.3c-26.3,6.3-52.5,12.5-78.8,18.7c-0.5,0.1-1.1,0.1-1.6,0.2
		c-0.7,0.2-0.7-0.2-0.5-0.6c0.5-1,1.5-1.2,2.5-1.4c2.9-0.6,5.7-1.6,8.5-2.8c1-0.4,2-0.5,2.9-0.7c1.7-0.3-0.6-0.7,0-0.9
		c0.6-0.8,1.6-0.9,2.5-1.2c23-7.4,46.3-13.4,69.9-18.6c22.3-4.9,44.5-10.3,66.7-15.9c3.9-1,7.9-1.9,11.8-2.8c2-0.5,4.1-1,5.8-2.2
		c1.4-1,3.1-1,4.7-1.2c5.1-0.6,9.9-1.9,14.4-4.4c1.7-0.9,3.6-1.6,5.4-2.2c2.4-0.7,4.8-1.6,7.3-2.3c3.6-0.8,7-2.3,10.8-2.8
		c0,0,0.3,0,0.1-0.1c-0.2-0.1-0.4-0.2-0.5-0.4c0.4-0.9,1.2-0.7,1.9-0.7c0.8,0.2,1.5,0.3,2.3,0c3.6-1.1,7.2-1.6,10.9-2.4
		c2.4-0.6,4.8-0.9,7.1-1.4c3.8-0.9,7.7-1.2,11.5-1.6c0.9,0.1,2-0.1,2.5,1c-0.4,0.8-1.2,1-1.9,1.1c-20.4,4.6-40.3,10.6-60.3,16.6
		c-10.3,3.1-20.8,5.4-31.3,7.9c-14.5,3.5-28.9,7.7-42.9,12.8C212.1,413.7,210,414.2,208.1,415z"/>
	<path class="st473" d="M370.1,369.5c-0.7-1.1-0.6-2.2,0-3.2c0-3.2-1.3-6.2-2.1-9.2c-0.9-3.5-1.9-7-3.1-10.4
		c-1.9-6.5-3.6-13.1-5.6-19.6c-2.4-9-5.1-18-7.6-27c-1-3.7-2-7.4-3.1-11c-0.1-0.2-0.2-0.5-0.2-0.7c-7.3-25.7-14.6-51.3-21.9-77
		c-0.3-1-0.7-2.1-0.5-3.2c0.4-1.4,1-1.2,1.6-0.1c0.6,1.3,1,2.6,1.4,4c4.1,13.7,8.6,27.3,12.9,41c4.8,15.2,9.6,30.3,14.4,45.5
		c6,18.9,11.9,37.8,17.9,56.6c1.3,3.9,2.6,7.9,3.6,11.9c0.2,0.7,0.6,1.5,0.3,2.3c-1,0.8-2.3,0.4-3.3,0.8c-0.5,0.1-1,0.2-1.6,0.2
		C372.1,370.1,370.9,370.4,370.1,369.5z"/>
	<path class="st474" d="M316.2,379.3c-0.6,0.1-1.4-0.2-1.9,0.5c-1.8,1.5-4.2,1.4-6.3,2.1c-1.5,0.5-3,0.9-4.5,1.3
		c-2.5,0.9-5.2,1.5-7.7,2.5c-12.3,4.5-25.2,6.5-37.6,10.4c-22.1,7-44.9,11.3-67.4,16.6c-13.8,3.3-27.7,6.3-41.4,10
		c-1.7,0.5-3.4,1.1-5.2,1.1c-1.3,0-1.6-1-1.8-2c8.9-2.7,18.1-4.3,27.1-6.6c17.7-4.5,35.7-7.3,53.4-11.7c19.8-4.9,39.4-10,58.8-16.4
		c2.2-0.7,4.3-1.7,6.3-2.8c1.1-0.3,2.2-0.6,3.3-0.9c3.3-1.7,7-1.9,10.5-2.9c0.5-0.1,1.1-0.2,1.6-0.4c2.5-0.6,4.9-1.1,7.4-1.6
		c4-0.7,7.9-1.7,11.9-2.6c2.1-0.5,4.2-1,6.3-0.9c1.6,0,3-0.5,4.5-0.9c0.4-0.7,1.1-0.7,1.7-0.9c0.3-0.1,0.6-0.2,1-0.2
		c0.2,0,0.4-0.1,0.7-0.1c1.2-0.3,2.4-0.6,3.7-0.9c1.7-0.3,3.5-0.8,5.2-1.3c2.1-0.5,4.3-0.8,6.4-1.4c3-0.8,6-1.4,9-2
		c0.6,0,1.2-0.2,1.8-0.3c0.9-0.1,1.9-0.5,2.8-0.3c0.3,0.2,0.7,0.3,0.5,0.8c-0.1,0.3-0.3,0.6-0.4,1c-0.9,1-2.1,1.2-3.4,1.5
		c-9.1,1.8-18.2,3.8-27.4,5.5c-2.4,0.3-4.7,1-7.1,1.4c-3.1,0.7-6.3,1.3-9.4,2.1C317.9,379.3,317.1,379.8,316.2,379.3z"/>
	<path class="st475" d="M213.7,412.6c14.2-5.5,28.7-9.7,43.5-13.1c19.2-4.4,38-10,56.9-15.6c12-3.5,24.1-6.8,36.3-9.3
		c1.6-1.1,3.5-1.2,5.3-1.7c2.4-0.6,4.8-1.2,7.3-1.7c0.8-0.2,1.7-0.5,2.5,0.1c0,0.3-0.1,0.6-0.1,1c-0.6,0.9-1.5,1-2.4,1.2
		c-18.5,4.2-36.8,8.8-55.1,14c-0.8,0.2-1.7,0.2-2.5,0.6c-1.3,0.2-2.6,0.6-3.8,1c-1.5,0.3-3,0.8-4.4,1.1c0.4,0,0.7-0.2,1.1-0.3
		c1.4-0.3,2.8-0.7,4.3-1.1c1.3-0.3,2.6-0.6,3.8-1c15.4-3.9,30.9-7.2,46.3-11.2c3-0.8,6.1-1.4,9.1-2.2c1.1-0.3,2.3-0.8,3.3,0.1
		c-0.1,0.6-0.2,1.3-0.3,2c-1,0.5-2,0.8-3.1,1c-18.5,4.7-37.1,9.1-55.8,13.2c-18.8,4.1-37.6,8.2-56.3,12.9
		c-10.3,2.6-20.4,5.7-30.6,8.6c-0.7,0.2-1.5,0.3-2.3,0.6c-0.6,0.3-1.2,0.3-1.8,0.5C214.2,413.2,213.6,413.4,213.7,412.6z"/>
	<path class="st476" d="M216,412.6c15.7-5.1,31.5-9.4,47.6-13.1c11.6-2.7,23.1-5.4,34.7-7.8c14.8-3.1,29.5-6.5,44.2-10.1
		c6.6-1.6,13.3-3.3,19.9-4.9c0.6-0.1,1.3-0.6,2-0.1c0.2,1.5-0.9,1.7-2,2c-16.8,4-33.7,8-50.5,12c-31.4,7.5-62.8,14.9-94.1,22.4
		c-0.5,0.1-0.9,0.1-1.4,0.2C216,413.2,215.9,413,216,412.6z"/>
	<path class="st477" d="M373.3,383.1c-0.6,0-1.2-0.1-1.8-0.1c-0.1-0.1-0.1-0.3-0.2-0.4c0-0.6,0.3-0.8,0.8-0.9
		c11.9,0,23.8-0.3,35.2,0.2c-1.4,0.1-3.4-0.3-5.3-0.3c-9.1,0-18.2,0-27.3,0c-1,0-2.3,0.5-2.7-1.1c0-0.3,0.1-0.6,0.2-0.8
		c0.9-0.7,2.1-0.7,3.1-0.6c9.2,0.9,18.4,0.2,27.6,0.4c5.7,0.1,11.4,0,17-0.5c1.4-0.1,2.7-0.3,1.5-2.1c0.9-1.8,2.4-0.8,3.8-0.8
		c2.9,1.4,4,3.9,4.2,7c0.3,0.7,0.5,1.4,0.9,2.3c-2,0-3.7,0-5.5,0c-1.5,0.8-3.2,0.5-4.8,0.3c-5.2-0.5-10.5-0.7-15.7-0.8
		c-1.6,0-3.2-0.2-4.9-0.3c-1.7-0.4-3.4-0.2-5-0.2c-1.5,0-3,0-4.6,0c-2.3-0.6-4.6-0.4-6.9-0.5c-0.3-0.1-0.5-0.2-0.7-0.4
		c-0.7,0-1.4-0.1-2.1-0.1C377.8,383,375.6,383.6,373.3,383.1z"/>
	<path class="st438" d="M142.5,421.9c0.5,0.5,1,0.9,1.4,1.4c-0.4,1.5-1.9,1.5-3,1.8c-13.3,3.7-26.4,7.9-39.5,12.3
		c-2.9,1-5.6,2.2-8.6,3c4.5-1.2,8.8-2.8,13.3-4.1c2.2-0.6,4.3-1.4,6.4-2.1c0.9-0.3,1.8-0.7,2.7-0.2c0.2,0.2,1.5-0.1,0.6,0.5
		c-1.5,1-3.4,1.5-5.2,2.1c-2.9,1-5.9,1.8-8.9,2.8c-0.3,0.1-0.4,0.5,0,0.7c-0.9,0.6-1.9,0.5-2.9,0.7c-0.5-0.2-1-0.4-1.3,0.2
		c-1.5,0.7-3.2,0.9-4.8,1.2c-0.8-0.2-1.8,0.2-2.4-0.8c-1.1-2.9-1.7-5.9-2.4-8.9c2.9,3.4,6.6,1.9,9.9,1.1c9.2-2.4,18.4-5.1,27.6-7.7
		C131.2,424.5,136.8,422.9,142.5,421.9z"/>
	<path class="st478" d="M40.9,243.1c0.2,1.2-1.3,1.1-1.6,2c-0.7-2.4-1.6-4.8-1.8-7.4c-0.2-1.2-0.5-2.3-0.9-3.5
		c-1.8-5.1-2.7-10.4-4.2-15.6c-2.1-7.6-3.6-15.4-6-22.9c-1.8-5.8-2.9-11.8-4.4-17.7c-4.1-16.5-8.2-32.9-12.3-49.4
		c-0.3-1.1-0.9-2.2-0.2-3.3c3,8.5,5,17.3,7.2,26c4.6,18.2,9.5,36.4,13.9,54.6C33.8,218.4,37.5,230.7,40.9,243.1z"/>
	<path class="st476" d="M364.8,374.6c-5.2,0.7-10.3,2.4-15.4,3.6c-14,3.3-28.1,6.6-42.1,9.9c-0.4,0.1-0.9,0.1-1.4,0.1
		c-0.5,0.2-1,0.4-0.9-0.5c11-3.2,22-6.4,33.1-9.1c9-2.2,18.1-4.2,27.1-6.3C365.4,373.2,365,373.9,364.8,374.6z"/>
	<path class="st479" d="M335,375.1c10.3-2.2,20.6-4.4,30.9-6.6c0,0.8,0,1.6-0.4,2.3c-4.5,1.1-9,2-13.5,3.1c-1.3,0.3-2.6-0.6-3.9,0.1
		c-3.9,0.5-7.8,1-11.7,1.4C335.8,375.7,335.1,376.3,335,375.1z"/>
	<path class="st480" d="M372.4,379.8c-0.1,0.1-0.1,0.3-0.1,0.4c-0.5,0.5,0.2,1.4-0.5,1.9c-0.2,0.2-0.3,0.3-0.5,0.5
		c-5.1,0-4.4,0.2-3.6-4.3c0.3-1.7,0.9-3.4,1.3-5.1c2.1-0.8,4.1,0,4.8,1.8c0,0.3,0,0.7,0,1c0,0.2-0.1,0.5-0.1,0.7
		C373.3,377.7,373.3,378.9,372.4,379.8z"/>
	<path class="st456" d="M366.3,367.6c-0.2-0.2-0.3-0.4-0.5-0.5c-1-0.3-1.9,0.1-2.9,0.2c-0.2,0-0.4-0.1-0.6-0.3c0-1.6,1-2.8,1.5-4.1
		c0.2-0.1,0.5-0.1,0.7-0.1c1.1,0.5,2.2,2,3.6,1c1.5-1,0.3-2.4,0-3.6c-0.9-3.5-2-7-2.9-10.6c-0.3-1-0.7-2.1,0.2-3.1
		c1.7,3.9,2.4,8.1,3.7,12.1c0.6,2.1,1.3,4.1,1.6,6.3c0.1,0.7,0,1-0.6,1.3C368.8,366.8,367.2,366.4,366.3,367.6z"/>
	<path class="st481" d="M373.4,375.2c0-0.7,0-1.5-1-1.4c-1.2,0.1-2.1-0.5-3.3-0.6c0-1.3,0.1-2.7,1-3.7c1.1,0,2.1,0.1,3.2,0.1
		c0.5,0.4,1.2,0,1.7,0.5c0.5,1,0,1.9-0.2,2.8C374.2,373.6,374.7,374.9,373.4,375.2z"/>
	<path class="st482" d="M348,374.2c3.9-0.8,7.8-1.6,11.7-2.3c1.9-0.3,3.7-1.2,5.7-0.9c0,0.2,0,0.3-0.1,0.4c-5,1-9.9,2.5-15,3.3
		C349.7,373.9,348.8,374.3,348,374.2z"/>
	<path class="st483" d="M213.7,412.6c0.2,0.4,0.6,0.4,0.9,0.4c0.2,0.1,0.2,0.2,0.2,0.3c-0.1,0.1-0.1,0.2-0.2,0.2
		c-2.2,0.6-4.3,1.2-6.5,1.5C209.8,413.8,211.7,413.2,213.7,412.6z"/>
	<path class="st438" d="M90.5,441.6c0.8,0.3,1.6,0.5,2.4,0.8C91.9,442.5,90.5,444,90.5,441.6z"/>
	<path class="st438" d="M36.7,234.2c0.9,1,1,2.2,0.9,3.5C37,236.6,36.8,235.4,36.7,234.2z"/>
	<path class="st484" d="M214.6,413.5c0-0.2,0-0.3,0-0.5c0.5-0.2,0.9-0.3,1.4-0.4c0.2,0.2,0.3,0.3,0.5,0.5
		C215.9,413.5,215.3,413.5,214.6,413.5z"/>
	<path class="st438" d="M97.7,441.2c-0.6-0.6,0.1-0.6,0.3-0.7c0.5-0.3,0.9-0.1,1,0.5C98.5,441,98.1,441.1,97.7,441.2z"/>
	<path class="st485" d="M424.4,174.8c2.7-12.3,5.3-24.5,8-36.8c0.6-2.7,1.2-5.4,1.9-8.1c0.1,0,0.1-0.1,0.2-0.1
		c2.5,0.4,2.5,0.4,3-2.4c0.2-0.9,0.2-2,1.2-2.6c0.9,0.5,0.8,1.3,0.8,2.1c-0.4,2.1-0.8,4.2-1,6.4c-4.2,20.2-8.6,40.3-12.9,60.5
		c-0.6,2.8-0.9,5.7-2.4,8.2c-0.2,0.1-0.6,0.2-0.6-0.1c-0.5-3.1-3.4-5.7-1.7-9.2c0.3-0.7,0.3-1.4,0.4-2.1c0.4-0.9-0.1-1.9,0.4-2.7v0
		c0.4-1.5,0.5-3.1,0.9-4.7v0C423.2,180.4,423.8,177.6,424.4,174.8z"/>
	<path class="st486" d="M438.9,126.6c0-0.5,0-0.9,0-1.6c-1.2,1.5-0.8,3.2-1.3,4.7c-0.6,2-0.9,2.2-2.5,0.7c-0.3-0.3-0.6-0.5-1-0.5
		c1.2-5.8,2.3-11.5,3.5-17.3c1.8-8.7,3.6-17.4,5.5-26.1c0.3-1.5,0.9-2.9,1.3-4.4c0.8,0.7,1.3,1.7,2.2,2.4c0.9,0.8,0.7,1.9,0.5,3
		c-1.4,7.2-3.1,14.4-4.6,21.6c-0.2,0.9-0.2,1.7,0,2.5c-0.3,4.7-1.7,9.3-2.7,13.9C439.8,126.1,439.6,126.6,438.9,126.6z"/>
	<path class="st487" d="M398.1,301.6c-1.8-1.5-0.6-3.3-0.3-4.8c2.7-13,5.5-26,8.3-39.1c3.6-16.7,7.1-33.4,10.8-50.1
		c1-4.4,1.5-9,3.2-13.2c0.1,0.1,0.1,0.2,0.2,0.3c0.7,5.4-1.4,10.4-2.3,15.6c-1.6,9-3.6,18-5.6,26.9c-2,10.1-4.2,20.1-6.3,30.1
		c-1.5,7.1-2.9,14.1-4.3,21.2c-0.2,1-0.4,2-0.8,2.9c-0.7,2.6-0.9,5.3-1.6,8C399.2,300.3,399.4,301.4,398.1,301.6z"/>
	<path class="st488" d="M398.1,301.6c1-2.8,1.3-5.7,1.9-8.6c0.1-0.6-0.1-1.2,0.5-1.7c2.9,4.5,2.1,8.9-0.6,13.2
		c-0.2,0.3-0.4,0.6-0.2,0.9c1,1.9-0.1,3.9,0.4,5.7c0.4,2.1-0.7,4-0.9,6c-1.2,4.9-2,9.9-3.2,14.8c-0.3,1.3-0.3,2.8-1.5,3.9
		c-1.7-0.4-1.4-2.1-2-3.2c-0.4-0.7-0.6-1.6-0.6-2.5c0.9-5.7,2.1-11.2,3.4-16.8c0.8-3.1,0.8-6.4,2.4-9.3
		C397.8,303.2,398,302.4,398.1,301.6z"/>
	<path class="st489" d="M442.2,111.6c-1.2-1.4-0.1-2.9,0.1-4.2c1.3-6.8,2.8-13.5,4.3-20.2c0.2-1.1,0.4-2-0.8-2.6
		c-1.1-0.5-1.3-1.4-1.3-2.5c0.1-1.9,0.8-3.7,0.4-5.6c1,1.6,1.9,3.2,4.2,2.8c0,0,0.1,0,0.1,0c0.6,0.8,0.4,1.7,0.2,2.5
		c-2.4,9.3-4.3,18.7-6.3,28C442.9,110.4,442.7,111.1,442.2,111.6z"/>
	<path class="st487" d="M397.7,304c-0.4,3.2-1.1,6.3-1.9,9.4c-1-0.5-1.3-1.3-0.9-2.3c0.5-2.2,0.9-4.4,1.4-6.6
		C396.7,304.3,397.2,304.1,397.7,304z"/>
	<path class="st487" d="M424.4,174.8c-0.1,2.9-0.7,5.7-1.9,8.4C422.7,180.3,423.3,177.5,424.4,174.8z"/>
	<path class="st487" d="M422.5,183.2c0,1.6,0,3.2-0.9,4.7C421.5,186.3,421.6,184.7,422.5,183.2z"/>
	<path class="st487" d="M421.5,187.9c0,0.9,0,1.9,0,2.8c-0.5,0.4,0.1,1.2-0.7,1.5c-0.1,0-0.2-0.1-0.3-0.1
		C420.6,190.6,421,189.2,421.5,187.9z"/>
	<path class="st487" d="M420.1,194.5c0.1-0.8-0.3-1.7,0.5-2.3l0,0C420.8,193,421.3,193.9,420.1,194.5L420.1,194.5z"/>
	<path class="st446" d="M164.1,303.1c1.2,0.5,1.8,1.1,2,2.6c1.2,7.6,2.8,15.2,4,22.8c1.6,9.8,3.4,19.6,5.1,29.4
		c1.6,9.3,3.3,18.5,4.7,27.8c1,6.5,2.3,12.9,3.4,19.4c-0.3,0.3-0.7,0.5-1,0.8c0.4,0.1,0.7,0.1,1.1,0.2c-1.5,0.6-3.1,0.9-4.7,0.9
		c-1,0.3-1.6,0.3-1.8-1c-1.3-8.9-3.1-17.8-4.5-26.7c-1.1-7.2-2.5-14.4-3.7-21.6c-1.6-9.2-3.1-18.4-4.8-27.6
		c-1.3-6.9-2.4-13.8-3.5-20.7c-0.4-2.4-1.7-3.6-3.5-4.7C159.1,303.2,161.5,302.8,164.1,303.1z"/>
	<path class="st490" d="M164.1,303.1c-2.3,0.7-4.6,1.3-7,1.4c-0.4,0.5-1,0.7-1.6,0.8c-4.4,0.8-8.8,2-13.3,2.6
		c-4.3,0.5-8.4,1.6-12.6,2.3c-5.6,0.9-11.2,2.2-16.8,3.2c-2.2,0.4-3.2-0.6-3.9-2.7c-5.6-18.3-11-36.7-16.5-55c-0.4-1.5-1-3-0.8-4.5
		c-1.7-5.7-3.3-11.5-5.1-17.2c-7.9-26.2-15.7-52.5-23.6-78.7c-3.6-12.1-7.3-24.1-10.9-36.2c-0.1-0.2-0.1-0.4-0.1-0.7
		c5.5-0.8,11-1.6,16.4-2.9c1.8,0,3.5-0.3,5.2-0.9c0.1,0,0.2,0,0.3-0.1c0.7-0.6,1.7,0.1,2.4-0.5c5.4-0.7,10.7-1.5,16-2.8
		c0.3,0,0.6,0,0.8-0.1c0.7-0.5,1.7,0.1,2.4-0.4c4.2-0.7,8.5-1.3,12.7-2.1c1.4-0.3,1.8,0.3,2.2,1.3c1.6,5.6,3.1,11.2,4.7,16.8
		c6.4,22.1,12.8,44.3,19.3,66.4c2.9,9.9,5.9,19.7,8.8,29.5c1.5,5.3,2.9,10.6,4.4,16c3.5,12.3,7.1,24.5,10.7,36.8
		c0.1,0.2,0.2,0.4,0.3,0.6c1.8,4.1,2.7,8.4,3.7,12.7c0.6,4.2,2.3,8.2,3.4,12.3C165.9,302.6,165.5,303.1,164.1,303.1z"/>
	<path class="st454" d="M91.5,251.1c3.1,10.2,6.2,20.4,9.3,30.6c3,9.9,6,19.8,8.9,29.7c0.5,1.8,1.7,1.4,2.9,1.4c2.6,0.1,3,0.4,3.4,3
		c1.8,11.5,3.8,23.1,5.9,34.6c3.5,19.9,6.8,39.8,10.3,59.6c0.2,0.8,0.2,1.7,0.3,2.5c0.2,1.5,0.1,2.7-1.7,2.9c0,0-0.1,0.1-0.1,0.2
		c0,0.1,0.1,0.1,0.2,0.1c-3.8,1-7.7,1.5-11.7,1.9c-0.5,0-0.9-0.1-1.4-0.1c1.8-0.3,1.6-1.4,1.3-2.8c-1.4-7.4-2.4-14.9-3.8-22.4
		c-1-5.2-1.8-10.3-2.7-15.5c-1.3-7.5-2.5-14.9-3.8-22.4c-0.8-4.3-1.7-8.6-2.5-13c-1.3-7.3-2.4-14.6-3.6-21.9
		c-0.8-5-1.7-9.9-2.6-14.8c-0.7-4.3-1.4-8.5-2.1-12.8c-0.6-3.6-1.5-7.3-2-10.9c-1-7.4-2.9-14.5-3.6-21.9c-0.2-2-0.8-3.9-1.2-5.9
		C91,252.5,90.8,251.7,91.5,251.1z"/>
	<path class="st429" d="M99.4,420c0-0.8,0-1.5,0-2.3c0.8,0.6,0.4,1.5,0.5,2.3C99.7,420,99.6,420,99.4,420z"/>
	<path class="st491" d="M303.7,380.8c-4.1,0.9-8.2,1.8-12.3,2.7c0-0.1,0-0.3,0-0.4c3.5-1.8,3.4-1.8,2.7-5.9
		c-1.2-7.2-2.6-14.4-3.7-21.7c-0.8-5.9-2.2-11.7-3.2-17.6c-1.3-7.3-2.5-14.6-3.7-21.9c-1-5.6-2-11.3-3-16.9c-0.6-3.7-1-7.4-1.8-11
		c-0.5-2.7-0.9-5.3-1.4-8c-1.2-7.2-2.5-14.3-3.7-21.5c-1.6-9.1-3.1-18.3-4.7-27.4c-1-5.6-2.1-11.2-3-16.9
		c-1.2-7.3-2.7-14.4-3.7-21.7c-0.7-5.5-2-10.9-3-16.4c-1.2-7.1-2.2-14.2-3.6-21.3c-0.9-4.5-1.6-9-2.4-13.4c-1-5-1.6-10.1-2.6-15.1
		c-0.9-4.2-1.4-8.4-2.1-12.6c-0.8-5-1.8-9.9-2.6-14.9c-1-6-2.1-12-3-18.1c-0.8-5.3-2.2-10.6-2.6-16c2.1,1.3,2.8,3,2.9,5.6
		c0.2,4.5,2.2,8.7,3.4,13c2.7,9.4,5.4,18.7,8.2,28.1c2.8,9.7,5.7,19.3,8.6,29c2,6.8,4,13.5,5.9,20.3c-0.2,0.3-0.2,0.5-0.2,0.9
		c4.6,21,7.5,42.2,11.3,63.3c3.7,20.7,7.2,41.5,10.7,62.2c2.1,12.5,4.3,24.9,6.4,37.3c2.9,17.4,6,34.7,8.9,52.1
		c0.1,0.8,0.3,1.5,0.2,2.3c-0.5,1.8-2.2,0.9-3.3,1.4c-0.3,0.1-0.4,0.2-0.1,0.1C303.5,380.4,303.6,380.7,303.7,380.8z"/>
	<path class="st492" d="M284.4,385.3c-1.5,1.1-3.4,1.2-5.1,1.5c0-0.1,0-0.3,0-0.4C280.9,385.7,282.6,385.5,284.4,385.3z"/>
	<path class="st449" d="M328.4,119.1c1.4,1.6,1.6,3.7,2.2,5.6c3.1,10.4,6.5,20.7,9.8,31.1c4.6,14.3,9,28.5,13.5,42.8
		c2.3,7.4,4.6,14.8,7,22.1c3.2,9.9,6.1,19.9,9.2,29.8c3.4,10.9,7.2,21.6,10.4,32.5c2.4,8.1,5.2,16.1,7.5,24.2
		c1.3,4.4,2.4,9,4.5,13.2c0.7,0.8,0.4,1.6,0.2,2.4c-1.6,7.7-3,15.3-4.7,23c-0.2,1-0.2,2.2-1.4,2.8c-1.6-2-1.8-4.6-2.5-6.9
		c-2.5-8.2-5.2-16.3-7.8-24.5c-1.9-6-3.7-11.9-5.6-17.8c-2.9-9.3-5.9-18.5-8.9-27.8c-2.8-8.8-5.5-17.6-8.3-26.3
		c-2.7-8.3-5.2-16.6-7.8-25c-4-12.9-8.2-25.9-12.2-38.8c-2.9-9.4-5.9-18.9-9-28.3c-0.6-1.7-0.9-3.5-1.3-5.2
		c0.3-5.8,1.7-11.4,2.5-17.1c0.5-3.1,0.9-6.2,1.5-9.2C327.4,120.6,327.5,119.7,328.4,119.1z"/>
	<path class="st493" d="M328.4,119.1c-1.6,9.7-3.1,19.4-4.7,29c0.1,1.7-0.1,3.2-0.9,4.7c-1,0-1.1-0.8-1.1-1.5c-0.1-2-0.8-4,0.5-5.9
		c0.6-0.9,0.2-2-0.2-2.9c-2.4-7.3-4.8-14.7-7-22.1c-0.7-2.4-1.9-3.8-4.4-3.9c-0.6,0-1.2-0.1-1.8-0.4c-0.3-0.1-0.6-0.2-0.6-0.6
		c0-0.4,0.3-0.5,0.6-0.6c1.2-0.3,2.5-0.5,3.6,0.4c4.2,0.2,8.4,0.3,12.5,0.5c0.3,0.1,0.6,0.4,0.8,0.4
		C328.3,115.8,329,116.8,328.4,119.1z"/>
	<path class="st444" d="M386.4,348.4c1.3-3.5,1.8-7.1,2.5-10.7c1.2-5.8,2.4-11.6,3.5-17.4c0.6-2.8,1.2-5.6,1.9-8.4
		c0.1-0.3,0.3-0.7,0.5-1c0.3,0.8,0.6,1.6,0.9,2.3c-1.1,5.6-2.2,11.2-3.3,16.8c-0.4,7.4-2.8,14.5-3.8,21.8c-0.2,1.5-0.3,3,0.4,4.3
		c0.8,1.3,0.2,2.8,0.4,4.1c0.2,1.4-0.5,2.7-1,3.9c-0.5,1.4-0.8,2.8,0,4.2c0.1,0.3,0,0.5,0,0.7c-0.4,0.7-1,0.7-1.7,0.6
		c-1.8-0.7-2.3-2.1-2.4-3.8c-0.1-2.1,0.4-4.1,1-6.2c0.5-1.7,0.5-3.3-0.4-4.9C384.9,352.6,385.3,350.5,386.4,348.4z"/>
	<path class="st448" d="M129.4,309.6c4.2-0.8,8.4-1.6,12.6-2.4c1.9,0.6,3.7-0.1,5.4-0.6c2.8-0.7,3.6-0.2,4.1,2.6
		c1.4,7.5,2.7,15,3.9,22.6c0.8,5.3,1.6,10.6,2.7,15.8c1.4,6.9,2.2,13.8,3.7,20.7c1.1,5.5,1.7,11.1,2.8,16.6c1.2,5.6,1.7,11.4,2.9,17
		c0.4,1.7,0.3,3.4,0.8,5.1c0.3,1-0.1,1.6-1.2,1.8c-0.9,0.2-1.8,0.5-2.7,0.6c-0.2,0-0.5,0.1-0.7,0.1c0.1,0.2,0.4,0.1,0.5,0.3
		c-4.9,1.2-9.9,2.2-15,2.8c-0.7,0.3-1.4,0.3-1.9-0.3c-0.8-1.2-0.8-2.7-1.1-4c-2.8-16.3-5.6-32.6-8.4-48.9
		c-2.6-15.3-5.2-30.6-7.8-45.8c-0.2-1.1-0.6-2.1-0.8-3.2C129.2,310.1,129.2,309.9,129.4,309.6z"/>
	<path class="st494" d="M147.7,412.1c0.4,0.6,1,0.4,1.6,0.5c-6,1.5-12.2,2.5-18.3,3.3c-0.5,0-0.9-0.1-1.5-0.1
		c0.8-0.8,2.5-0.3,2.6-1.6c0.2-1.1-0.1-2.3-0.4-3.4c-2-9.1-3.4-18.2-4.9-27.4c-1.7-10-3.4-19.9-5-29.9c-1.2-7.2-2.3-14.5-3.8-21.6
		c-1.1-5.2-1.8-10.5-2.5-15.8c-0.2-2-1.3-2.7-2.9-3.2c5.6-1.1,11.2-2.2,16.9-3.2c0,0.1,0,0.3,0,0.4c-1.3,1.9-0.9,3.8-0.6,5.9
		c1.6,9.8,3.3,19.7,5.1,29.5c1.9,10.8,3.7,21.7,5.6,32.5c1.4,8,2.9,16.1,4.1,24.2c0.3,2.3,1.1,4.6,1.2,6.9
		C145,410.9,145.9,411.8,147.7,412.1z"/>
	<path class="st440" d="M164.2,409.8c-0.5-0.1-1-0.1-2.1-0.2c1.2-0.3,1.9-0.4,2.5-0.6c2.1-0.5,3.5-0.3,2.7-3.9
		c-1.1-5-1.8-10.3-2.5-15.5c-0.3-2.7-1-5.5-1.6-8.3c-0.7-3-1.1-6.2-1.5-9.3c-0.3-3-1-6-1.6-8.9c-0.7-3.4-0.8-6.8-1.7-10.2
		c-0.9-3.2-1.4-6.6-1.9-9.8c-0.5-2.9-1.1-5.9-1.5-8.8c-0.7-6.1-1.9-12.1-2.9-18.1c-0.4-2.4-0.9-4.7-1.2-7.1
		c-0.3-2.3-0.7-2.8-3.1-2.3c-1.6,0.3-3.1,0.9-4.8,0.8c-0.3,0-0.7-0.3-1-0.4c4.3-0.8,8.6-1.7,12.9-2.5c0.7-0.1,1.4-0.2,2.1-0.3
		c3.6-0.1,3.7,2.8,4.1,5.1c1.5,8.7,2.9,17.5,4.4,26.3c1.3,7.4,2.7,14.7,4,22.1c0.9,5.3,1.7,10.7,2.6,16c0.9,5.5,2,10.9,2.9,16.4
		c0.6,3.7,1.6,7.3,1.7,11c0.1,1.8,1.4,3.3,0.8,5.2c-0.1,0.4,0.7,0.3,1.2,0.4C173.9,408.2,169.1,409.2,164.2,409.8z"/>
	<path class="st495" d="M50.3,257.2c0.5-0.3,0.4-0.9,0.5-1.4c1.2,3.9,1.9,7.8,2.4,11.8c-0.2,0-0.4,0.1-0.6,0.1
		C51.8,264.2,51.1,260.7,50.3,257.2z"/>
	<path class="st496" d="M58.3,297.9c-0.6-2.3-1.2-4.7-1.9-7c0.4-0.2,0.4-0.6,0.5-0.9c1,2.2,1.4,4.6,1.9,7
		C59,297.5,59.1,297.9,58.3,297.9z"/>
	<path class="st497" d="M38,190.4c0.1-0.4,0.1-0.7,0.2-1.1c0.3,1.2,1.5,2.4,0.5,3.7C38.4,192.2,38.2,191.3,38,190.4z"/>
	<path class="st498" d="M440.3,132.2c0,2.2-0.6,4.4-1,6.5c-0.1,0.7-0.6,1.4,0.7,1.4c1,0.4,2.1,0.5,3.2,0.5
		c8.2,0.1,16.5-0.2,24.7-0.5c1.5-0.3,2.8-0.4,2.7,1.7c-0.1,0.4-0.4,0.7-0.8,0.9c-0.3,0.1-0.5,0.2-0.8,0.2c-0.7,0.1-1.4,0.3-2.1,0.2
		c-8.6-0.1-17.3,0.9-25.9,0.4c-1.7-0.1-2.3,0.5-2.6,2.1c-0.8,5.1-2.2,10-3.1,15.1c-0.2,1.1-0.1,2.4-1.5,2.9
		c-0.6-0.5-0.6-1.2-0.7-1.9c0.8-4.9,2.1-9.7,2.9-14.6c1-4,1.8-8.1,2.7-12.2C439,134,438.8,132.6,440.3,132.2z"/>
	<path class="st499" d="M470.2,142c0.2-1.8-1.1-1.9-2.4-1.9c2.4-1.3,3.5,0.4,4.7,1.9c1.2,1.9,3,3.4,3.7,5.6
		c-2.1-0.2-2.2-2.6-4.1-3.5c0.2,1.2,1.3,2,1.2,3.1c-0.6-0.6-1.2-1.3-1.9-1.9c-0.2-0.1-0.3-0.3-0.4-0.4
		C470.7,144,470.3,143.1,470.2,142z"/>
	<path class="st500" d="M466.1,122.9c0.3,0,0.7,0,0.7,0.4c0,0.4-0.3,0.7-0.7,0.8c-0.3,0.1-0.6-0.1-0.7-0.5
		C465.3,123.2,465.7,123,466.1,122.9z"/>
	<path class="st446" d="M162.1,288.7c-1.5-4.2-2.6-8.4-3.7-12.7c0-0.3,0.1-0.6,0.1-0.9c0.1,0,0.3-0.1,0.4-0.1
		c0.6,2.3,1.3,4.5,1.9,6.8c0.5,1.7,0.7,3.5,1.9,4.9C162.5,287.3,162.3,288,162.1,288.7z"/>
	<path class="st426" d="M438.8,301.2c0,0.2,0,0.3,0,0.5c-1.5,3.4-1.7,7.2-2.5,10.8c-3.4,15.9-6.8,31.8-9.9,47.8
		c-0.4,2.2-1.9,3-2.9,4.5c-0.5,1.3-0.2,2.6-0.2,3.8c0,1.1,0.1,2.2-0.8,3c-0.3,0.2-0.6,0.4-1,0.4c-1-0.1-2,0-2.9-0.6
		c-1.6-3.8-2.7-7.8-4-11.7c-2.4-7.5-4.8-15-7.2-22.5c-1.3-4-2.6-8-3.7-12c-0.2-0.6-0.1-1.3-0.9-1.7c-1,4.7-2,9.3-3,13.9
		c-0.2,1-0.1,2.5-1.7,2.5c-0.3-0.3-0.4-0.7-0.5-1c0-3.1,1.1-6.1,1.7-9.1c1.8-8.8,3.7-17.6,5.5-26.4c0.5-1.5,0.7-3,1.1-4.5
		c0.3-1.3,1-1.7,2.4-1.9c8.2-1.3,16.1,0,24.1,1.7c1.1,0.2,2.9,1,3.2-0.6c0.2-1.3-1.7-1.2-2.8-1.3c-4.4-0.8-8.8-1.8-13.4-2.2
		c-3-0.2-5.9,0.3-8.8,0.5c-1.5,0.1-3.3,0.5-3.5-1.9c2.6-12.8,5.4-25.6,8-38.4c2.5-11.9,5.1-23.7,7.5-35.6c0.4-1.5,0.9-2.5,2.7-1.6
		c1.4,0.7,2.9,0,4.3-0.3c7.9-2.1,15.7-1.4,23.5,0.4c0.8,0.5,1.2,1.4,1.9,2c0.4,0.4,0.7,0.8,1,1.3c0.1,0.2,0,0.4-0.1,0.6
		c-1.1,0.8-0.9,2.1-1.1,3.2c-4,19.3-8,38.5-12.1,57.8c-1.2,5.4-2,11-3.7,16.3C438.6,299.6,438.1,300.4,438.8,301.2z"/>
	<path class="st501" d="M455.7,221.6c0-0.2,0-0.3,0-0.5c2.4,0.2,3.4,2.2,4.7,3.8c1.8,2.4,3.7,4.8,4.2,7.9
		C461.7,229.1,458.7,225.3,455.7,221.6z"/>
	<path class="st502" d="M438.8,301.2c-1.7-0.8-1.4-1.6,0-2.3c0.2,0.3,0.3,0.6,0.5,0.9C439.2,300.2,439,300.7,438.8,301.2z"/>
	<path class="st503" d="M422.1,371.5c0.7-1.4,0.8-3,0.9-4.5c0-0.7-0.2-1.5,0.5-2.1c0,1.1,0,2.1,0,3.7c0.9-1.4,0-2.8,1.1-4
		c1.8,5.6,3.6,11.1,5.3,16.5c0.2,0.7,0.4,1.5-0.4,2.1c-0.9-2.5-1.9-5-4-6.8C422.5,375.9,422.4,373.6,422.1,371.5z"/>
	<path class="st504" d="M399.2,384.4c8.5,0,17.1,0.7,25.6,1c1.8,0.8,3.7,0.2,5.6,0.5c-3.4,0.9-7,0.7-10.3,0.3
		c-3.6-0.4-7.2-0.2-10.9-0.7c-5.4-0.6-10.8-0.4-16.2-0.6c0.1-1.2,1.1-0.5,1.6-0.7C396.1,384.4,397.7,384.1,399.2,384.4z"/>
	<path class="st426" d="M471.6,144.9c0,0.1,0,0.3,0,0.4c-1.7,2.6-1.6,5.6-2.3,8.4c-3,13.9-5.9,27.8-8.8,41.8
		c-1.3,6.4-2.6,12.7-4,19.1c-0.1,0.4-0.3,0.9-0.4,1.3c0,0.1,0,0.2,0,0.3c-5-0.9-10.1-1.8-15.2-1.8c-4.1-0.1-8,0.4-12,1.4
		c-1.7,0.4-3.5,1.3-5.3,0.1c-0.1-3.4,0.9-6.6,1.6-9.8c1.1-5.1,2.1-10.2,3.2-15.3c1.7-7.8,3.2-15.7,5-23.5c1.6-6.7,2.8-13.5,4.2-20.2
		c0.1-0.5,0.3-0.9,0.6-1.2c0.3-0.4,0.6,0.8,0.8,0.1c0.4-1.3,1.4-1.6,2.5-1.6c1.9-0.1,3.9-0.1,5.8,0c6.5,0.3,13-0.7,19.5-0.5
		c0.3,0,0.6-0.1,0.9-0.3c0.1-0.2,0.2-0.4,0.3-0.6c0.3-0.3,0.6-0.6,1.1-0.4l0,0.1C470.6,142.8,470.6,144.4,471.6,144.9z"/>
	<path class="st505" d="M465.1,225.8c-1.9-1.6-3.5-3.4-4.7-5.6C462.3,221.8,464,223.6,465.1,225.8z"/>
	<path class="st506" d="M335.5,373.8c-0.6,0.5-1.3,0.4-1.9,0.5c-1.3-0.7-1.7-1.9-2.1-3.2c-4.3-15.4-8.6-30.7-12.9-46.1
		c-5.6-20.1-11.3-40.3-16.9-60.4c-6.3-22.4-12.5-44.8-18.7-67.2c-6.4-22.9-12.8-45.8-19.2-68.8c-5.5-19.5-10.9-39.1-16.4-58.6
		c-0.3-1-0.5-2-0.9-2.9c-0.7-1.7-0.6-2.8,1.4-3.2c0.1,0,0.3,0,0.4,0c0.9-0.2,1.4,0.3,1.8,1c1.1,5.6,3,11.1,4.5,16.6
		c4.4,16,9,32,13.5,48c0.1,0.3,0.2,0.6,0.4,0.9c1.3,0.9,2.6,0.6,4,0.2c3-1,5.9-2.2,9.1-2.5c1.9,0.6,1.2,2.1,1.3,3.4
		c-0.7,1.3-2,1.2-3.1,1.8c-2.3,0.7-4.6,1.5-6.9,2.1c-1.9,0.5-2.1,1.4-1.6,3c1.8,6.1,3.4,12.3,5.2,18.4c4.3,16.1,9,32.1,13.5,48.2
		c0.3,1,0.5,1.9,0.6,3c0,1.1,0.2,2.1,0.9,3c2.2,6.4,3.8,13,5.7,19.5c5,17.6,9.9,35.2,14.9,52.8c0.1,0.4,0.3,0.9,0.4,1.3
		c0.4,1.7,1.4,2.1,2.9,1.4c2.3-1,4.7-2.1,7.2-2.8c0.5-0.1,0.9-0.2,1.4-0.2c2,0.5,1.7,2.1,1.7,3.5c-2.7,1.9-6,2.5-9,3.8
		c-1.9,0.8-2.2,1.6-1.7,3.5c5.7,19.9,11.3,39.7,16.8,59.6c1.6,5.7,3.3,11.4,4.8,17.1c0.3,1,0.9,2.1,0.1,3.1c-0.2,0-0.3,0-0.5,0.1
		c-0.2-0.1-0.4-0.2-0.6-0.2c-0.2,0-0.4-0.1-0.5,0C335.3,373.5,335.5,373.6,335.5,373.8z"/>
	<path class="st507" d="M306.4,379.3c-1.8-10.4-3.7-20.9-5.4-31.3c-1.9-11.6-4-23.2-5.9-34.8c-1.2-7.6-2.8-15.2-4.1-22.8
		c-1.7-9.7-3.2-19.4-4.8-29.1c-1.5-9.1-3.2-18.1-4.7-27.2c-1.6-9.1-3.1-18.1-4.6-27.2c-0.9-5.4-2-10.8-3-16.2
		c-1.4-8.2-2.7-16.5-4-24.7c-0.3-1.8-1.5-3.4-0.5-5.3c3.8,12.9,7.6,25.9,11.5,38.8c1.8,6.1,3.6,12.2,5.4,18.3
		c2.4,11.3,3.9,22.7,6,34c2,10.9,3.8,21.8,5.6,32.7c2.1,12.1,4.1,24.3,6.2,36.4c2.8,15.8,5.3,31.6,8.3,47.4c0.4,2.1,0.7,4.2,0.9,6.2
		c0.4,3.3,1.2,3.6-2.7,4.4C309.2,378.8,307.9,380.1,306.4,379.3z"/>
	<path class="st450" d="M310.6,378.9c2.9-0.5,2.5-2.3,2.1-4.4c-1.3-7.1-2.1-14.2-3.6-21.3c-1.1-5.4-1.8-10.8-2.8-16.2
		c-1.7-9-3-18-4.6-27c-1-5.6-2.3-11.1-3.1-16.6c-1-7.8-2.7-15.5-3.9-23.3c-1.6-9.5-3.4-18.9-4.9-28.3c-1.2-7.9-3.1-15.8-3.5-23.8
		c1.4,2.5,1.7,5.4,2.6,8.1c1.8,5.7,3.4,11.6,5.1,17.4c2,7,4.2,13.9,6.2,20.9c2.4,8.3,4.7,16.7,6.9,25.1c0.6,2.2,1.5,4.4,1.8,6.7
		c1.5,7.4,2.8,14.9,4.1,22.4c2.3,12.8,4.4,25.6,6.6,38.4c1.1,6.6,2.2,13.2,3.4,19.8c-3.9,0.9-7.9,1.8-11.8,2.7
		C310.8,379.2,310.7,379.1,310.6,378.9z"/>
	<path class="st508" d="M322.9,376.6c-0.5-0.2-1.2,0.2-1.2-0.9c-0.1-4.4-1.3-8.7-2-13c-0.9-6.1-2-12.2-3.1-18.3
		c-0.9-5.1-1.9-10.2-2.7-15.3c-1.3-7.7-2.5-15.4-3.8-23.1c-0.4-2.4-0.9-4.7-1.4-7c-0.2-1-0.4-2,0-2.9c1.6,3.9,2.4,8,3.6,12
		c1.5,5.1,2.8,10.3,4.2,15.4c2,7.2,3.8,14.4,5.8,21.5c2.4,8.7,4.8,17.3,7.1,26c0.4,1.4,1.6,3.1-1,3.8c0,0,0.4,0.2,0.7,0.3
		C327.1,376,325,376.3,322.9,376.6z"/>
	<path class="st426" d="M281.5,128.4c-3.5,0.7-6.8,2-10.3,3c-1.2,0.4-2.5,0.9-2.8-1.2c0.5-0.3,0.9-0.6,1.4-0.9
		c2.9-1.3,5.8-2.8,8.9-3.7c3.9-1.3,7.9-2.7,11.8-4c2.8-0.9,3.7-0.3,3.2,2.1c0.2,0.2,0.2,0.4,0,0.7c-2.8,1.8-6.1,2.5-9.2,3.5
		C283.6,128.4,282.5,128.1,281.5,128.4z"/>
	<path class="st509" d="M293.7,124.2c0-0.1,0-0.3,0-0.4c0.5,0,1.1,0.1,1.4-0.5c0.9,0.1,1.6-0.4,2.4-0.7c1.1-0.4,2.1-0.5,2.8,0.7
		c0.3,2.5-0.2,3.1-3.9,4.1c-0.2,0-0.5,0-0.7-0.1C294.7,126.5,294.3,125.3,293.7,124.2z"/>
	<path class="st451" d="M95.3,110.7c-0.7,0.5-1.6,0.4-2.4,0.4C93.6,110.4,94.5,110.8,95.3,110.7z"/>
	<path class="st510" d="M288.1,73.7c1.8-1,3.8-0.2,5.6-0.5c6.5,0,6.3,0.1,8.1,6.2c2.1,7.3,4.6,14.4,6.9,21.6c1,3.2,2.1,6.3,2.9,9.5
		c0.6,2.4,1.2,4.6,4.5,4.4c-1.2,0-2.5,0-3.7,0c-1.9,0.3-3.9,0.2-5.8,0.5c-1.2-0.6-2.8,0.1-3.9-1c-3.6,0.1-3.8-2.7-4.5-5.2
		C294.8,97.4,291.5,85.5,288.1,73.7z"/>
	<path class="st511" d="M306.4,114.9c2,0,4,0,6,0.1c0,0.1,0.1,0.3,0.1,0.4c-1.2,0-2.5,0-4.1,0c1.4,0.9,2.8,0.8,3.8,0.8
		c2.2,0,2.6,1.2,3.1,2.8c2,6.4,4.1,12.8,6.1,19.2c0.5,1.5,1,2.9,1.5,4.4c0.5,1.5,0.4,2.7-0.4,4.3c-0.8,1.6-0.4,4,0.3,5.9
		c0.5,0.5,0.6,1.1,0.5,1.7c-1.1,5.6-1.5,11.2-3,16.7c-0.1,0.4-0.3,0.7-0.5,1.1c-1.6,0.4-1.8-0.9-1.5-1.7c1.3-3.2-0.1-6-1-8.8
		c-4.6-14.3-9.1-28.7-13.6-43.1c-0.6-1.9-1.5-2.7-3.4-2.3c-1-1.8,0-2,1.4-1.8C303.2,115,304.9,114.3,306.4,114.9z"/>
	<path class="st454" d="M76.1,114c-0.7,0.6-1.6,0.4-2.4,0.5C74.4,113.6,75.3,114.1,76.1,114z"/>
	<path class="st512" d="M300.8,127.5c1.5,0.5,1.5,1.9,1.8,3c3,10.5,5.9,21,9,31.4c1.8,6.1,3.4,12.3,5.2,18.4
		c0.1,0.3,0.2,0.6,0.6,0.6c0.5-0.8,0.1-1.6,0.2-2.4c0.8-0.1,1,0.6,1.3,1.1c1.1,5,2.7,9.8,4.1,14.8c0.3,1.2,0.9,2.3,0.4,3.6
		c-0.9,0.7-1.6,0-2.3-0.5c-0.3-1.3-0.8-2.2-2.4-2.1c-1.5,0.1-2.1-1-2.6-2.2c-1.6-3.8-1.8-7.9-3.1-11.7c-2.3-6.9-4-14.1-6-21.1
		c-0.4-1.3-0.1-2.6-0.7-3.8c0,0.3,0.2,0.7,0.3,1.2c0.1,0.4,0.1,0.8-0.3,1c-0.4,0.2-0.8-0.1-1.1-0.3c-0.7-0.5-1.3-1.3-1.3-2.1
		c0.1-2.9-1.4-5.3-2.4-7.9c-1.9-5-2.7-10.2-4.5-15.2c-0.2-0.7-0.2-1.4-0.4-2c-0.3-1.1-1-2.3,0.1-3.2
		C297.8,127.1,299.3,126.7,300.8,127.5z"/>
	<path class="st513" d="M318.5,179.5c-0.3-0.3-0.6-0.6-0.9-1c-0.6-4.1-2.1-7.9-3.2-11.9c-4.7-16.5-9.4-32.9-14.1-49.4
		c-0.1-0.3-0.1-0.6-0.1-0.9c2.1-1.6,3-1.3,3.7,1.2c2.7,8.7,5.4,17.3,8.2,25.9c2.4,7.5,4.8,15.1,7.1,22.6c0.4,1.4,0.7,2.9-0.4,4.2
		c-0.7,0.9,0,1.6,0.6,2.2C320.5,175,319.8,177.3,318.5,179.5z"/>
	<path class="st514" d="M300.8,127.5c-0.1,0-0.2,0-0.2,0c-1.2,0.3-2.8,0-3.6,1c-0.9,1.1,0.5,2.3,0.5,3.4c0,0.5,0,1.1,0,1.6
		c-0.1,0-0.2,0.1-0.3,0.1c-1.9-1.2-1.6-3.3-1.9-5.1c0.1-0.6,0.4-1.1,0.8-1.5c1-0.4,2-0.9,3-1.3c1.2-0.5,1.3-1.4,1.2-2.5
		C300.9,124.7,301.9,126,300.8,127.5z"/>
	<path class="st513" d="M306.4,114.9c-1.6-0.2-3.2,0.5-4.7-0.4c0.3,0,0.6,0,0.9-0.1C303.9,114.6,305.2,114.1,306.4,114.9z"/>
	<path class="st515" d="M394.4,384.5c-0.5,0-1.1-0.1-1.4,0.5c-1.3,0.1-2.6-0.3-3.7,0.8c-0.2,0.2-0.9,0.2-1.1,0c-2-2-4.4-1.2-6.7-0.9
		c-0.7,0.1-1-0.2-1.1-0.8c0.6-0.1,1.4,0.2,1.9-0.5c0.2,0,0.3,0,0.5,0c2.4,0.6,4.8-0.1,7.2,0.4c1.5,0,3,0.1,4.5,0.1
		c0.2,0.1,0.2,0.2,0.2,0.3C394.5,384.4,394.4,384.5,394.4,384.5z"/>
	<path class="st516" d="M440.3,132.2c-1.6,4.5-2.1,9.3-3.3,14c-0.1,0.4-0.3,0.7-0.4,1c-0.6,0.5,0.1,1.4-0.7,1.9
		c-0.8-0.6-0.7-1.4-0.5-2.2c0.9-3.9,1.6-7.8,2.5-11.7c0.2-0.7,0.1-1.4,0.1-2.1c-0.1-2.2,0.5-4.4,1-6.5c1.5-4.9,2.4-10,3.3-15
		c1-5,2-10,3-14.9c1.3-5.8,2.7-11.6,4-17.4c1-0.3,1.7-1.1,2.3-1.9c-0.7,5.8-2.3,11.4-3.4,17c-2.5,12-5.2,24-7.7,36.1
		C440.2,131.1,440.3,131.6,440.3,132.2z"/>
	<path class="st517" d="M423.9,215.5c1.9,0.3,3.8-0.1,5.6-0.6c6.7-1.9,13.5-1.6,20.3-0.6c1.5,0.2,2.9,0.5,4.4,0.6
		c1,0.1,1.6,0.4,2.1,1.2c0.1,0.8-0.5,1.2-0.9,1.7c-0.4,0.9-1.1,1-1.9,0.5c-8.5-1.8-17-2.6-25.5,0.1c-1.5,0.5-2.9,0.4-4.1-0.9
		c-0.3,0.6-0.5,1.2-0.8,1.7c-0.6-0.5-0.7-1.3-0.9-1.9c-0.1-0.6-0.1-1.2,0.6-1.5C423.4,216.9,423.2,214.9,423.9,215.5z"/>
	<path class="st518" d="M460.4,224.9c-1.6-1.3-3.1-2.5-4.7-3.8c-0.3-0.3-0.6-0.6-1-0.9c0.4-0.7,0.2-1.8,1.4-1.9
		c0.5,0.5,0.9,0.9,1.4,1.4C458,221.7,460,222.9,460.4,224.9z"/>
	<path class="st519" d="M456.2,218.3c-0.8,0.4-0.1,1.9-1.4,1.9c-0.7-0.4-1.3-1-1.4-1.8c0.6-0.2,1.3-0.3,1.9-0.5
		C455.6,217.9,456,217.9,456.2,218.3z"/>
	<path class="st457" d="M373.3,383.1c2.2,0,4.5-0.2,6.7,0.4C377.8,383.4,375.5,384,373.3,383.1z"/>
	<path class="st520" d="M58.3,297.9c0.4-0.2,0.5-0.6,0.5-0.9c1.1,2.2,1.2,4.7,1.8,7C59.2,302.1,58.9,299.9,58.3,297.9z"/>
	<path class="st521" d="M150.5,417.2c1.8-0.8,3.6-1,6.1-0.9c-2,0.7-3.6,1.2-5.2,1.3C151.2,417.4,150.7,417.6,150.5,417.2z"/>
	<path class="st522" d="M150.5,417.2c0.4,0,0.7,0.1,0.9,0.5c-1.6,0.3-3.1,0.6-4.7,0.9c-0.2-0.4-0.6-0.4-0.9-0.5
		C147.3,417.5,148.8,417.2,150.5,417.2z"/>
	<path class="st475" d="M115.4,434.1c-7,2.3-14,4.5-21,6.8c-1.2,0.4-2.4,0.4-4.2-0.1c3.9-1.4,7.2-2.6,10.6-3.7
		c13.3-4.4,26.7-8.8,40.2-12.5c1-0.3,2.1-0.4,3-1.2c4.3-0.5,8.5-2,12.7-3.1c12.1-3.1,24.3-5.8,36.5-8.6c10.1-2.3,20.3-4.7,30.4-7
		c9.9-2.3,20.1-3.9,29.6-7.2c13.7-4.8,28.2-6.9,41.8-11.8c0.4-0.1,0.8-0.1,1.2-0.2c0.5-0.2,1-0.4,0.9,0.5c-3.8,1.2-7.5,2.8-10.9,4.7
		c-1.7,1-3.6,0.9-5.4,1.1c-4.3,0.6-8.2,2.5-12.3,3.5c-18.7,4.9-37.5,9.4-56.3,13.9c-20.2,4.8-40.5,8.9-60.5,14.2
		C139.4,426.6,127.2,430,115.4,434.1z"/>
	<path class="st523" d="M329.4,378.7c-7.2,1.8-14.4,3.6-21.5,5.3c0-0.2-0.1-0.4-0.1-0.5C314.8,381.3,322,379.6,329.4,378.7z"/>
	<path class="st524" d="M316.2,379.3c3.9-0.9,7.8-1.9,11.7-2.8c0.4,0.5,1,0,1.4,0.5c-3.9,0.9-7.8,1.9-11.6,2.8
		C317.2,379.9,316.6,379.9,316.2,379.3z"/>
	<path class="st524" d="M303.6,383.1c3.4-1.7,7.3-1.9,10.8-3.3c0.2,0,0.5-0.1,0.7,0.1c0.8,0.5-0.1,0.6-0.3,0.6
		c-2.1,0.6-4.2,1.2-6.3,1.8c-1.5,0.4-3,0.8-4.5,1.3C303.9,383.4,303.6,383.4,303.6,383.1z"/>
	<path class="st525" d="M329.3,377c-0.5,0-1.1,0.1-1.4-0.5c2.3-0.5,4.7-0.9,7-1.4c0.3,0.5,0.9,0.4,1.4,0.5
		C334.1,376.4,331.7,376.7,329.3,377z"/>
	<path class="st526" d="M303.6,383.1c0.2,0.2,0.3,0.3,0.5,0.5c-2.3,0.8-4.7,1.6-7,2.3c-0.2-0.4-0.6-0.4-0.9-0.5
		C298.4,384.2,301.1,383.8,303.6,383.1z"/>
	<path class="st527" d="M318.5,179.5c0.3-2.3,0.6-4.7,1-7c1-5.8,2-11.6,3-17.4c0.1-0.8,0.2-1.5,0.2-2.3c-0.2-1.7,0.5-3.2,1-4.7
		c2.2,8.4,5.2,16.5,7.7,24.8c1.6,5.6,3.5,11.1,5.3,16.6c2,6.1,3.8,12.3,5.8,18.4c2.6,8,5.2,16.1,7.7,24.1c2,6.2,3.9,12.4,5.8,18.6
		c2.9,9.1,5.8,18.1,8.6,27.2c2.6,8.3,5.1,16.7,7.8,25.1c3.4,10.8,7.1,21.6,10.4,32.5c1.3,4.3,3.1,8.6,3.6,13.2
		c0.2,2.3-1.2,4.3-0.9,6.6c-0.2,3.7-1.4,7.2-1.9,10.8c-0.3,2.7-0.5,2.7,2.2,3.4c0.4,0.1,0.8,0.1,1.1,0.4c0.5,0,1.1,0.1,1.4-0.5
		c0.7-0.4,1.6,0.1,2.3-0.5c0.6-0.4,1.2-0.8,1.9-0.7c3.2,2.1,6.9,1.6,10.4,2c0.3,0,0.6,0,0.9,0.1c0.7,0.1,1.6,0.1,1.6,0.9
		c0,0.8-1,0.8-1.7,0.8c-1.2,0.1-2.5,0-3.7,0c-0.4,0-0.8-0.1-1.2-0.2c-2.2-0.5-4.4-0.2-6.6-0.2c-5.1,0.3-10.3-0.6-15.4-0.5
		c-0.8,0-1.6-0.1-2.2-0.7c-0.5-0.1-1.1,0-1.5-0.4c0.5,0,1-0.1,1.6-0.1c1-0.5,2.2,0.2,3.2-0.4c-1.7-5.4-3.4-10.8-5.1-16.1
		c-3.5-11-6.9-22-10.4-33c-2-6.3-4.1-12.5-6.1-18.8c-3-9.5-5.9-19.1-8.9-28.6c-3.5-11-7.1-22-10.5-33c-3.2-10.1-6.3-20.2-9.5-30.3
		c-0.2-0.6-0.4-1.1-0.6-1.7c0,0-0.2,0-0.2,0.1c-0.1,0.1-0.1,0.3-0.1,0.4c-1.2-0.1-1.2-1.1-1.4-1.8c-0.6-2.1-1.2-4.2-1.7-6.3
		c-0.2-0.6-0.4-1.1-0.1-1.7c-1.1-5.4-3-10.6-4.3-16C318.7,181.3,318.5,180.4,318.5,179.5z"/>
	<path class="st528" d="M323.7,199.6c1.3,2.7,1.3,5.8,2.8,8.5c0.6,4.2,2.1,8.1,3.2,12.1c5.6,20,11.3,39.9,17,59.8
		c0.8,2.8,1.8,5.6,2.3,8.5c-1,0.3-1.4,0.6-1,1.9c3.9,13.4,7.4,26.9,11,40.3c1.8,6.6,3.8,13.2,5.4,19.8c0.8,3.3,1.5,6.5,1.2,9.9
		c-0.1,0.9,0,1.9-1.1,2.4c-0.2,0-0.3,0-0.5,0c-0.8-0.5-1-1.4-1-2.3c1.1-5.2-0.8-9.9-2-14.8c-1.1-4.4-2.7-8.6-3.6-13
		c-0.6-3-2.1-5.7-2.8-8.6c-3.1-12.3-6.8-24.4-10-36.7c-0.1-0.2-0.1-0.5,0-0.7c0.1-0.3,0.3-0.5,0.6-0.8c0.6-1.4-0.3-2.5-0.7-3.7
		c-0.1-0.3-0.2-0.6-0.2-0.9c-0.2-1.4,0.1-3-1.6-3.7c-0.2-0.1-0.4-0.2-0.6-0.3c-0.8-0.6-1.1-1.5-1.3-2.4c-1-4.8-2.9-9.3-3.9-14.1
		c-0.4-2.2-2.2-3.7-2.7-5.9c-1-4.4-2.2-8.9-3.9-13.1c-1.6-4-2.6-8.1-3.7-12.2c-2-7-4.3-13.9-6-21c-0.2-0.8-0.3-1.5-0.5-2.3
		c-0.5-1.8-0.2-2.9,1.9-3c1.2-0.1,1.4-0.7,1-1.7c-0.2-0.4-0.2-0.9-0.2-1.4C322.9,200,323,199.5,323.7,199.6z"/>
	<path class="st529" d="M364.4,363c1.2-4,0.5-8-0.6-11.9c-2.9-10.7-5.8-21.5-8.7-32.2c-2.6-9.5-5.2-18.9-7.7-28.4
		c-0.3-1.1-0.4-2.3-0.6-3.5c1.3-0.2,0.5,2.4,2.2,1.6c0,0,0,0,0,0c0.2,3.7,1.7,7,2.6,10.5c2.4,8.7,5,17.3,7.4,26
		c0.2,0.7,0.3,1.4,0.8,1.9c1.9,4.5,2.7,9.3,4.1,13.9c0.6,1.9,1,3.9,1.5,5.8c-0.2,2.4,1,4.5,1.5,6.7c0.6,2.8,1.5,5.5,2.3,8.2
		c0.3,1,1,2.1-0.3,2.9c-1.3,0.8-2.7,0.7-3.8-0.5C364.9,363.6,364.7,363.3,364.4,363z"/>
	<path class="st528" d="M359.8,326.9c-2-1.1-1.6-3.3-2.1-5c-2.6-8.5-4.9-17.1-7.3-25.7c-0.5-1.6-0.9-3.3-1.6-4.8
		c-0.5-1.1,0.1-2,0.2-2.9c2.2,5.9,3.5,12.2,5.3,18.2c1.8,6,3.4,12.1,5.1,18.1C359.6,325.5,359.7,326.2,359.8,326.9z"/>
	<path class="st530" d="M378,369c-1,0.8-2.1,0.3-3.2,0.4C375.8,368.6,376.9,369.2,378,369z"/>
	<path class="st531" d="M345.9,371.5c-1.7,0.6-3.5,1-5.4,1.2c-1.2-0.2-1.5-1.2-1.9-2.1c-1.8-4.8-3-9.8-4.5-14.7
		c-4.7-15.4-9.2-30.9-13.8-46.3c-1.3-4.4-2.6-8.8-3.9-13.2c-1-3.4-0.6-4.1,2.8-5c5.3-1.4,10.3-3.6,15.8-4c0.8-0.1,1.7-0.4,2.4,0.4
		c1.2,4.7,1.9,9.5,2.7,14.2c2.1,12.2,4.2,24.4,6.3,36.6c1.6,9.4,3.2,18.7,4.8,28.1c0.2,1.1,0.3,2.2-0.2,3.2c-1.6,1-3.5,0.8-5.2,1.4
		c-0.1,0-0.2,0-0.2,0C345.4,371.4,346,371.3,345.9,371.5z"/>
	<path class="st532" d="M350.8,370c0.2-4.2-1.1-8.1-1.7-12.2c-1.1-7.8-2.4-15.6-4-23.3c-1.1-5.5-1.7-11.1-3-16.7
		c-1.1-5-1.7-10.1-2.6-15.1c-0.7-4-1.3-8.1-2.1-12.1c-0.2-1-0.2-2-0.3-3c1-1.4,2.7-1.2,4-2c1.4,0.5,0.9,1.7,1,2.6
		c0.4,6.2,2.3,12.2,3.6,18.3c-0.1,4.8,1.3,9.4,2.1,14c1.9,11.7,3.9,23.5,6.1,35.2c0.6,3,0.8,6,1.5,9c0.6,2.9,0.5,2.8,3.4,2.5
		c1-0.1,2.2-0.7,2.7,0.8c-3.1,0.7-6.1,1.3-9.2,2C351.9,370.2,351.4,370.3,350.8,370z"/>
	<path class="st426" d="M341,285.7c-0.5,2.1-2.6,0.9-3.7,1.9c-6.7,0.5-12.9,3.1-19.3,4.7c-1.5,0.4-1.6,1.2-1.2,2.4
		c0.9,3.1,1.8,6.2,2.8,9.3c3.2,10.8,6.5,21.5,9.6,32.3c3.2,10.7,6.3,21.4,9.5,32c0.5,1.5,0.7,3.2,1.9,4.4c-1.3,0.3-2.5,0.6-3.8,0.9
		c-5.3-18.9-10.6-37.7-15.8-56.6c-2.3-8.3-4.7-16.6-7.1-24.9c-0.3-1.1-0.3-1.5,1-1.9c3.6-1.2,7.1-2.7,10.7-4.1
		c0.7-0.8,1.6-0.9,2.5-1.1c3.7-0.7,7.5-1,11.3-1.4c0.4,0,0.8,0.1,1.2,0.3C341.1,284.5,341.5,285,341,285.7z"/>
	<path class="st533" d="M361.6,368c-1.6-1.1-3.2,0-4.7,0.2c-1.3,0.2-1.7-0.1-1.8-1.3c-1.2-7.9-2.5-15.7-4-23.5
		c-1-5.2-1.6-10.5-2.5-15.8c-0.8-5-1.6-9.9-2.6-14.8c-0.4-2.2-0.7-4.3-0.6-6.5c1.7,1.5,2.6,3.5,3.2,5.6c1.9,6.9,3.5,13.9,5.4,20.8
		c2.8,10.3,5.8,20.5,8.4,30.9c0.3,1.2,0.1,2.4,0.4,3.6c0.2,0,0.3,0,0.5,0c0.1,0.1,0.2,0.2,0.1,0.3c0,0.1-0.1,0.2-0.1,0.2
		C362.5,367.8,362.1,367.9,361.6,368z"/>
	<path class="st534" d="M310.6,378.9c0.2,0.1,0.3,0.3,0.5,0.4c-2.5,0.5-4.9,1-7.4,1.5c-0.3,0-0.6-0.1-1-0.1c0.9-1.5,2.7-0.3,3.7-1.4
		C307.8,379.2,309.1,378.6,310.6,378.9z"/>
	<path class="st533" d="M350.8,370c0.5,0,1.1,0,1.6,0.1c-2.1,0.7-4.3,1.2-6.5,1.4c-0.4-0.1-0.7-0.1-1.1-0.2
		C346.8,370.8,348.7,369.8,350.8,370z"/>
	<path class="st535" d="M363,367.7c0-0.2,0-0.3,0-0.5c0.9-0.7,1.8-0.7,2.8-0.1C364.9,367.3,364,367.5,363,367.7z"/>
	<path class="st536" d="M335.5,373.8c-0.4-0.1-0.7-0.1-1.4-0.2c1-0.4,1.6-0.5,2.2,0.1C336,373.7,335.8,373.7,335.5,373.8z"/>
	<path class="st537" d="M302.2,389.2c-1.8,0.9-3.7,1-5.7,0.9c1.6-0.5,3.2-0.9,4.8-1.4C301.5,389,302,388.8,302.2,389.2z"/>
	<path class="st538" d="M302.2,389.2c-0.4,0-0.7-0.1-0.9-0.5c1.2-0.3,2.5-0.6,3.7-0.9c0.2,0.4,0.6,0.4,0.9,0.5
		C304.8,388.9,303.5,389.2,302.2,389.2z"/>
	<path class="st539" d="M373.4,375.2c0.3-0.8,0.6-1.6,0.9-2.4c1,0.3,1.9,0.7,2.9,0.7c5.7-0.3,11.4,0.3,17.1,0.5c8,0.3,16,0.6,24,1.5
		c1.1,0.1,2.4,0.1,3.3,1c0.6,0.7,2.2,0.6,1.8,2c-0.4,1.4-1.6,1.2-2.7,1.2c-13.3,0.9-26.6,0.3-39.9,0.5c-2.8,0-5.5-0.8-8.3-0.5
		c0.1-1.2,0.3-2.3,0.9-3.3c3.4,1.2,6.9,1.1,10.4,1.1c8.6,0.1,17.3,0.1,25.9,0.4c-2.9-0.1-5.9-0.3-8.8-0.2c-6.8,0-13.5-0.6-20.3-0.6
		c-2.3,0-4.8,0.1-7-1.1C373.4,375.8,373.4,375.5,373.4,375.2z"/>
	<path class="st438" d="M421.5,376.5c-8-0.9-16-1.2-24.1-1.8c-0.4,0-0.8-0.1-1.2-0.1c-6.7,0.2-13.3-0.8-20-0.5c-1,0.1-2.1,0.2-2-1.4
		c0.2-0.9,0.3-1.9,0.5-2.8c5.2-0.3,10.3,0.6,15.5,0.5c0.7,0,1.4,0,2.1,0c2.2,0.6,4.5-0.2,6.7,0.4c0.3,0,0.5,0,0.8,0
		c2.1,0.3,4.3,0.4,6.4-0.1c0.8-0.2,1.7-0.1,2.5,0c2.2,0.7,4.6,0.2,6.8,0.4c0.4,0,0.8,0.1,1.1,0.1c1.5,0.5,3,0.5,4.5,0.5
		c0.1,0,0.2,0,0.4,0c0.2-0.1,0.3-0.3,0.5-0.4c0.4,0,0.9,0,0.8,0.5c-0.6,2.3,1.2,3.2,2.5,4.4C424.1,376.9,422.8,376.3,421.5,376.5z"
		/>
	<path class="st540" d="M371.9,382.1c0.1-0.7-0.1-1.4,0.5-1.9c0.3,1.4,1.4,1,2.3,1c8.3,0,16.5,0.1,24.8,0c3,0,6,0.5,9,1
		C396.2,382.1,384,382.1,371.9,382.1z"/>
	<path class="st457" d="M389.9,384c-2.4-0.1-4.8,0.5-7.2-0.4C385.1,383.6,387.5,383.3,389.9,384z"/>
	<path class="st457" d="M394.4,384.5c0-0.1,0-0.3,0-0.4c1.6,0,3.2-0.2,4.8,0.4C397.6,384.4,396,384.5,394.4,384.5z"/>
	<path class="st541" d="M373.4,376.1c9.2,0.4,18.5,0.8,27.7,1c2.9,0.1,5.9,0.3,8.8,0.4c0.6,0,1.4-0.3,1.9,0.6
		c-0.6,0.5-1.3,0.3-1.9,0.3c-9.2,0-18.4,0-27.6,0c-2.6,0-5.1-0.7-7.7-0.4c-1.1,0.1-1.4-0.5-1.3-1.4
		C373.3,376.3,373.3,376.2,373.4,376.1z"/>
	<path class="st535" d="M362.6,367.2c-1.5-5.4-2.9-10.8-4.4-16.2c-2.1-7.4-4.3-14.8-6.3-22.2c-1.4-5.2-2.7-10.5-3.8-15.7
		c-0.5-2.5-2.3-4.3-2.9-6.6c-1.4-4-1.9-8.2-3.1-12.3c-0.6-2.1-0.4-4.7-0.5-7c0-0.6,0-1-0.6-1.3c-0.2-0.5-0.3-0.9-0.5-1.4
		c0.7-1.4,1.9-1.1,3.1-0.9c1.6,0.5,2.1,1.7,2,3.2c-0.3,0-0.6,0-0.9,0c-1.9,0.8-1.6,2.1-1.1,3.7c3.6,12.2,7.1,24.4,10.6,36.6
		c2.7,9.4,5.6,18.8,8.2,28.3c0.5,1.8,0.8,3.6,1,5.4c0.2,0.8,0.3,1.6,0.5,2.3C364.5,364.7,362.9,365.7,362.6,367.2z"/>
	<path class="st542" d="M437.9,133.1c0.9,0.8,0.4,1.7,0.2,2.6c-0.9,4-1.7,8-2.5,11.9c-0.1,0.3,0,0.6,0,1c0.7-0.3,0.3-1.2,0.9-1.4
		c-0.5,4.9-1.9,9.7-2.8,14.5c-2.8,17.5-7.4,34.6-10.9,51.9c-0.8,3.8-1.5,7.6-2.5,11.3c-0.2,0.8-0.3,1.7-1,2.3
		c-1.6-0.2-1-1.6-1.5-2.5c0.1-3.9,1.4-7.6,2.1-11.4c0.6-3,1.3-5.9,1.8-8.9c0.2-0.9,0.3-1.9,1.1-2.5c1.1-5,2.2-10,3.3-15
		c3.8-17.8,7.5-35.5,11.3-53.3C437.6,133.5,437.8,133.3,437.9,133.1z"/>
	<path class="st543" d="M422.9,201.9c-1.5,7.3-3,14.5-4.5,21.8c-0.1,0.4-0.1,0.8-0.1,1.2c-0.1,3.3-0.3,6.5-2,9.4
		c-0.2,0.2-0.6-0.3-0.5-0.1c0,0.6-0.1,1.2-0.2,1.8c-0.7,2.6-1.7,2.9-3.8,1c1.2-5.7,2.5-11.4,3.7-17.2c1-4.8,2-9.6,3-14.5
		c0.7-3.6,2-7.2,1.7-10.9c0.8-0.7,0.4-1.6,0.5-2.3c0.3-0.5,0.6-0.9,0.9-1.4c-0.2,1.3-0.3,2.6-0.6,3.8c-0.4,1.5-0.9,2.9,1.4,3.3
		c0.7,0.1,0.5,0.8,0.4,1.3C422.5,200.1,422.1,201.1,422.9,201.9z"/>
	<path class="st544" d="M411.7,237c2.7,1.1,2.7,1.1,3.9-3.8c0.4,0.2,0.2,0.7,0.3,1c0.7,2.4-0.2,4.8-0.7,7.1
		c-2.8,13.8-5.8,27.6-8.8,41.4c-1.9,8.6-3.5,17.3-5.7,25.8c-0.2,0.9-0.4,1.9-1.2,2.5c-0.7-0.6-0.5-1.2-0.2-1.9c0.3-1,0.3-2-0.1-2.9
		c-0.4-1-1.6-2.3,0.8-2.3c0.1,0,0.1-0.1,0.2-0.1c0.7-0.7,1.7-8.4,1-9.3c-0.7-1-0.8-2-0.8-3.1c1.2-5.8,2.5-11.6,3.7-17.5
		c0.9-4.3,1.7-8.6,2.6-13c1.5-7.2,3-14.4,4.5-21.6C411.4,238.6,411.6,237.8,411.7,237z"/>
	<path class="st545" d="M399.5,311c1.8-7.9,3.6-15.8,5.3-23.8c3.4-15.7,6.7-31.3,10-47c0.4-2,0.6-4,1.1-5.9c1.3-3,1.3-6.3,2.3-9.4
		c0.9,0.6,0,1.8,0.9,2.3c0.9,1.1,0.3,2.3,0,3.4c-2.9,12.9-5.6,25.8-8.4,38.8c-3.2,15-6.4,30-9.7,45c-0.3,1.4-0.5,2.8-1.3,4
		c-1.4,0.6-0.9-0.7-1.2-1.2C398.5,315,399.8,313.1,399.5,311z"/>
	<path class="st546" d="M389.2,360.6c-0.9-4.3-1.5-8.6-0.4-13.1c1.3-5.5,2.2-11.2,3.3-16.7c0-0.2,0.3-0.4,0.4-0.6
		c0.2,2,1.2,3.8,1.9,5.6c0.9,1.3,0.2,2.6-0.1,3.8c-1,4.7-2,9.4-3,14.1c-0.2,0.8-0.4,1.7-0.3,2.5
		C390.9,357.9,390.5,359.4,389.2,360.6z"/>
	<path class="st547" d="M390.7,356.4c-0.7-2.1,0.4-4.1,0.7-6.1c0.9-4.9,2-9.7,3-14.5c1.3-5.7,2.5-11.5,3.8-17.2
		c0.1-0.5,0.3-1,0.5-1.5c0.3,0.5,0.6,0.9,0.9,1.4c0.7,0.8,0.4,1.6,0.2,2.4c-2.3,10.6-4.6,21.2-6.9,31.8c-0.3,1.3-0.4,2.6-1.4,3.6
		C391.2,356.5,390.9,356.5,390.7,356.4z"/>
	<path class="st548" d="M391.1,356.4c2.1-7.4,3.4-15,5.1-22.5c1.2-5.1,2.2-10.2,3.3-15.4c2-9.4,4.1-18.8,6.1-28.1
		c3.3-15.1,6.6-30.3,9.8-45.4c1.3-5.9,2.5-11.8,3.7-17.7c2.7-12.4,5.3-24.8,8-37.1c2-9.3,4.1-18.6,6.1-27.8c0-0.2,0.3-0.4,0.4-0.6
		c0,0.6,0,1.2,0,1.9c0.4,3.2-0.8,6.1-1.4,9.1c-1,5.4-2.3,10.8-3.3,16.2c-1.8,8.2-3.5,16.3-5.1,24.5c-0.2,0.9-0.4,1.8-1,2.6
		c-0.5,0.4-0.4,0.9-0.5,1.4c0.3,3.5-0.9,6.7-1.6,10c-4.5,21.2-8.8,42.4-13.4,63.6c-0.1,0.4-0.1,0.8-0.2,1.1
		c-0.5,3.4-1.5,6.7-2.2,10.1c-2.5,11.7-5.1,23.4-7.4,35.1c-1.7,8.8-3.6,17.5-5.3,26.3c-0.4,1.9-0.9,3.8-1.9,5.5
		c-0.8,0.9-1.6,0.3-2.3,0c0-0.1,0-0.3,0-0.4c0-3.2,1.3-6.1,1.9-9.2C390.3,358.4,390.3,357.2,391.1,356.4z"/>
	<path class="st549" d="M386.9,369.5c-0.2,0-0.5,0-0.7,0c-3.8,0-3.7,0-3.2-3.8c0.5-3.4,1.3-6.6,2-9.9c0.1-0.3,0.3-0.5,0.5-0.8
		c1.3,1.1,1.2,2.5,0.8,4c-0.6,2.1-1.1,4.2-1.3,6.3C384.9,367.1,385.4,368.5,386.9,369.5z"/>
	<path class="st550" d="M391.1,356.4c-1,4.1-1,8.4-2.8,12.2c-1.3-0.9-1-2.1-0.7-3.3c0.5-1.6,1.1-3.2,1.6-4.7
		c0.5-1.4,0.9-2.8,1.4-4.2C390.8,356.4,391,356.4,391.1,356.4z"/>
	<path class="st551" d="M147.7,412.1c-2.5,0.8-2.9,0.6-3.3-2c-1.1-6.5-2.4-13.1-3.5-19.6c-1.2-7.1-2.3-14.2-3.5-21.2
		c-0.9-5.3-1.9-10.6-2.8-16c-1-5.8-1.6-11.6-2.9-17.3c-1.2-5.4-1.8-10.8-2.8-16.2c-0.4-2.1-0.9-4.2-1.3-6.4c-0.3-1.6,0-2.9,1.8-3.3
		c1.9,2.7,1.5,6.1,2.3,9.1c1,4,1.5,8.2,2.2,12.3c1.2,7.2,2.4,14.3,3.6,21.5c0.9,5.3,1.8,10.5,2.7,15.7c1.3,7.5,2.5,15.1,3.8,22.6
		C145.1,398.3,146.4,405.2,147.7,412.1z"/>
	<path class="st552" d="M428.6,188.8c1-6.5,2.6-13,3.9-19.4c0.4-1.9,0.4-4,1.2-5.8c1.6-4.5,2.1-9.3,3.3-13.9c0.5-1.8,0.6-3.6,1-5.5
		c0.2-1,0.7-1.5,1.9-1.4c5.9,0.3,11.8,0.4,17.7-0.1c3.9-0.4,7.8-0.1,11.7-0.1c-0.3,0.2-0.6,0.3-0.9,0.5c-1.3,0.9-2.8,0.5-4.2,0.6
		c-0.8,0.1-1.7,0-2.5,0.2c-1.3,0.1-2.6-0.1-3.9,0.2c-5.7,0.1-11.5,0-17.2,0c-1.3-0.2-1.5,1.1-2.2,1.7c-1.5,4.8-1.9,9.8-3,14.7
		c-2.1,9.9-4.2,19.9-6.3,29.8c0,0.1-0.2,0.3-0.3,0.4C428.3,190.3,428.9,189.4,428.6,188.8z"/>
	<path class="st553" d="M471.6,144.9c-1.4-0.1-1.5-1.6-2.3-2.3c0.3-0.2,0.6-0.4,1-0.5C471.2,142.7,471.1,143.9,471.6,144.9z"/>
	<path class="st435" d="M398.1,340c1.3-1.2,1-2.9,1.4-4.3c1.1-4.5,2-9.1,3.1-14c2,2.1,2,4.5,2.7,6.6c3.1,9.4,6.2,18.9,9,28.4
		c1.5,4.9,3.5,9.6,4.4,14.7c-1,1-2.1-0.1-3.1,0c-1.9,0.1-3.9,0.1-5.8,0c-1.3-0.1-2.4-0.4-2.8-1.9c-2.8-9.3-5.8-18.6-8.8-27.8
		C398,341.1,397.9,340.6,398.1,340z"/>
	<path class="st449" d="M398.1,340c2.5,5.8,4,12,6,18c1.2,3.8,2.8,7.5,3.5,11.5c0.2,0.9,0.8,1.4,1.9,1.4c3.1,0,6.2-0.2,9.3,0.4
		c0.9,0.2,2-0.4,2.8,0.5c0,0,0,0,0,0c-1.6,0.4-3.2,0.3-4.9,0c-0.3,0-0.5,0-0.8,0c-2.4-0.6-4.8,0.1-7.2-0.4c-3,0-6,0.1-8.9-0.5
		c1.8,0,3.5,0,5.3,0c-4.4-1.3-9.3,0.5-13.1-3c-0.5-0.6-0.4-1.2-0.1-1.8c2.6-7.8,3.5-15.9,4.9-23.9c0.1-0.5,0.1-0.9,0.4-1.3
		c1.2-0.1,0.5,0.9,0.8,1.4c0-0.6,0.1-1.2-0.5-1.7c-0.2-0.7-0.4-1.5,0.7-1.7C398.1,339.3,398.1,339.7,398.1,340z"/>
	<path class="st554" d="M404.7,302.1c0.8-3.3,1.2-6.7,2.3-9.9c0.4,0.2,0.1,0.7,0.5,1c-0.1,1.2,0.6,1.5,1.6,1.4
		c1.7-0.2,3.4-0.3,5.1-0.5c7.3-1,14.1,1.5,21.2,2.4c0.8,0.1,1.6,0.6,1.4,1.5c-0.1,1-0.8,1.8-1.9,1.7c-1.8-0.2-3.7-0.5-5.5-0.9
		c-6.6-1.4-13.3-2.1-20.1-1.2c-2.6,0.3-3,1.1-3.2,3.1c-0.1,1-0.5,1.9-0.8,2.9C404.7,303.2,405.2,302.5,404.7,302.1z"/>
	<path class="st555" d="M407.5,293.2c-0.4-0.2-0.4-0.6-0.5-1c0.7-5.9,2.2-11.6,3.4-17.3c2.7-13.4,5.5-26.7,8.3-40
		c1.2-5.8,2.5-11.7,3.7-17.5c0.7,0.5,0.4,1.3,0.5,2c-0.7,5.6-2.2,11-3.3,16.4c-3.9,18.6-7.8,37.1-11.7,55.6
		C407.8,292,407.6,292.6,407.5,293.2z"/>
	<path class="st556" d="M404.7,302.1c0.6,0.4,0.4,1,0.5,1.5c-0.8,6-2.5,11.8-3.5,17.7c-1.1,5.9-2.9,11.7-3.6,17.7
		c-0.6,0.5-0.4,1.2-0.5,1.9l0,0c-1.2,3.1-1.1,6.5-1.6,9.8c-0.9,5.9-2.4,11.6-4.1,17.3c-0.4,0.3-0.9,0.7-1.3,1
		c-0.2-0.1-0.4-0.2-0.6-0.3c2.6-5.3,2.9-11.1,4.2-16.7c3-13.3,5.6-26.6,8.4-39.9C403.4,308.8,404,305.4,404.7,302.1z"/>
	<path class="st557" d="M438.5,145.8c0-1,0.1-2,1.2-2.4c6.1,0.4,12.2,0.4,18.4,0c1.2,0,2.4,0,3.7,0c2.2-0.4,4.3-0.3,6.5,0
		c0.3,0.1,0.8,0.1,0.5,0.4c-0.5,0.5-1.2,0.5-2,0.5c-8.1,0-16.3,0.8-24.4,0.4c-2.2-0.1-3.3,0.5-3.3,2.9
		C438.9,147.1,438.7,146.5,438.5,145.8z"/>
	<path class="st555" d="M428.6,188.8c0.7,0.5,0.4,1.3,0.5,1.9c-1.4,8.3-3.3,16.5-5.2,24.8c-0.2,0.3-0.5,0.7-0.7,1
		c-0.1-0.2-0.2-0.4-0.2-0.6c1.2-5.9,2.3-11.8,3.5-17.7C427.1,195.1,427.5,191.9,428.6,188.8z"/>
	<path class="st498" d="M468.3,143.4c-2.2,0-4.3,0-6.5,0c2.2-1,4.4-0.3,6.6-0.4C468.4,143.1,468.3,143.3,468.3,143.4z"/>
	<path class="st447" d="M296.1,127.1c0,0.5,0.1,1.1-0.5,1.4c-0.2,0.3-0.4,0.6-0.8,0.8c-2.7,1.4-2.8,1.4-2.3,4.4
		c2.1,12,4.1,23.9,6.2,35.9c1.7,9.7,3.5,19.4,4.8,29.2c-0.1,0.8-0.7,1.4-1.4,1.7c-2.8,1.4-5.7,2.6-8.5,4.1c-0.5,0.3-1.2,0.5-1.7-0.1
		c-1.3-3.7-1.4-7.6-2.1-11.4c-2.3-12.3-4.2-24.7-6.5-37c-1.4-7.8-2.7-15.6-3.9-23.5c1-0.4,1.9-0.9,2.9-1.3c0.5-0.6,1.2-0.8,1.9-1
		c2.9-0.7,5.7-1.8,8.6-2.8c0.9-0.3,1.7-0.8,2.7-0.4C295.8,127,295.9,127,296.1,127.1z"/>
	<path class="st450" d="M279.6,132.6c0.8,0,0.8,0.6,0.9,1.1c1.1,7.1,2.3,14.2,3.5,21.2c1.2,7.2,2.6,14.3,3.8,21.4
		c1.3,7.3,2.4,14.6,3.6,21.9c0.3,2.1,1,4.2,0.9,6.4c-1.4,1.7-2,0.6-2.5-0.8c-1.1-3.2-1.9-6.6-2.8-9.8c-3.2-10.8-6.1-21.6-9.4-32.3
		c-0.5-1.8-0.5-3.7-1.7-5.2c-1.9-6.7-3.8-13.4-5.8-20.1c-0.2-0.6-0.4-1.2,0.6-1.4C273.6,134.3,276.6,133.5,279.6,132.6z"/>
	<path class="st426" d="M324.1,283.4c-3.1,0.5-5.9,2-8.7,3.2c-2.6,1.1-2.8,0.9-3.5-1.7c-6.9-24.4-13.8-48.8-20.6-73.1
		c-0.1-0.3-0.2-0.6-0.4-0.9c-0.4-0.7,0-1.1,0.6-1.1c2.7,0.3,4.6-1.5,6.7-2.7c1.3-0.8,2.7-1.5,4.1-2.2c0.2-0.1,0.4-0.2,0.7-0.2
		c0.9-0.2,1.7-0.7,2.6-1c3.2-1.2,6.6-1.6,10-2.3c0.4,0,0.8,0,1.1,0.1c0.3,0.1,0.5,0.2,0.7,0.3c1.1,2.1,0.8,3-1.4,3.5
		c-3.7,0.9-7.2,2.3-10.7,3.7c-3,1.5-6.2,2.5-9.3,3.9c-1.6,0.7-2,1.6-1.5,3.3c3.8,12.8,7.4,25.7,11.2,38.6c2.4,8.4,5,16.7,7.3,25.1
		c0.1,0.5,0.3,1.1,0.4,1.6c0.7,2.3,0.9,2.4,3.1,1.3c0.5-0.2,1-0.5,1.5-0.7c4.7-1.7,9.4-3.5,14.4-4.4c1.4-0.3,1.8-1.2,2.4-2.2
		c0.8-0.6,1.5-0.1,2,0.5c0.7,0.9,1.7,1.3,2.6,1.7c0.9,0.9,1,1.8,0.5,2.9c-0.3,0.5-0.8,0.7-1.3,0.9c-4.2,1-8.4,1.2-12.6,1.8
		C325.3,283.4,324.7,282.9,324.1,283.4z"/>
	<path class="st558" d="M275.9,156.6c1,0.4,1.2,1.3,1.5,2.2c3.4,11.8,6.9,23.6,10.3,35.4c0.9,3.3,2,6.5,2.8,9.8
		c0.4,1.6,1,1.2,1.9,0.8c3.3-1.6,6.5-3.2,9.8-4.7c0.4-0.2,0.8-0.5,1-0.9c3.6-2.5,7.8-3.6,12-4.3c2.6,0.6,2.9,1.2,1.8,3.8
		c-0.1,0.2-0.3,0.4-0.5,0.5c-1,0.4-2.1,0.2-3.1,0.6c-3,0.6-6,1.3-8.9,2.2c-0.9,0.2-1.7,0.5-2.5,0.9c-0.4,0.2-0.8,0.4-1.2,0.6
		c-3.1,1.2-5.6,3.6-8.8,4.5c-0.6,0.2-1.2,0.8-1.9,0.1c-2.2-8-4.4-16-6.6-24C280.9,174.8,278.4,165.7,275.9,156.6z"/>
	<path class="st498" d="M290,208c3.1-0.7,5.6-2.8,8.4-4.2c0.8-0.4,1.5-0.7,2.3-1c1.9-0.3,1.7,1.2,1.9,2.3c-2.6,1.6-5.3,3.1-7.9,4.7
		c-0.9,0.5-1.9,0.6-2.9,0.4c-0.6-0.2-0.9-0.1-0.9,0.5C290,210.1,289.9,209,290,208z"/>
	<path class="st559" d="M284.4,130.8c-0.6,0.2-1.2,0.3-1.8,0.5c-0.7-0.8,0.3-2.2-1-2.9c0.8-0.6,1.8-0.9,2.8-0.9
		c0.9-0.5,1.1,0.1,1.1,0.7C285.5,129.3,285.8,130.4,284.4,130.8z"/>
	<path class="st560" d="M324.1,283.4c0.4-0.5,0.9-0.4,1.4-0.5c2.2-0.3,2.4-0.1,2.3,2.8c-0.8,0.2-1.6,0.3-2.3,0.5
		C324.7,285.4,325.3,284,324.1,283.4z"/>
	<path class="st561" d="M284.4,130.8c0.7-1.1,1-2.2,0-3.3c3.1-1.1,6.2-2.2,9.4-3.3c1.4,0.4,1.5,1.7,1.9,2.8
		C291.9,128.5,288.2,129.9,284.4,130.8z"/>
	<path class="st514" d="M316.7,198.6c-0.1-1.2,1.6-3.3-1.4-3.2c-1.6-2.4-1.9-5.2-2.8-7.9c-0.9-2.8-1.4-5.8-2.5-8.5
		c-2-4.9-3.8-9.8-5.1-14.9c-0.9-3.5-1.9-7.1-2.8-10.6c-1.4-5.2-3-10.4-4.4-15.7c-0.4-1.4-1.2-2.8-0.1-4.2c0,0,0,0,0,0
		c1.9,3.8,2.3,8.1,3.8,12.1c0.7,2.1,0.8,4.4,2.7,6c0.8,0.6,0.2,1.7,0.2,2.6c0,1.7,0.1,3.3,2,4.3c0.3-1.3-1-2.3,0-3.8
		c0.7,2.6,1.5,4.9,2.1,7.3c1.5,6,3,11.9,5,17.7c1.1,3.4,1.7,7,2.5,10.5c0.3,1.3,0.8,2.5,1.2,3.7c0.5,1.3,1.7,0.9,2.6,0.9
		c1.8,0,2.6,0.5,1.7,2.4C320.2,199.2,318.4,198.9,316.7,198.6z"/>
	<path class="st562" d="M316.7,198.6c1.5-0.7,3.3-0.4,4.7-1.4c0.6,0.3,1.2,0.6,1.9,0.9c0.2,0.5,0.3,0.9,0.5,1.4
		c-0.4,0.2-0.5,0.5-0.5,0.9c-0.3,0.4-0.5,0.8-0.9,0.9c-0.7,0.2-1.5,0.2-2.2,0.4c-0.2,0.1-0.4,0.1-0.6,0.1c-0.8,0.1-1.5,0.3-2.3,0
		c-0.2,0-0.3,0-0.5,0C316.5,200.8,315.9,199.8,316.7,198.6L316.7,198.6z"/>
	<path class="st563" d="M297.5,133.6c0.1,3.5,1.5,6.8,2.3,10.1c1.4,5.7,3.1,11.2,4.7,16.8c1.2,4.3,1.8,8.9,3.7,12.9
		c3.5,7,4.7,14.6,7,21.9c-3.3,0.3-6.3,1.6-9.3,2.8c-0.9,0.4-1.9,0.6-2.9,1c-1.6-8.6-3.1-17.2-4.5-25.8c-1.6-10-3.7-19.9-4.9-29.9
		c-0.4-3.7-1.1-7.5-2.1-11.1c-0.6-2.3,0.2-3.1,2.2-3.4c0.6-0.1,1.2-0.3,1.8-0.5C296.3,130.1,295.7,132.3,297.5,133.6z"/>
	<path class="st449" d="M399.1,370.9c-2.2-0.1-4.5,0.2-6.7-0.4C394.6,370.6,396.9,369.9,399.1,370.9z"/>
	<path class="st456" d="M363.5,360.6c-2-5.8-3.4-11.9-5.2-17.8c-2.7-9.2-5.5-18.4-8.2-27.6c-2.6-8.9-5.1-17.8-7.7-26.8
		c-0.7-2.6,1.2-1.6,2.3-1.8c1.2,4.4,2.5,8.8,3.7,13.3c1.9,6.8,3.9,13.7,5.7,20.5c1,4,2.6,7.8,3.6,11.7c1.5,5.9,3.3,11.7,4.9,17.6
		C363.6,353.4,364.2,356.9,363.5,360.6z"/>
	<path class="st564" d="M319.5,201.5c0.2,0,0.3,0,0.5,0c0.7-0.5,1.6,0.1,2.3-0.5c0.3-0.2,0.6-0.3,0.9-0.5c0.9,3.3,0.9,3.3-3,3.9
		c1.8,6.5,2.9,13.1,5.4,19.3c0.9,2.2,0.6,4.7,1.8,6.8c2,3.6,2,7.7,3.6,11.4c1.4,3.3,2.7,6.9,3.2,10.7c0.4,2.8,2.3,5,3.1,7.7
		c1.1,3.7,2,7.4,3.3,11c0.7,1.9,0.6,4.2,1.8,6c-1,0.8-2,0.7-3.1,0.3c-0.8-0.1-1.1-0.8-1.3-1.5c-2.4-8.8-5.3-17.4-7.5-26.2
		c-2.2-8.6-4.8-17.1-7.4-25.6c-1.8-5.8-3.3-11.7-5.1-17.5C317.5,204.8,317.9,202.9,319.5,201.5z"/>
	<path class="st565" d="M338.7,281c0.2-0.4,0.6-0.5,0.9-0.5c1.2-0.9,2.5-0.7,3.8-0.4c0.7,0.2,0.9,0.9,1.3,1.4c0,0.3,0,0.6,0,0.9
		c0.3,0.9-0.3,1.2-0.9,1.4c-1.1,0.1-2.3-0.2-3.3,0.5c-0.3,0-0.6,0-0.9,0C339.8,283.1,339.7,281.9,338.7,281z"/>
	<path class="st566" d="M343.8,280.6c-1.4,0-2.8,0-4.2,0c0-1,0.1-1.9-0.5-2.8c-0.2-0.1-0.2-0.2-0.2-0.3c0.1-0.1,0.1-0.2,0.2-0.2
		c1.1,0,2.2,0,3.3,0c0.2,0,0.3,0,0.5,0C343.8,278.2,344.2,279.3,343.8,280.6z"/>
	<path class="st564" d="M343.8,280.6c-0.3-1.1-0.6-2.2-0.9-3.3c2.2,0.7,1.7,2.6,1.9,4.2C344.5,281.2,344.1,280.9,343.8,280.6z"/>
	<path class="st456" d="M343.8,283.8c0.3-0.5,0.6-0.9,0.9-1.4c1,1.3,1.5,2.6,0.9,4.2C345.3,285.6,344.9,284.5,343.8,283.8z"/>
	<path class="st567" d="M338.7,281c1.9,0.6,2.2,1.7,0.9,3.3c-3.9,0.5-7.8,0.9-11.7,1.4c-1-0.8,0-3.2-2.3-2.8
		c2.8-0.9,5.7-0.9,8.6-1.4C335.6,281.3,337.2,281.2,338.7,281z"/>
	<path class="st426" d="M408.8,371.4c2.4,0.1,4.8-0.6,7.2,0.4C413.5,371.8,411.1,372.1,408.8,371.4z"/>
	<path class="st426" d="M416.7,371.9c1.6,0,3.2,0,4.9,0C420,372.8,418.3,372.2,416.7,371.9z"/>
	<path class="st498" d="M458.1,143.5c-1.5,0.7-3,0.3-4.6,0.4c-3.8,0.1-7.6,0-11.4,0c-0.8,0-1.7,0.3-2.4-0.4
		C445.9,143.5,452,143.5,458.1,143.5z"/>
	<path class="st435" d="M397.6,340.9c0.7,0.5,0.4,1.2,0.4,2.1C397.4,342.2,397.8,341.5,397.6,340.9
		C397.7,340.9,397.6,340.9,397.6,340.9z"/>
	<path class="st563" d="M319.5,201.5c-0.4,0.5-0.9,0.9-0.3,1.6c0.2,0.3,0.8,0.7,0.3,0.9c-2.3,1-0.8,2.5-0.5,3.6
		c4,14.1,8.1,28.1,12.2,42.1c-0.3,2.8,1,5.2,1.4,7.9c0.7,5.2,1.7,10.4,2.6,15.6c0.1,0.7,0.3,1.5-0.2,2.2c0.3,2-0.6,2.6-2.5,2.9
		c-4.3,0.7-8.4,2.3-12.5,3.7c-0.6,0.2-1.2,0.3-1.8,0.4c-1.2-0.5-1.4-1.6-1.6-2.7c-1.8-10.4-3.5-20.7-5.3-31.1
		c-2.1-12-4.1-24.1-6.3-36.1c-0.2-1.3-0.8-2.7,0.1-4.1c3.5-1.5,7-3.1,10.7-3.7c2.1-0.4,2.2-1.3,1.4-2.9
		C317.9,201.5,318.7,201.4,319.5,201.5z"/>
	<path class="st568" d="M305,208.5c0.7,3.9,1.4,7.7,2.1,11.6c0.7,4.4,1.4,8.8,2.2,13.2c1.2,7.4,2.5,14.9,3.8,22.3
		c1.3,7.4,2.6,14.7,4,22.1c0.3,1.6,0,3.3,1.2,4.7c-4.1,2.8-4.2,2.8-5.5-1.6c-2.1-7.4-4.3-14.7-6.4-22.1
		c-3.4-11.6-6.7-23.2-10.1-34.8c-0.9-3.1-1.6-6.1-2.6-9.2c-0.3-1.1-0.1-1.5,0.9-1.9C298,211.5,301.5,210,305,208.5z"/>
	<path class="st569" d="M334.9,275.4c-1.2-6.7-2.6-13.4-3.3-20.2c-0.1-1.1-0.4-2.1-0.7-3.2c-0.2-0.8-0.5-1.6,0.2-2.4
		c1.1,5.6,3.1,10.9,4.6,16.3c1.1,3.8,2.2,7.5,3.3,11.3c0,0.2,0,0.3,0,0.5c-1.2,0.1-2.2,0-2.7-1.4
		C336.3,275.8,335.6,275.4,334.9,275.4z"/>
	<path class="st570" d="M304,201.4c3-1.2,6.1-2,9.4-2.3c2.5-0.3,3.1,0.4,2.4,2.8c-3.4,0.8-6.9,1.5-10.3,2.3
		C304.9,203.4,304.4,202.4,304,201.4z"/>
	<path class="st571" d="M304,201.4c1.2,0.6,1.7,1.5,1.4,2.8c-0.8,0.3-1.6,0.6-2.3,0.9c-0.5-0.9-0.9-2-1.5-2.8
		C302.3,201.7,303.1,201.5,304,201.4z"/>
	<path class="st572" d="M315.7,201.9c0-1.6-0.2-3-2.4-2.8c1-0.9,2.2-0.3,3.3-0.5c-0.1,1.1,0.9,2.2,0,3.3
		C316.4,201.9,316,201.9,315.7,201.9z"/>
	<path class="st573" d="M301.6,202.4c1.2,0.6,1.8,1.5,1.5,2.8c-0.2,0-0.3,0-0.5,0c-1.1-0.4-0.5-2.2-1.9-2.3
		C301,202.7,301.3,202.5,301.6,202.4z"/>
	<path class="st563" d="M322.3,201c-0.7,0.8-1.6,0.4-2.3,0.5C320.6,200.7,321.5,201.1,322.3,201z"/>
</g>
</svg>
