<?xml version="1.0" encoding="utf-8"?>
<!-- Generator: Adobe Illustrator 26.0.3, SVG Export Plug-In . SVG Version: 6.00 Build 0)  -->
<svg version="1.1" id="图层_1" xmlns="http://www.w3.org/2000/svg" xmlns:xlink="http://www.w3.org/1999/xlink" x="0px" y="0px"
	 viewBox="0 0 500 500" style="enable-background:new 0 0 500 500;" xml:space="preserve">
<style type="text/css">
	.st0{fill:#974A42;}
	.st1{fill:#DEC6C4;}
	.st2{fill:#D34844;}
	.st3{fill:#B84842;}
	.st4{fill:#F0E5DB;}
	.st5{fill:#57524E;}
	.st6{fill:#BB514C;}
	.st7{fill:#F0B4B2;}
	.st8{fill:#F2BDBB;}
	.st9{fill:#F2BBBA;}
	.st10{fill:#F2BCBA;}
	.st11{fill:#D1403C;}
	.st12{fill:#F9EDE3;}
	.st13{fill:#D9CFC5;}
	.st14{fill:#F9EEE4;}
	.st15{fill:#F4F0E6;}
	.st16{fill:#F8EDE2;}
	.st17{fill:#FCF1E7;}
	.st18{fill:#514C48;}
	.st19{fill:#E3D9CF;}
	.st20{fill:#B5413B;}
	.st21{fill:#746E67;}
	.st22{fill:#E15C4C;}
	.st23{fill:#FEFEFE;}
	.st24{fill:#FFFDFD;}
	.st25{fill:#EEE8E7;}
	.st26{fill:#EEE1DF;}
	.st27{fill:#EEE7E6;}
	.st28{fill:#FFF9FA;}
	.st29{fill:#E9DEDE;}
	.st30{fill:#FFFCFA;}
	.st31{fill:#EDE0DF;}
	.st32{fill:#EEE2E1;}
	.st33{fill:#EEE7E4;}
	.st34{fill:#E3786A;}
	.st35{fill:#E58173;}
	.st36{fill:#F9F3EA;}
	.st37{fill:#F6F1EA;}
	.st38{fill:#D64D4F;}
	.st39{fill:#F2ECE3;}
	.st40{fill:#EBE4D4;}
	.st41{fill:#E1CCB6;}
	.st42{fill:#E3C7AB;}
	.st43{fill:#EAE4D2;}
	.st44{fill:#D44445;}
	.st45{fill:#D44343;}
	.st46{fill:#CE3B3B;}
	.st47{fill:#CE3A3A;}
	.st48{fill:#CE3838;}
	.st49{fill:#EFEAE0;}
	.st50{fill:#EAE4D6;}
	.st51{fill:#E7DCCA;}
	.st52{fill:#EAE1D1;}
	.st53{fill:#D13D3D;}
	.st54{fill:#E2CEB8;}
	.st55{fill:#DFC8B1;}
	.st56{fill:#DDC2A6;}
	.st57{fill:#E9E3D0;}
	.st58{fill:#A4A49E;}
	.st59{fill:#E4D4C0;}
	.st60{fill:#E4D2BE;}
	.st61{fill:#E6D6C3;}
	.st62{fill:#E7D8C6;}
	.st63{fill:#E3D2BE;}
	.st64{fill:#E9E0CF;}
	.st65{fill:#EADFCE;}
	.st66{fill:#E7DBC9;}
	.st67{fill:#ECE7D9;}
	.st68{fill:#EAE4D4;}
	.st69{fill:#E6E5DC;}
	.st70{fill:#D8D7CF;}
	.st71{fill:#A3A39E;}
	.st72{fill:#F3ECE4;}
	.st73{fill:#B9B8B2;}
	.st74{fill:#B8B7B1;}
	.st75{fill:#B2B2AC;}
	.st76{fill:#C6C6C0;}
	.st77{fill:#B5B6AF;}
	.st78{fill:#BCBCB6;}
	.st79{fill:#B6B6AF;}
	.st80{fill:#B7B7B1;}
	.st81{fill:#B3B3AD;}
	.st82{fill:#ACADA6;}
	.st83{fill:#A2A29C;}
	.st84{fill:#C3C3BC;}
	.st85{fill:#B5B5AF;}
	.st86{fill:#B0B0A8;}
	.st87{fill:#C7C8C1;}
	.st88{fill:#C8C8C3;}
	.st89{fill:#A2A19A;}
	.st90{fill:#C9C9C3;}
	.st91{fill:#BFBFB8;}
	.st92{fill:#ABABA4;}
	.st93{fill:#B0B0A9;}
	.st94{fill:#A7A7A2;}
	.st95{fill:#CCCCC6;}
	.st96{fill:#CECEC7;}
	.st97{fill:#C4C4BD;}
	.st98{fill:#BEBEB7;}
	.st99{fill:#CBCBC5;}
	.st100{fill:#D3D3CC;}
	.st101{fill:#C7C7C0;}
	.st102{fill:#CECEC8;}
	.st103{fill:#B6B7B0;}
	.st104{fill:#B7B7B0;}
	.st105{fill:#B1B1AB;}
	.st106{fill:#ADAEA7;}
	.st107{fill:#C8C8C2;}
	.st108{fill:#CFCFC8;}
	.st109{fill:#BABAB3;}
	.st110{fill:#AFAFA8;}
	.st111{fill:#BBBAB4;}
	.st112{fill:#D1D1CA;}
	.st113{fill:#E8E6DE;}
	.st114{fill:#DBDBD4;}
	.st115{fill:#B9B9B2;}
	.st116{fill:#CDCDC6;}
	.st117{fill:#F6F1EB;}
	.st118{fill:#D0D0C9;}
	.st119{fill:#F9F4ED;}
	.st120{fill:#DDDCD5;}
	.st121{fill:#F6F2EC;}
	.st122{fill:#FCF7F0;}
	.st123{fill:#FEF9F2;}
	.st124{fill:#EBE8E1;}
	.st125{fill:#E8E7E0;}
	.st126{fill:#C4C5BE;}
	.st127{fill:#D13C3C;}
	.st128{fill:#D1403E;}
	.st129{fill:#CF3E3C;}
	.st130{fill:#EEEADF;}
	.st131{fill:#D23F40;}
	.st132{fill:#ECE5D5;}
	.st133{fill:#E3C8AD;}
	.st134{fill:#E4DFD2;}
	.st135{fill:#F0ECE3;}
	.st136{fill:#E2D6CB;}
	.st137{fill:#DCC7B7;}
	.st138{fill:#F2EEE8;}
	.st139{fill:#DCC7B6;}
	.st140{fill:#E0CEBF;}
	.st141{fill:#EBEADF;}
	.st142{fill:#DAC5B6;}
	.st143{fill:#E9E5D9;}
	.st144{fill:#D53B3E;}
	.st145{fill:#E2D8CD;}
	.st146{fill:#D54B4D;}
	.st147{fill:#E7E2D4;}
	.st148{fill:#E1D3C7;}
	.st149{fill:#DCC8B3;}
	.st150{fill:#D44245;}
	.st151{fill:#EBEFE0;}
	.st152{fill:#E8E2CC;}
	.st153{fill:#EBF1E1;}
	.st154{fill:#DCBEB7;}
	.st155{fill:#D74144;}
	.st156{fill:#D84043;}
	.st157{fill:#D73F41;}
	.st158{fill:#D73E41;}
	.st159{fill:#EAE0CD;}
	.st160{fill:#E3CEB6;}
	.st161{fill:#EEEBDF;}
	.st162{fill:#E6D4BE;}
	.st163{fill:#EBEFE9;}
	.st164{fill:#D6787A;}
	.st165{fill:#E1CAAD;}
	.st166{fill:#DBB38F;}
	.st167{fill:#E4CBB0;}
	.st168{fill:#DEC0A1;}
	.st169{fill:#DFBD9E;}
	.st170{fill:#E1C6A8;}
	.st171{fill:#E9DDCA;}
	.st172{fill:#D24041;}
	.st173{fill:#D54747;}
	.st174{fill:#D34444;}
	.st175{fill:#F7FEFD;}
	.st176{fill:#D53839;}
	.st177{fill:#D45153;}
	.st178{fill:#DEC6AE;}
	.st179{fill:#958B7A;}
	.st180{fill:#928676;}
	.st181{fill:#EBE1D0;}
	.st182{fill:#EADCC9;}
	.st183{fill:#DEBB9A;}
	.st184{fill:#E6D1BA;}
	.st185{fill:#A2A098;}
	.st186{fill:#9B988A;}
	.st187{fill:#A2A29B;}
	.st188{fill:#AFAEA7;}
	.st189{fill:#BABAB2;}
	.st190{fill:#BFBFB6;}
	.st191{fill:#9C9D96;}
	.st192{fill:#7E7F79;}
	.st193{fill:#70706B;}
	.st194{fill:#696A63;}
	.st195{fill:#A7A8A1;}
	.st196{fill:#64665F;}
	.st197{fill:#E8DBC9;}
	.st198{fill:#E9DECC;}
	.st199{fill:#EAE2D4;}
	.st200{fill:#E6D9C4;}
	.st201{fill:#E8DCC8;}
	.st202{fill:#ECE8DC;}
	.st203{fill:#EAE3D3;}
	.st204{fill:#EBE7DA;}
	.st205{fill:#A09D94;}
	.st206{fill:#A9A9A2;}
	.st207{fill:#A5A5A0;}
	.st208{fill:#F2EBE2;}
	.st209{fill:#EDE9DC;}
	.st210{fill:#D23D3D;}
	.st211{fill:#E6D2BB;}
	.st212{fill:#E2CAAE;}
	.st213{fill:#DBB28E;}
	.st214{fill:#EEF2E1;}
	.st215{fill:#DFC4A5;}
	.st216{fill:#EAE5D5;}
	.st217{fill:#E2CCB1;}
	.st218{fill:#E6D7C2;}
	.st219{fill:#DDBF9E;}
	.st220{fill:#989282;}
	.st221{fill:#E4D4C1;}
	.st222{fill:#E4D6C3;}
	.st223{fill:#E2CEB9;}
	.st224{fill:#E9DFCF;}
	.st225{fill:#B8B8B0;}
	.st226{fill:#A7A7A1;}
	.st227{fill:#ACACA4;}
	.st228{fill:#94958D;}
	.st229{fill:#9A9A92;}
	.st230{fill:#C7C7BF;}
	.st231{fill:#C2C2B9;}
	.st232{fill:#A4A59E;}
	.st233{fill:#858680;}
	.st234{fill:#A0A199;}
	.st235{fill:#CCCCC5;}
	.st236{fill:#C9C9C1;}
	.st237{fill:#ADADA6;}
	.st238{fill:#C7C6BF;}
	.st239{fill:#AFAFA7;}
	.st240{fill:#B7B7AF;}
	.st241{fill:#B2B2AB;}
	.st242{fill:#C6C5BD;}
	.st243{fill:#B1B1AA;}
	.st244{fill:#B8B8B1;}
	.st245{fill:#C1C1B8;}
	.st246{fill:#BDBDB4;}
	.st247{fill:#ADACA5;}
	.st248{fill:#B0B1A9;}
	.st249{fill:#CFD0C7;}
	.st250{fill:#B3B3AC;}
	.st251{fill:#C0C0B7;}
	.st252{fill:#C3C3BA;}
	.st253{fill:#B9B9B1;}
	.st254{fill:#CCCBC4;}
	.st255{fill:#BCBCB3;}
	.st256{fill:#CAC9C2;}
	.st257{fill:#BBBBB3;}
	.st258{fill:#B4B4AC;}
	.st259{fill:#C7C6BE;}
	.st260{fill:#9B9B94;}
	.st261{fill:#CBCBC3;}
	.st262{fill:#DCDBD2;}
	.st263{fill:#B1B1A9;}
	.st264{fill:#E7E6DC;}
	.st265{fill:#BEBEB6;}
	.st266{fill:#BEBEB5;}
	.st267{fill:#C3C3BB;}
	.st268{fill:#CDCDC5;}
	.st269{fill:#C4C4BB;}
	.st270{fill:#B2B2AA;}
	.st271{fill:#D3D3CB;}
	.st272{fill:#B6B6AE;}
	.st273{fill:#CECEC6;}
	.st274{fill:#BAB9B1;}
	.st275{fill:#E0E0D7;}
	.st276{fill:#9A9B93;}
	.st277{fill:#DDDDD4;}
	.st278{fill:#B5B5AD;}
	.st279{fill:#D8D8CF;}
	.st280{fill:#CAC9C1;}
	.st281{fill:#E2E2D8;}
	.st282{fill:#A5A59E;}
	.st283{fill:#F8F3EA;}
	.st284{fill:#C5C5BC;}
	.st285{fill:#CBCBC2;}
	.st286{fill:#ACACA5;}
	.st287{fill:#D9D8D0;}
	.st288{fill:#C9C8C0;}
	.st289{fill:#ECEAE0;}
	.st290{fill:#A4A49D;}
	.st291{fill:#CDCEC6;}
	.st292{fill:#ECE9E0;}
	.st293{fill:#CCCCC4;}
	.st294{fill:#E9E7DE;}
	.st295{fill:#E7E5DC;}
	.st296{fill:#E2E0D7;}
	.st297{fill:#8B8B84;}
	.st298{fill:#8A8A82;}
	.st299{fill:#ABABA3;}
	.st300{fill:#A6A6A0;}
	.st301{fill:#9A9A93;}
	.st302{fill:#D3D3CA;}
	.st303{fill:#B0AFA8;}
	.st304{fill:#C4C3BB;}
	.st305{fill:#BCBCB4;}
	.st306{fill:#AAAAA3;}
	.st307{fill:#C5C4BC;}
	.st308{fill:#9E9E97;}
	.st309{fill:#D1D1C9;}
	.st310{fill:#D5D5CC;}
	.st311{fill:#AAAAA2;}
	.st312{fill:#D0D0C8;}
	.st313{fill:#DAD9D0;}
	.st314{fill:#92938B;}
	.st315{fill:#DAD9D1;}
	.st316{fill:#B9BAB1;}
	.st317{fill:#D4D4CC;}
	.st318{fill:#C8C8BF;}
	.st319{fill:#999992;}
	.st320{fill:#B5B5AE;}
	.st321{fill:#8C8C85;}
	.st322{fill:#A2A39B;}
	.st323{fill:#AEAEA7;}
	.st324{fill:#C1C1B9;}
	.st325{fill:#C7C7BE;}
	.st326{fill:#C6C6BE;}
	.st327{fill:#DEDDD4;}
	.st328{fill:#E2E1D8;}
	.st329{fill:#C5C5BD;}
	.st330{fill:#BBBBB2;}
	.st331{fill:#92928A;}
	.st332{fill:#D2D2CA;}
	.st333{fill:#C8C8C0;}
	.st334{fill:#ADADA5;}
	.st335{fill:#A5A69F;}
	.st336{fill:#FEFBF2;}
	.st337{fill:#E4E4DA;}
	.st338{fill:#9C9C95;}
	.st339{fill:#7C7C77;}
	.st340{fill:#AEADA6;}
	.st341{fill:#D1D2C9;}
	.st342{fill:#C3C2BA;}
	.st343{fill:#A6A69F;}
	.st344{fill:#DFDED5;}
	.st345{fill:#BFBFB7;}
	.st346{fill:#BDBDB5;}
	.st347{fill:#BBBAB2;}
	.st348{fill:#A3A49D;}
	.st349{fill:#999485;}
	.st350{fill:#9A9789;}
	.st351{fill:#E0C8AD;}
	.st352{fill:#DEC2A4;}
	.st353{fill:#EFEADF;}
	.st354{fill:#F2EBE1;}
	.st355{fill:#EFEADD;}
	.st356{fill:#A4A39A;}
	.st357{fill:#B2B1A8;}
	.st358{fill:#A1A096;}
	.st359{fill:#B2AFA5;}
	.st360{fill:#A7A69D;}
	.st361{fill:#B7B6AD;}
	.st362{fill:#ABA79C;}
	.st363{fill:#B9B8AF;}
	.st364{fill:#BBBAB1;}
	.st365{fill:#94938A;}
	.st366{fill:#9E9F99;}
	.st367{fill:#999993;}
	.st368{fill:#EEEADE;}
	.st369{fill:#ACACA2;}
	.st370{fill:#A7A79E;}
	.st371{fill:#9C9B90;}
	.st372{fill:#D1CEC4;}
	.st373{fill:#BBB9AE;}
	.st374{fill:#C0BAAE;}
	.st375{fill:#B6B2A6;}
	.st376{fill:#EAE3D4;}
	.st377{fill:#C0B9AC;}
	.st378{fill:#C6C4B9;}
	.st379{fill:#EAE5D7;}
	.st380{fill:#E8DCCB;}
	.st381{fill:#E9DFCE;}
	.st382{fill:#EADFCF;}
	.st383{fill:#B7B3A6;}
	.st384{fill:#BCB6A9;}
	.st385{fill:#C8C1B2;}
	.st386{fill:#BFB8AA;}
	.st387{fill:#B7B2A5;}
	.st388{fill:#C2BBAE;}
	.st389{fill:#E8DECE;}
	.st390{fill:#5D5D58;}
	.st391{fill:#70706A;}
	.st392{fill:#EEECE3;}
	.st393{fill:#6E6F69;}
	.st394{fill:#FCF9F0;}
	.st395{fill:#EAE4D5;}
	.st396{fill:#828076;}
	.st397{fill:#ECE8DB;}
	.st398{fill:#C8C6BC;}
	.st399{fill:#858379;}
	.st400{fill:#CECCC3;}
	.st401{fill:#B5B4AA;}
	.st402{fill:#B4B1A7;}
	.st403{fill:#D0CDC2;}
	.st404{fill:#B2AEA1;}
	.st405{fill:#EBE5D6;}
	.st406{fill:#ECE7DA;}
	.st407{fill:#AEACA1;}
	.st408{fill:#AEADA3;}
	.st409{fill:#EBE6D9;}
	.st410{fill:#B8B6AC;}
	.st411{fill:#A3A197;}
	.st412{fill:#C1BDB0;}
	.st413{fill:#C7C0B2;}
	.st414{fill:#B9B4A7;}
	.st415{fill:#F5EFE5;}
	.st416{fill:#99978D;}
	.st417{fill:#E9E2D2;}
	.st418{fill:#BCB6A8;}
	.st419{fill:#BAB4A7;}
	.st420{fill:#E8E0D1;}
	.st421{fill:#A09D92;}
	.st422{fill:#C0B9AB;}
	.st423{fill:#9B988B;}
	.st424{fill:#A7A398;}
	.st425{fill:#B5AFA2;}
	.st426{fill:#E7705A;}
	.st427{fill:#F18578;}
	.st428{fill:#F08476;}
	.st429{fill:#F5978E;}
	.st430{fill:#EF8171;}
	.st431{fill:#EC7C6D;}
	.st432{fill:#F79990;}
	.st433{fill:#F1867C;}
	.st434{fill:#ED786A;}
	.st435{fill:#E56E57;}
	.st436{fill:#EE7D6F;}
	.st437{fill:#EF8172;}
	.st438{fill:#F3FEFB;}
	.st439{fill:#EC7A69;}
	.st440{fill:#F18B80;}
	.st441{fill:#F69C92;}
	.st442{fill:#F18A7E;}
	.st443{fill:#F59386;}
	.st444{fill:#E76F5A;}
	.st445{fill:#F1887E;}
	.st446{fill:#F0897E;}
	.st447{fill:#EA7161;}
	.st448{fill:#F38D84;}
	.st449{fill:#E46A54;}
	.st450{fill:#EA7464;}
	.st451{fill:#F49088;}
	.st452{fill:#EB7765;}
	.st453{fill:#EB7B6D;}
	.st454{fill:#F4948A;}
	.st455{fill:#BBFAE7;}
	.st456{fill:#EA7A69;}
	.st457{fill:#E7705B;}
	.st458{fill:#883524;}
	.st459{fill:#E76D57;}
	.st460{fill:#A24532;}
	.st461{fill:#E7715C;}
	.st462{fill:#C25B48;}
	.st463{fill:#9C4331;}
	.st464{fill:#9C4230;}
	.st465{fill:#E8745F;}
	.st466{fill:#A54634;}
	.st467{fill:#E3644F;}
	.st468{fill:#F18573;}
	.st469{fill:#ED8F80;}
	.st470{fill:#B85544;}
	.st471{fill:#CB614F;}
	.st472{fill:#C66D5D;}
	.st473{fill:#DF604A;}
	.st474{fill:#F5FEFC;}
	.st475{fill:#BAFAE7;}
	.st476{fill:#F4FEFC;}
	.st477{fill:#F2FEFB;}
	.st478{fill:#F5FDFC;}
	.st479{fill:#BDFAE8;}
	.st480{fill:#E1AC98;}
	.st481{fill:#E6AF9C;}
	.st482{fill:#CCFCEE;}
	.st483{fill:#C1FDF5;}
	.st484{fill:#CEF3E7;}
	.st485{fill:#EE7B6A;}
	.st486{fill:#EF7869;}
	.st487{fill:#EA7261;}
	.st488{fill:#EC7565;}
	.st489{fill:#ED7C6B;}
	.st490{fill:#F7FEFC;}
	.st491{fill:#EC7566;}
	.st492{fill:#D5FCF7;}
	.st493{fill:#E8AF9E;}
	.st494{fill:#F49087;}
	.st495{fill:#CEFCEF;}
	.st496{fill:#DEFDF5;}
	.st497{fill:#E66C55;}
	.st498{fill:#8D3928;}
	.st499{fill:#A94835;}
	.st500{fill:#D6604C;}
	.st501{fill:#D46A57;}
	.st502{fill:#BD5440;}
	.st503{fill:#F69084;}
	.st504{fill:#E66852;}
	.st505{fill:#AC4B39;}
	.st506{fill:#8C3928;}
	.st507{fill:#EA7765;}
	.st508{fill:#EB7262;}
	.st509{fill:#D06350;}
	.st510{fill:#E1634E;}
	.st511{fill:#E8AB99;}
	.st512{fill:#EB7F6D;}
	.st513{fill:#E7A695;}
	.st514{fill:#EA7868;}
	.st515{fill:#E76F59;}
	.st516{fill:#BE5945;}
	.st517{fill:#8C3827;}
	.st518{fill:#C05946;}
	.st519{fill:#BC503B;}
	.st520{fill:#CBFCEE;}
	.st521{fill:#D0FCF0;}
	.st522{fill:#E0FDF5;}
	.st523{fill:#DFFDF5;}
	.st524{fill:#EAFEF8;}
	.st525{fill:#D7FDF3;}
	.st526{fill:#D2FCF0;}
	.st527{fill:#E1644D;}
	.st528{fill:#EA7F6E;}
	.st529{fill:#EB8372;}
	.st530{fill:#DE4F38;}
	.st531{fill:#E97360;}
	.st532{fill:#E86D5D;}
	.st533{fill:#E86F5D;}
	.st534{fill:#EB7362;}
	.st535{fill:#E97664;}
	.st536{fill:#832715;}
	.st537{fill:#D1FCF1;}
	.st538{fill:#E1FDF5;}
	.st539{fill:#DFFEF6;}
	.st540{fill:#E4FEF8;}
	.st541{fill:#F4FEFB;}
	.st542{fill:#BB5643;}
	.st543{fill:#EE7869;}
	.st544{fill:#EE7B69;}
	.st545{fill:#B95441;}
	.st546{fill:#EB7360;}
	.st547{fill:#B5503E;}
	.st548{fill:#A94735;}
	.st549{fill:#E36953;}
	.st550{fill:#B44D3A;}
	.st551{fill:#F39387;}
	.st552{fill:#8A3625;}
	.st553{fill:#C1533E;}
	.st554{fill:#8D3828;}
	.st555{fill:#8A3525;}
	.st556{fill:#893323;}
	.st557{fill:#EB705C;}
	.st558{fill:#E8705A;}
	.st559{fill:#A74531;}
	.st560{fill:#AC4734;}
	.st561{fill:#BC503C;}
	.st562{fill:#D26452;}
	.st563{fill:#E97461;}
	.st564{fill:#EA7B6B;}
	.st565{fill:#D66754;}
	.st566{fill:#E97765;}
	.st567{fill:#C35540;}
	.st568{fill:#EA7262;}
	.st569{fill:#E97060;}
	.st570{fill:#BF513D;}
	.st571{fill:#AD4834;}
	.st572{fill:#C65944;}
	.st573{fill:#983E2C;}
</style>
<g>
	<path class="st22" d="M96.6,392.7c-3.5,0.3-6.9,0.5-10.4,0.8c-7,0.7-9.9-1.8-10-8.8c-0.3-11.6-0.7-23.3-0.8-34.9
		c-0.1-5-1.4-9.6-3.5-14.1c-6.4-14.1-12.6-28.3-19.1-42.4c-2.8-6.1-3.9-12.3-3.9-19c0-5.1-0.1-10.3-5.5-13.3
		c-2.7-1.5-2.6-3.8-1.2-6.3c1.2-2.1,3-4.4,3.1-6.6c0.4-17.9,9.2-34,10.4-52c2-30.1,6.4-60,10.9-89.8c0.9-5.9,4-7.3,8.6-3.8
		c4.4,3.3,7.7,2.9,9.6-2.1c5.9-15.9,16.8-28.9,25.7-42.9c3.2-5,7.2-7.2,13.2-7c10.6,0.3,21.3-0.4,31.8,0.2
		c9.6,0.6,16.7-4.4,24.3-8.7c8.9-5,10.2-5.1,17.2,2.6c5.2,5.7,10.7,9.8,19,8.9c3.9-0.4,7.3-1.1,9.9-3.9c3.7-3.9,8-5.4,13.2-4.8
		c54.1,6.5,108.5,2.7,162.7,3.7c5.4,0.1,8.3,2.6,9.1,7.9c3.5,24.1-0.3,18.4,22.7,32c3,1.8,6.3,2.7,9.8,3.3c4.4,0.8,7.6,3.2,7.7,8.1
		c0.1,23.6,4.9,46.6,7.9,69.8c1.6,12.1-0.6,23.6-2.1,35.3c-3,24.3-4.8,48.7-4.7,73.2c0,8-1.3,15.5-6,22.1c-6.4,8.9-5.4,19-4.9,28.9
		c0.2,3.5,2.6,5.9,5.3,7.9c4.1,3,5.8,6.9,5.7,12.1c-0.7,33.9,4.2,22.3-17.6,48.5c-9.4,11.3-18.9,22.5-28.6,33.6
		c-2.5,2.9-5.6,5.3-8.5,7.9c-6.2,5.6-12.4,7.2-20.4,2.3c-6.6-4.1-13.8-2.2-18.6,4.1c-4.7,6.2-10.3,7.7-17.9,7.7
		c-19.5,0-38.5-2.1-57.4-7.2c-9.1-2.4-18.8-0.9-28,0.2c-11.9,1.5-22.7,0.6-31.7-8.3c-3.7-3.6-8.1-4.1-13-2.3c-5.8,2.2-12,2.5-18,3.1
		c-4.6,0.4-8.3-1.7-11.8-4.4c-4.5-3.6-8.9-3.5-13.3,0c-0.6,0.5-1.4,0.9-2,1.4c-11,8.3-11.9,6-21.7-3.7c-2.5-2.5-1-4.5,1.1-6.2
		c3.9-3.1,3.1-5.5-0.7-8.1c-10.8-7.4-21.5-14.8-32.2-22.3C107.2,392.2,102,392.6,96.6,392.7z"/>
	<path class="st23" d="M228.2,292.5c-0.1-4.5,0-9-0.3-13.5c-0.5-6-0.4-11.6,6.9-13.4c3.3-0.8,3.2-3,3.2-5.6c-0.1-4.5,0.1-9,0-13.5
		c0-2.3,0.7-3.3,3.1-3.3c2.6,0,3.1,1.2,3,3.4c-0.1,4.3,0.3,8.6-0.1,12.9c-0.4,4.2,1.6,4.8,5,4.2c9-1.5,18.1-3,27.2-4.2
		c2.7-0.4,3.9-1.6,4.6-4c2.1-8,3.3-16,1.4-24.1c-0.8-3.6-2.6-6.8-7.7-5.5c-5.1,1.3-10.5,1.7-15.6,2.8c-5.2,1.2-9.6,0-13.4-3.6
		c-2.2,1-1.1,2.9-1.3,4.3c-0.4,2.1-1.9,1.8-3.3,1.8c-1.2,0-3.1-0.2-2.6-1.7c1.9-6.4-5.1-12.1-0.6-19.1c2-3.1,3.3-3.2,5.9-2.8
		c10.5,1.8,21,1.6,31.5-0.2c4.1-0.7,5.2-3,5.1-6.8c-0.6-20.7,1.1-41.6-7-61.6c-1.7-4.2,1.8-7.5,5.1-7.2c12.2,1,24.9,0.6,33,13.2
		c4.7,7.3,3.3,14.4,2.3,21.6c-1.7,11.6-0.7,23.1-0.6,34.7c0,3.7,2.7,2.9,4.8,2.8c7.3-0.4,14.6-0.9,21.9-1.4
		c6.5-0.5,12.4,1.9,18.4,3.9c3.8,1.2,5,2.9,1.7,6.4c-3.3,3.5-6.3,6.5-11.9,5.1c-4.1-1-8.6-0.1-12.7,1c-3.3,0.9-6.3,0.9-9.6,0.3
		c-8.4-1.5-13.2,2.4-14,10.8c-0.7,7.5-1.2,15-2,22.5c-0.5,4.8,1.5,5.9,5.9,5.7c7.9-0.3,15.7-1.2,23.7-0.5c5,0.4,8.6,3.6,12.8,5.5
		c1.9,0.9,1.3,1.8,0.2,3.3c-4.6,5.9-10.6,8-17.8,7.3c-8.7-0.9-17.4,0.8-25.9,0.8c-20.1-0.2-38.5,8-58.2,8.5c-1.8,0-3.6-0.5-6.1-0.9
		c0,5.9,0,11.7,0,17.5c0,2.1,0.1,4-3,4c-3.1,0-3.3-1.8-3.1-4c0.8-6.9-1.6-13.9,1.5-20.9c1-2.1-2.6-4-5.5-6c0,5.1-0.3,9.4,0.1,13.6
		c0.5,4.9-1.3,6.8-6,6.1L228.2,292.5z"/>
	<path class="st23" d="M226.4,205.7c-7.2,8.7-14.4,17.5-21.7,26.2c-2.2,2.6-0.1,3.5,1.6,4.6c5.1,3.4,10,6.9,13.7,12
		c4.6,6.2,3.3,12.6,0.4,18.5c-1.9,3.7-6.4,2.8-9.6,1c-2.7-1.5-4.6-1.2-7.3,0c-11.1,5.1-22.6,9.6-30,20.3c-7.5-0.3-12,5.9-18.2,8.4
		c-1,0.4-2,0.1-2.9-0.4c-9.7-5.4-10.8-19.6-1.9-26.5c7.4-5.7,12.4-13.4,17.3-21.2c2.4-3.9-0.3-5.7-3.1-7.1c-3.8-2-8.3-1.9-12.4-2.9
		c-5.6-1.3-10.7-6.2-10.9-11.7c-0.1-5.3,2.1-9.5,7.6-11.9c10-4.3,14.7-13.8,20.1-22.4c7.2-11.3,15.9-21.8,20.4-34.7
		c0.5-1.5,1.3-3,1.7-4.6c2.5-9.5,10.3-12,18.2-5.9c6.6,5.1,10.5,11.1,7.9,20c-0.7,2.2-1.6,3.4-3.5,4.5c-13,8-25.2,17-33.5,30.3
		c-3.2,5.2-6.6,10.3-9.7,15.6c-2.2,3.7,0.6,8.4,6.5,12.4c4.2,2.8,5.4-0.5,7.1-2.8c5.9-8,12.6-15.3,14.8-25.6c1.2-5.5,6-9.6,9.7-13.9
		c4.1-4.7,9.5-3.9,13.6,0.6c2.9,3.2,4,8.9,10.4,7.7c1.4-0.3,1.3,1.8,1.4,2.9c0.1,5.9,0.1,11.8,0.2,17.8c0,2.2-0.8,3.4-3.2,3.4
		c-2.5,0-3.1-1.2-3.1-3.4c0.1-3.4,0-6.8,0-10.2C227.4,206.2,226.9,205.9,226.4,205.7z"/>
	<path class="st23" d="M267.7,298.6c14.4-2.5,28.8-5.1,43.2-7.6c2.2-0.4,4.2-1.4,6.2-2.4c6.3-2.9,12.4-3.2,18.4,1.3
		c13.8,10.4,12.3,10.6,6,29.3c-3.8,11.1-10.2,21.8-22.3,27.1c-4.2,1.8-8.3,3.8-12.8,3.2c-9.3-1.2-18.2,1.3-27.2,2.2
		c-4,0.4-7.6,1.5-10.4,5.3c-3.3,4.4-6.5,3.9-10-0.4c-2.5-3.1-3.7-6.8-4.6-10.5c-3.6-14.9-5.7-30-8-45.1c-1-6.6,3.7-10,9.9-7.2
		c2.9,1.3,5.7,3.2,8.5,4.8c3.2,3,3.1,6.9,3.2,10.8c0.1,6.1-0.6,12.2,1.4,18.2c1.3,4.1,3.5,5.9,8,6c8.4,0.2,16.6-1.7,25-1.5
		c1.9,0,4-0.8,4.1-2.9c0.6-7,4.5-13.1,5.5-20c0.9-6.5-0.2-7.6-6.7-7c-6.3,0.6-12.5,1.3-18.4,4c-6.5,3-12.4,0.1-17.9-3.2
		C267.4,302.1,265.6,300.7,267.7,298.6z"/>
	<path class="st22" d="M267.7,298.6c2.7,5.5,12.4,9,18.5,5.9c7.4-3.8,15.2-3.8,23-4.8c3.6-0.5,5,0.6,5,4.6c-0.1,5.9-2.3,11.1-4,16.5
		c-0.9,2.8-2.5,5.4-1.8,8.7c0.5,2.6-1.2,4.6-3.8,4.4c-10-0.9-19.8,2-29.8,1.5c-3.7-0.2-5.3-1.5-6.5-4.9c-2-5.5-2.3-11.1-2.3-16.8
		c0-5.1,0.1-10.2-1.5-15.1C265.6,298.6,266.7,298.6,267.7,298.6z"/>
	<path class="st24" d="M158.4,322.6c0,2-0.5,4.3,0.1,6.1c2.8,8.1-3.5,11.1-8.3,14.4c-2.8,2-6.2,0.8-8.5-2.4
		c-4.8-6.6-3.9-13.7-2.2-21c1.6-6.5,5.5-12.1,7.2-18.7c1.2-4.5,4.3-1.9,5.7,0c3.3,4.3,6.7,8.7,6,14.8
		C158.2,318.1,158.4,320.3,158.4,322.6z"/>
	<path class="st24" d="M228.1,292.4c5.2,10.5,6.2,14.1,5.8,27.2c-0.1,2.8,3.2,8.6-3.2,8.4c-5.3-0.2-1.9-5.4-2.7-8.3
		c-0.5-1.8,0.7-4.3-1.8-5.3c-8.6-3.3-11.2-11.3-14.9-18.5c-0.7-1.4-1.3-3-1.9-4.5c-0.7-1.9-2.9-4.1-1.6-5.6c1.6-1.8,4.7-1.1,6.9-0.4
		c4.8,1.6,9.4,3.9,13.4,7.1C228.2,292.5,228.1,292.4,228.1,292.4z"/>
	<path class="st24" d="M177.8,299.2c0-1.2,0-2.4,0-3.7c-0.1-2.7-1.8-5.8,2.2-7.2c3.7-1.3,6.7,0.5,8.6,3.1c5,7,7.6,14.7,5.1,23.4
		c-0.3,1-0.8,1.9-1.2,2.8c-0.7,1.6,0.8,4.9-2.1,4.7c-2.9-0.2-6.1,0.5-8.5-2.8c-3.9-5.4-3.6-11.4-4-17.4
		C177.8,301.2,177.9,300.2,177.8,299.2C177.9,299.2,177.9,299.2,177.8,299.2z"/>
	<path class="st25" d="M251.5,112.4c3.1,0,6.1,0,9.2,0c2.3,0,4.5-0.2,4.4,3.3c-0.1,3.2-2.2,2.9-4.2,2.9c-3.9,0-7.7,0-11.6,0
		c-2.3,0-5-0.7-5.5,3c-0.3,1.9-2.3,1.3-3.6,1.3c-2,0-2.1-1.3-2.3-2.9c-0.9-6.7-0.1-7.6,6.8-7.7C247,112.4,249.2,112.4,251.5,112.4z"
		/>
	<path class="st26" d="M132.9,118.6c0.1,7.1,0.3,14.3,0.4,21.4c0.1,2.3-1,3.3-3.3,3.2c-2.2-0.1-2.7-1.3-2.7-3.2
		c-0.1-8.7-0.8-17.5,2.9-25.8c0.9-2.1,2.5-1.8,4-1.8c5.3-0.1,10.6-0.1,15.9,0c4.9,0.1,5,0.4,3.3,5.8c-3.7-3.1-15.2-4.4-19.2-2.2
		C133.1,116.6,133,117.6,132.9,118.6z"/>
	<path class="st27" d="M268.7,369.5c3,0,6.1,0,9.1,0c1.8,0,3.1,0.3,3.1,2.6c0,2.1-0.5,3.5-3,3.4c-6.1-0.1-12.1-0.1-18.2,0
		c-2.4,0-3.2-1-3.2-3.3c0-2.2,1.1-2.8,3-2.8C262.6,369.5,265.7,369.5,268.7,369.5z"/>
	<path class="st28" d="M238,183.3c0-2.8,0.1-5.7,0-8.5c-0.1-2.3,0.3-3.8,3.2-3.8c2.6,0.1,3,1.3,2.9,3.4c-0.1,5.9-0.1,11.8,0,17.6
		c0,2.3-0.9,3.2-3.2,3.2c-2.6,0-3-1.4-3-3.5C238,189,238,186.1,238,183.3z"/>
	<path class="st27" d="M214.2,375.5c-3,0-6.1,0-9.1,0c-2.2,0-2.7-1.2-2.7-3.1c0-2,0.7-3,2.8-3c6.3,0,12.5,0,18.8,0
		c2.1,0,2.7,1.1,2.7,3.1c0,2-0.7,3-2.8,3C220.7,375.5,217.4,375.5,214.2,375.5z"/>
	<path class="st27" d="M142.7,369.5c2.6,0,5.3,0,7.9,0c2.3-0.1,3.9,0.2,3.8,3.2c-0.1,2.6-1.5,2.9-3.6,2.9c-5.7,0-11.3-0.1-17,0
		c-2.3,0-3.8-0.3-3.8-3.3c0-3.2,2.2-2.8,4.1-2.8C137.1,369.5,139.9,369.5,142.7,369.5z"/>
	<path class="st27" d="M234.1,135.6c0,2.8,0,5.7,0,8.5c0,2.1-0.4,3.5-2.9,3.5c-2.3,0-3.3-0.9-3.3-3.2c0.1-6.1,0.1-12.2,0-18.2
		c0-2,0.8-2.9,2.9-2.9c2.3,0,3.4,0.8,3.3,3.2C234,129.5,234.1,132.6,234.1,135.6z"/>
	<path class="st27" d="M289.4,112.4c3.1,0,6.1,0.1,9.2,0c2.5-0.1,3,1.2,3,3.4c0,2.2-1.2,2.8-3.1,2.8c-6.1,0-12.2,0-18.3,0
		c-1.9,0-3-0.5-3-2.8c0-2.2,0.6-3.5,3.1-3.4C283.3,112.5,286.3,112.4,289.4,112.4z"/>
	<path class="st28" d="M238,327.8c0-3,0.1-6.1,0-9.1c0-2,0.8-2.9,2.9-2.9c2.3-0.1,3.3,0.7,3.3,3.1c-0.1,6.1-0.1,12.2,0,18.3
		c0,2-0.8,2.9-2.9,2.9c-2.3,0-3.4-0.7-3.3-3.1C238.1,333.9,238,330.8,238,327.8z"/>
	<path class="st27" d="M214.1,118.6c-2.2,0-4.5,0.1-6.7,0c-2.2-0.1-5.2,0.9-5-3.2c0.2-4.1,3.2-2.8,5.3-2.9c4.7-0.1,9.3-0.1,14,0
		c2.3,0,5.1-0.8,5,3.2c-0.1,3.7-2.7,2.8-4.7,2.9C219.4,118.7,216.7,118.6,214.1,118.6z"/>
	<path class="st27" d="M234.1,353c0,2.8-0.1,5.7,0,8.5c0.1,2.4-1.1,3.1-3.3,3.1c-2.1,0-2.9-0.9-2.9-2.9c0-6.1,0-12.2,0-18.2
		c0-2.4,1-3.2,3.3-3.1c2.1,0.1,2.9,1,2.9,3C234,346.5,234.1,349.8,234.1,353z"/>
	<path class="st26" d="M364.6,181.5c0-2.9,0.1-5.7,0-8.6c-0.1-2.4,1.1-3.1,3.4-3.1c2.3,0,2.7,1.3,2.7,3.1c0,6.1,0,12.2,0,18.4
		c0,2-0.9,2.9-3,2.9c-2.1,0-3-1-3-2.9C364.6,188,364.6,184.7,364.6,181.5C364.6,181.5,364.6,181.5,364.6,181.5z"/>
	<path class="st29" d="M364.6,217.7c0-2.8,0-5.7,0-8.5c0-2.2,0.9-3.4,3.2-3.4c2.1,0,2.8,1.1,2.8,3.1c0,6.1,0,12.2,0,18.2
		c0,2-0.7,2.9-2.8,3c-2.4,0-3.3-1-3.2-3.3C364.6,223.8,364.6,220.7,364.6,217.7z"/>
	<path class="st30" d="M244.1,146.7c0,3.1,0,6.1,0,9.2c0,2-0.5,3-2.7,3c-2.1,0-3.5-0.4-3.4-3c0.1-6.1,0.1-12.2,0-18.3
		c0-2.2,1.3-2.7,3.1-2.8c2-0.1,3.1,0.6,3,2.8C244.1,140.6,244.1,143.7,244.1,146.7z"/>
	<path class="st26" d="M370.6,253.8c0,3.1,0,6.1,0,9.2c0,2.1-0.4,3.6-3,3.5c-2.1-0.1-3-1-3-3c0-6.3,0-12.7,0-19
		c0-2.3,1.6-2.4,3.4-2.4c1.8,0,2.6,0.7,2.6,2.5C370.6,247.7,370.6,250.7,370.6,253.8C370.6,253.8,370.6,253.8,370.6,253.8z"/>
	<path class="st29" d="M370.6,145.4c0,2.8-0.1,5.7,0,8.5c0.1,2.3-0.2,3.9-3.2,3.8c-2.6-0.1-2.9-1.6-2.9-3.6c0-5.7,0-11.3,0-17
		c0-2.1,0.5-3.5,3-3.6c3-0.1,3.2,1.8,3.1,4C370.6,140.1,370.6,142.8,370.6,145.4z"/>
	<path class="st25" d="M244.8,371c0.3,3.6-0.9,4.6-3.5,4.6c-2.2,0-3.4-0.5-3.4-3.1c0.1-5.7,0.1-11.4,0-17.1c0-2.3,0.8-3.3,3.2-3.3
		c2.6,0,2.9,1.3,3,3.5C244.4,361,243.4,366.5,244.8,371z"/>
	<path class="st29" d="M133.3,276c0,3,0,6.1,0,9.1c0,2.4-1.3,3.2-3.5,3.1c-2.2-0.1-2.6-1.5-2.6-3.3c0-5.9,0-11.8,0-17.6
		c0-2.2,0.7-3.4,3.1-3.3c2.6,0,3,1.5,3,3.5C133.3,270.3,133.3,273.2,133.3,276z"/>
	<path class="st27" d="M305.4,369.5c3.1,0,6.1,0,9.2,0c1.7,0,2.7,0.6,2.7,2.5c0,1.7-0.2,3.5-2.4,3.5c-6.5,0.1-13.1,0.1-19.6,0
		c-2.4,0-2.2-1.9-2.2-3.5c-0.1-1.9,0.9-2.5,2.6-2.5C298.9,369.5,302.1,369.5,305.4,369.5z"/>
	<path class="st27" d="M360.2,112.4c1.8,0,3.7-0.1,5.5,0c1.8,0.1,4.5-0.9,4.7,2.3c0.2,2.2,1.1,4.9-0.8,6.4c-2,1.6-3.7,0.3-5.6-1.5
		c-2.5-2.4-6.2-0.6-9.4-1c-2.1-0.3-5.2,1.1-5.2-3.1c0-4.2,3-2.9,5.2-3.1C356.5,112.3,358.4,112.4,360.2,112.4z"/>
	<path class="st25" d="M341.3,369.5c3,0,6.1,0.1,9.1,0c2.1-0.1,2.8,1,2.8,3c0,1.9-0.6,3.1-2.7,3.1c-6.1,0-12.2,0-18.3,0
		c-2.4,0-3.1-1.2-3.2-3.4c0-2.2,1.3-2.7,3.1-2.7C335.2,369.5,338.3,369.5,341.3,369.5z"/>
	<path class="st26" d="M133.3,312.5c0,2.9-0.1,5.7,0,8.6c0.1,2.4-1,3.2-3.3,3.2c-2.2,0-2.8-1.1-2.8-3c0-6.1,0-12.3,0-18.4
		c0-1.9,0.7-3,2.9-3c2,0,3.1,0.8,3.1,2.8C133.3,306,133.3,309.3,133.3,312.5C133.3,312.5,133.3,312.5,133.3,312.5z"/>
	<path class="st29" d="M127.3,348c0-3,0-6.1,0-9.1c0-1.7,0.9-2.5,2.6-2.5c1.8,0,3.3,0.2,3.3,2.5c0,6.3,0,12.6,0,18.9
		c0,2-1,2.9-3,2.9c-2.5,0.1-3.1-1.3-3-3.5C127.3,354,127.3,351,127.3,348C127.3,348,127.3,348,127.3,348z"/>
	<path class="st31" d="M133.3,167.2c0,2.8,0,5.7,0,8.5c0,2.2-0.3,4-3.3,3.9c-2.7,0-2.8-1.7-2.8-3.7c0-5.7,0-11.4,0-17
		c0-2,0.2-3.6,2.8-3.6c2.4,0,3.2,1.2,3.2,3.4C133.3,161.5,133.3,164.3,133.3,167.2z"/>
	<path class="st31" d="M133.3,239.5c0,2.8,0,5.7,0,8.5c0,2.3-0.4,3.9-3.3,3.9c-2.8-0.1-2.8-1.8-2.8-3.7c0-5.7,0-11.4,0-17
		c0-2,0.2-3.6,2.9-3.6c2.5,0,3.2,1.3,3.2,3.4C133.3,233.8,133.3,236.7,133.3,239.5z"/>
	<path class="st31" d="M370.6,327.1c0,2.8,0,5.7,0,8.5c0,1.8-0.4,3.1-2.6,3.2c-2.3,0-3.4-0.9-3.4-3.2c0-6.1,0-12.2,0-18.3
		c0-2,1-2.9,3-2.9c2,0,3,0.8,3,2.9C370.6,320.6,370.6,323.8,370.6,327.1z"/>
	<path class="st32" d="M370.6,363.2c0,3.1,0,6.1,0,9.2c0,1.8-0.3,3.2-2.7,3.2c-1.8,0-2.4-0.8-2.8-2.5c-1.2-6.7-0.5-13.4-0.5-20.1
		c0-1.9,1.6-2,3.1-2c1.7,0,2.7,0.7,2.7,2.5C370.6,356.6,370.6,359.9,370.6,363.2C370.6,363.2,370.6,363.2,370.6,363.2z"/>
	<path class="st29" d="M364.6,290.7c0-2.8,0-5.7,0-8.5c0-2,0.3-3.6,2.9-3.6c2.4,0,3.2,1.1,3.2,3.3c-0.1,5.9,0,11.7,0,17.6
		c0,2-0.7,2.9-2.8,3c-2.4,0-3.3-1-3.2-3.3C364.6,296.3,364.6,293.5,364.6,290.7z"/>
	<path class="st25" d="M178.1,118.6c-2.8,0-5.7,0-8.5,0c-1.9,0-3.1-0.6-3.1-2.7c0-2.2,0.7-3.4,3.1-3.4c5.9,0.1,11.8,0.1,17.7,0
		c2.5,0,3,1.3,3,3.4c0,2.2-1.1,2.8-3.1,2.7C184.2,118.5,181.2,118.6,178.1,118.6z"/>
	<path class="st25" d="M227.9,243.5c0-2.7,0-5.3,0-8c0-2,0.3-3.6,2.9-3.6c2.3,0,3.3,0.9,3.3,3.3c-0.1,5.7-0.1,11.4,0,17.1
		c0,2.1-0.5,3.5-3,3.6c-3,0.1-3.3-1.6-3.2-3.9C228,249.2,227.9,246.4,227.9,243.5z"/>
	<path class="st25" d="M178.8,369.5c2.8,0,5.7,0,8.5,0c1.9,0,3,0.5,3,2.7c0,2.2-0.7,3.4-3.1,3.3c-5.9-0.1-11.8-0.1-17.6,0
		c-2.5,0-3.1-1.2-3-3.4c0-2.3,1.3-2.7,3.1-2.6C172.7,369.5,175.7,369.5,178.8,369.5z"/>
	<path class="st29" d="M127.3,203.7c0-3,0-6.1,0-9.1c0-2,0.9-2.9,2.9-2.9c1.9,0,3.1,0.6,3.1,2.7c0,6.1,0,12.1,0,18.2
		c0,2-0.9,2.9-3,2.9c-2.4,0.1-3.1-1.2-3.1-3.4C127.3,209.3,127.3,206.5,127.3,203.7z"/>
	<path class="st25" d="M227.9,171.3c0-2.9,0-5.7,0-8.6c0-1.9,0.6-3,2.8-3.1c2.2,0,3.4,0.7,3.4,3.1c-0.1,5.9-0.1,11.8,0,17.7
		c0,2.5-1.3,3.1-3.5,3.1c-2.2,0-2.7-1.2-2.7-3.1C228,177.5,227.9,174.4,227.9,171.3z"/>
	<path class="st25" d="M325.7,118.6c-2.9,0-5.7,0-8.6,0c-2.1,0-3.6-0.3-3.5-2.9c0-2.3,1-3.3,3.3-3.3c5.7,0.1,11.4,0.1,17.1,0
		c2.1,0,3.5,0.5,3.5,3c0.1,3-1.6,3.2-3.9,3.2C331,118.5,328.3,118.6,325.7,118.6z"/>
	<path class="st33" d="M132.9,118.6c-2.7-3.3-2-5.1,2.3-5.1c4.6-0.1,9.3,0.2,13.9-0.1c3.7-0.2,4.5,1.7,4.2,4.8
		C146.5,118.3,139.7,118.5,132.9,118.6z"/>
	<path class="st34" d="M177.5,262.9c5-8.2,12-14.8,17.6-22.6c0.9-1.2,2-3,3.9-2.3c1.5,0.5,1.8,2.1,2.1,3.5c0.8,4.4,1.4,8.8,2.2,13.2
		c0.4,2.4-0.6,3.1-2.8,3.7c-5.9,1.4-11.8,3.1-17.6,4.7C181,263.8,179.3,263.9,177.5,262.9z"/>
	<path class="st35" d="M177.5,262.9c1.8,0,3.5,0.1,5.3,0.1c-2,1.4-4.1,1.9-6.4,0.8c-0.1,0,0-0.4,0-0.4
		C176.8,263.2,177.2,263,177.5,262.9z"/>
</g>
</svg>
